<?xml version="1.0" encoding="UTF-8"?>
<svg xmlns="http://www.w3.org/2000/svg" xmlns:xlink="http://www.w3.org/1999/xlink" stroke-dasharray="none" shape-rendering="auto" font-family="'Dialog'" width="1196" text-rendering="auto" fill-opacity="1" contentScriptType="text/ecmascript" color-interpolation="auto" color-rendering="auto" preserveAspectRatio="xMidYMid meet" font-size="12" viewBox="0 0 1196 1270" fill="black" stroke="black" image-rendering="auto" stroke-miterlimit="10" zoomAndPan="magnify" version="1.0" stroke-linecap="square" stroke-linejoin="miter" contentStyleType="text/css" font-style="normal" height="1270" stroke-width="1" stroke-dashoffset="0" font-weight="normal" stroke-opacity="1">
  <!--Generated by the Batik Graphics2D SVG Generator-->
  <defs id="genericDefs" />
  <g>
    <defs id="defs1">
      <clipPath clipPathUnits="userSpaceOnUse" id="clipPath1">
        <path d="M199 9 L271 9 L271 41 L199 41 L199 9 Z" />
      </clipPath>
      <clipPath clipPathUnits="userSpaceOnUse" id="clipPath2">
        <path d="M199 9 L275 9 L275 41 L199 41 L199 9 Z" />
      </clipPath>
      <clipPath clipPathUnits="userSpaceOnUse" id="clipPath3">
        <path d="M229 39 L241 39 L241 1261 L229 1261 L229 39 Z" />
      </clipPath>
      <clipPath clipPathUnits="userSpaceOnUse" id="clipPath4">
        <path d="M299 9 L421 9 L421 61 L299 61 L299 9 Z" />
      </clipPath>
      <clipPath clipPathUnits="userSpaceOnUse" id="clipPath5">
        <path d="M299 9 L426 9 L426 61 L299 61 L299 9 Z" />
      </clipPath>
      <clipPath clipPathUnits="userSpaceOnUse" id="clipPath6">
        <path d="M354 59 L366 59 L366 1261 L354 1261 L354 59 Z" />
      </clipPath>
      <clipPath clipPathUnits="userSpaceOnUse" id="clipPath7">
        <path d="M429 9 L550 9 L550 61 L429 61 L429 9 Z" />
      </clipPath>
      <clipPath clipPathUnits="userSpaceOnUse" id="clipPath8">
        <path d="M429 9 L555 9 L555 61 L429 61 L429 9 Z" />
      </clipPath>
      <clipPath clipPathUnits="userSpaceOnUse" id="clipPath9">
        <path d="M483 59 L495 59 L495 1261 L483 1261 L483 59 Z" />
      </clipPath>
      <clipPath clipPathUnits="userSpaceOnUse" id="clipPath10">
        <path d="M478 509 L500 509 L500 551 L478 551 L478 509 Z" />
      </clipPath>
      <clipPath clipPathUnits="userSpaceOnUse" id="clipPath11">
        <path d="M499 509 L574 509 L574 538 L499 538 L499 509 Z" />
      </clipPath>
      <clipPath clipPathUnits="userSpaceOnUse" id="clipPath12">
        <path d="M478 809 L500 809 L500 851 L478 851 L478 809 Z" />
      </clipPath>
      <clipPath clipPathUnits="userSpaceOnUse" id="clipPath13">
        <path d="M499 809 L574 809 L574 838 L499 838 L499 809 Z" />
      </clipPath>
      <clipPath clipPathUnits="userSpaceOnUse" id="clipPath14">
        <path d="M558 9 L690 9 L690 61 L558 61 L558 9 Z" />
      </clipPath>
      <clipPath clipPathUnits="userSpaceOnUse" id="clipPath15">
        <path d="M558 9 L694 9 L694 61 L558 61 L558 9 Z" />
      </clipPath>
      <clipPath clipPathUnits="userSpaceOnUse" id="clipPath16">
        <path d="M558 9 L695 9 L695 61 L558 61 L558 9 Z" />
      </clipPath>
      <clipPath clipPathUnits="userSpaceOnUse" id="clipPath17">
        <path d="M618 59 L630 59 L630 1261 L618 1261 L618 59 Z" />
      </clipPath>
      <clipPath clipPathUnits="userSpaceOnUse" id="clipPath18">
        <path d="M698 9 L832 9 L832 61 L698 61 L698 9 Z" />
      </clipPath>
      <clipPath clipPathUnits="userSpaceOnUse" id="clipPath19">
        <path d="M698 9 L838 9 L838 61 L698 61 L698 9 Z" />
      </clipPath>
      <clipPath clipPathUnits="userSpaceOnUse" id="clipPath20">
        <path d="M698 9 L837 9 L837 61 L698 61 L698 9 Z" />
      </clipPath>
      <clipPath clipPathUnits="userSpaceOnUse" id="clipPath21">
        <path d="M759 59 L771 59 L771 1261 L759 1261 L759 59 Z" />
      </clipPath>
      <clipPath clipPathUnits="userSpaceOnUse" id="clipPath22">
        <path d="M754 689 L776 689 L776 731 L754 731 L754 689 Z" />
      </clipPath>
      <clipPath clipPathUnits="userSpaceOnUse" id="clipPath23">
        <path d="M775 689 L850 689 L850 718 L775 718 L775 689 Z" />
      </clipPath>
      <clipPath clipPathUnits="userSpaceOnUse" id="clipPath24">
        <path d="M754 389 L776 389 L776 431 L754 431 L754 389 Z" />
      </clipPath>
      <clipPath clipPathUnits="userSpaceOnUse" id="clipPath25">
        <path d="M775 389 L834 389 L834 418 L775 418 L775 389 Z" />
      </clipPath>
      <clipPath clipPathUnits="userSpaceOnUse" id="clipPath26">
        <path d="M754 749 L776 749 L776 791 L754 791 L754 749 Z" />
      </clipPath>
      <clipPath clipPathUnits="userSpaceOnUse" id="clipPath27">
        <path d="M775 749 L834 749 L834 778 L775 778 L775 749 Z" />
      </clipPath>
      <clipPath clipPathUnits="userSpaceOnUse" id="clipPath28">
        <path d="M840 9 L964 9 L964 61 L840 61 L840 9 Z" />
      </clipPath>
      <clipPath clipPathUnits="userSpaceOnUse" id="clipPath29">
        <path d="M840 9 L969 9 L969 61 L840 61 L840 9 Z" />
      </clipPath>
      <clipPath clipPathUnits="userSpaceOnUse" id="clipPath30">
        <path d="M896 59 L908 59 L908 1261 L896 1261 L896 59 Z" />
      </clipPath>
      <clipPath clipPathUnits="userSpaceOnUse" id="clipPath31">
        <path d="M891 98 L913 98 L913 140 L891 140 L891 98 Z" />
      </clipPath>
      <clipPath clipPathUnits="userSpaceOnUse" id="clipPath32">
        <path d="M912 98 L987 98 L987 127 L912 127 L912 98 Z" />
      </clipPath>
      <clipPath clipPathUnits="userSpaceOnUse" id="clipPath33">
        <path d="M891 209 L913 209 L913 251 L891 251 L891 209 Z" />
      </clipPath>
      <clipPath clipPathUnits="userSpaceOnUse" id="clipPath34">
        <path d="M912 209 L987 209 L987 238 L912 238 L912 209 Z" />
      </clipPath>
      <clipPath clipPathUnits="userSpaceOnUse" id="clipPath35">
        <path d="M891 329 L913 329 L913 371 L891 371 L891 329 Z" />
      </clipPath>
      <clipPath clipPathUnits="userSpaceOnUse" id="clipPath36">
        <path d="M912 329 L987 329 L987 358 L912 358 L912 329 Z" />
      </clipPath>
      <clipPath clipPathUnits="userSpaceOnUse" id="clipPath37">
        <path d="M891 569 L913 569 L913 611 L891 611 L891 569 Z" />
      </clipPath>
      <clipPath clipPathUnits="userSpaceOnUse" id="clipPath38">
        <path d="M912 569 L987 569 L987 598 L912 598 L912 569 Z" />
      </clipPath>
      <clipPath clipPathUnits="userSpaceOnUse" id="clipPath39">
        <path d="M891 869 L913 869 L913 911 L891 911 L891 869 Z" />
      </clipPath>
      <clipPath clipPathUnits="userSpaceOnUse" id="clipPath40">
        <path d="M912 869 L987 869 L987 898 L912 898 L912 869 Z" />
      </clipPath>
      <clipPath clipPathUnits="userSpaceOnUse" id="clipPath41">
        <path d="M891 989 L913 989 L913 1031 L891 1031 L891 989 Z" />
      </clipPath>
      <clipPath clipPathUnits="userSpaceOnUse" id="clipPath42">
        <path d="M912 989 L987 989 L987 1018 L912 1018 L912 989 Z" />
      </clipPath>
      <clipPath clipPathUnits="userSpaceOnUse" id="clipPath43">
        <path d="M891 1109 L913 1109 L913 1151 L891 1151 L891 1109 Z" />
      </clipPath>
      <clipPath clipPathUnits="userSpaceOnUse" id="clipPath44">
        <path d="M912 1109 L987 1109 L987 1138 L912 1138 L912 1109 Z" />
      </clipPath>
      <clipPath clipPathUnits="userSpaceOnUse" id="clipPath45">
        <path d="M891 149 L913 149 L913 191 L891 191 L891 149 Z" />
      </clipPath>
      <clipPath clipPathUnits="userSpaceOnUse" id="clipPath46">
        <path d="M912 149 L971 149 L971 178 L912 178 L912 149 Z" />
      </clipPath>
      <clipPath clipPathUnits="userSpaceOnUse" id="clipPath47">
        <path d="M891 262 L913 262 L913 304 L891 304 L891 262 Z" />
      </clipPath>
      <clipPath clipPathUnits="userSpaceOnUse" id="clipPath48">
        <path d="M912 262 L971 262 L971 291 L912 291 L912 262 Z" />
      </clipPath>
      <clipPath clipPathUnits="userSpaceOnUse" id="clipPath49">
        <path d="M891 449 L913 449 L913 491 L891 491 L891 449 Z" />
      </clipPath>
      <clipPath clipPathUnits="userSpaceOnUse" id="clipPath50">
        <path d="M912 449 L971 449 L971 478 L912 478 L912 449 Z" />
      </clipPath>
      <clipPath clipPathUnits="userSpaceOnUse" id="clipPath51">
        <path d="M891 629 L913 629 L913 671 L891 671 L891 629 Z" />
      </clipPath>
      <clipPath clipPathUnits="userSpaceOnUse" id="clipPath52">
        <path d="M912 629 L971 629 L971 658 L912 658 L912 629 Z" />
      </clipPath>
      <clipPath clipPathUnits="userSpaceOnUse" id="clipPath53">
        <path d="M891 929 L913 929 L913 971 L891 971 L891 929 Z" />
      </clipPath>
      <clipPath clipPathUnits="userSpaceOnUse" id="clipPath54">
        <path d="M912 929 L971 929 L971 958 L912 958 L912 929 Z" />
      </clipPath>
      <clipPath clipPathUnits="userSpaceOnUse" id="clipPath55">
        <path d="M891 1049 L913 1049 L913 1091 L891 1091 L891 1049 Z" />
      </clipPath>
      <clipPath clipPathUnits="userSpaceOnUse" id="clipPath56">
        <path d="M912 1049 L971 1049 L971 1078 L912 1078 L912 1049 Z" />
      </clipPath>
      <clipPath clipPathUnits="userSpaceOnUse" id="clipPath57">
        <path d="M891 1169 L913 1169 L913 1211 L891 1211 L891 1169 Z" />
      </clipPath>
      <clipPath clipPathUnits="userSpaceOnUse" id="clipPath58">
        <path d="M912 1169 L971 1169 L971 1198 L912 1198 L912 1169 Z" />
      </clipPath>
      <clipPath clipPathUnits="userSpaceOnUse" id="clipPath59">
        <path d="M-1 -1 L1197 -1 L1197 1271 L-1 1271 L-1 -1 Z" />
      </clipPath>
      <clipPath clipPathUnits="userSpaceOnUse" id="clipPath60">
        <path d="M143 69 L635 69 L635 98 L143 98 L143 69 Z" />
      </clipPath>
      <clipPath clipPathUnits="userSpaceOnUse" id="clipPath61">
        <path d="M233 93 L245 93 L245 104 L233 104 L233 93 Z" />
      </clipPath>
      <clipPath clipPathUnits="userSpaceOnUse" id="clipPath62">
        <path d="M184 180 L476 180 L476 209 L184 209 L184 180 Z" />
      </clipPath>
      <clipPath clipPathUnits="userSpaceOnUse" id="clipPath63">
        <path d="M233 204 L245 204 L245 215 L233 215 L233 204 Z" />
      </clipPath>
      <clipPath clipPathUnits="userSpaceOnUse" id="clipPath64">
        <path d="M189 299 L454 299 L454 328 L189 328 L189 299 Z" />
      </clipPath>
      <clipPath clipPathUnits="userSpaceOnUse" id="clipPath65">
        <path d="M233 324 L245 324 L245 335 L233 335 L233 324 Z" />
      </clipPath>
      <clipPath clipPathUnits="userSpaceOnUse" id="clipPath66">
        <path d="M160 481 L588 481 L588 510 L160 510 L160 481 Z" />
      </clipPath>
      <clipPath clipPathUnits="userSpaceOnUse" id="clipPath67">
        <path d="M233 504 L245 504 L245 515 L233 515 L233 504 Z" />
      </clipPath>
      <clipPath clipPathUnits="userSpaceOnUse" id="clipPath68">
        <path d="M196 540 L422 540 L422 569 L196 569 L196 540 Z" />
      </clipPath>
      <clipPath clipPathUnits="userSpaceOnUse" id="clipPath69">
        <path d="M233 564 L245 564 L245 575 L233 575 L233 564 Z" />
      </clipPath>
      <clipPath clipPathUnits="userSpaceOnUse" id="clipPath70">
        <path d="M239 635 L745 635 L745 693 L239 693 L239 635 Z" />
      </clipPath>
      <clipPath clipPathUnits="userSpaceOnUse" id="clipPath71">
        <path d="M239 635 L746 635 L746 693 L239 693 L239 635 Z" />
      </clipPath>
      <clipPath clipPathUnits="userSpaceOnUse" id="clipPath72">
        <path d="M233 684 L245 684 L245 695 L233 695 L233 684 Z" />
      </clipPath>
      <clipPath clipPathUnits="userSpaceOnUse" id="clipPath73">
        <path d="M161 780 L589 780 L589 809 L161 809 L161 780 Z" />
      </clipPath>
      <clipPath clipPathUnits="userSpaceOnUse" id="clipPath74">
        <path d="M233 804 L245 804 L245 815 L233 815 L233 804 Z" />
      </clipPath>
      <clipPath clipPathUnits="userSpaceOnUse" id="clipPath75">
        <path d="M174 840 L518 840 L518 869 L174 869 L174 840 Z" />
      </clipPath>
      <clipPath clipPathUnits="userSpaceOnUse" id="clipPath76">
        <path d="M233 864 L245 864 L245 875 L233 875 L233 864 Z" />
      </clipPath>
      <clipPath clipPathUnits="userSpaceOnUse" id="clipPath77">
        <path d="M26 965 L1105 965 L1105 994 L26 994 L26 965 Z" />
      </clipPath>
      <clipPath clipPathUnits="userSpaceOnUse" id="clipPath78">
        <path d="M233 984 L245 984 L245 995 L233 995 L233 984 Z" />
      </clipPath>
      <clipPath clipPathUnits="userSpaceOnUse" id="clipPath79">
        <path d="M200 1080 L406 1080 L406 1109 L200 1109 L200 1080 Z" />
      </clipPath>
      <clipPath clipPathUnits="userSpaceOnUse" id="clipPath80">
        <path d="M233 1104 L245 1104 L245 1115 L233 1115 L233 1104 Z" />
      </clipPath>
      <clipPath clipPathUnits="userSpaceOnUse" id="clipPath81">
        <path d="M151 121 L605 121 L605 150 L151 150 L151 121 Z" />
      </clipPath>
      <clipPath clipPathUnits="userSpaceOnUse" id="clipPath82">
        <path d="M883 144 L895 144 L895 155 L883 155 L883 144 Z" />
      </clipPath>
      <clipPath clipPathUnits="userSpaceOnUse" id="clipPath83">
        <path d="M158 235 L580 235 L580 264 L158 264 L158 235 Z" />
      </clipPath>
      <clipPath clipPathUnits="userSpaceOnUse" id="clipPath84">
        <path d="M883 257 L895 257 L895 268 L883 268 L883 257 Z" />
      </clipPath>
      <clipPath clipPathUnits="userSpaceOnUse" id="clipPath85">
        <path d="M51 361 L1045 361 L1045 390 L51 390 L51 361 Z" />
      </clipPath>
      <clipPath clipPathUnits="userSpaceOnUse" id="clipPath86">
        <path d="M746 384 L758 384 L758 395 L746 395 L746 384 Z" />
      </clipPath>
      <clipPath clipPathUnits="userSpaceOnUse" id="clipPath87">
        <path d="M111 419 L774 419 L774 448 L111 448 L111 419 Z" />
      </clipPath>
      <clipPath clipPathUnits="userSpaceOnUse" id="clipPath88">
        <path d="M883 444 L895 444 L895 455 L883 455 L883 444 Z" />
      </clipPath>
      <clipPath clipPathUnits="userSpaceOnUse" id="clipPath89">
        <path d="M140 600 L668 600 L668 629 L140 629 L140 600 Z" />
      </clipPath>
      <clipPath clipPathUnits="userSpaceOnUse" id="clipPath90">
        <path d="M883 624 L895 624 L895 635 L883 635 L883 624 Z" />
      </clipPath>
      <clipPath clipPathUnits="userSpaceOnUse" id="clipPath91">
        <path d="M23 723 L1178 723 L1178 752 L23 752 L23 723 Z" />
      </clipPath>
      <clipPath clipPathUnits="userSpaceOnUse" id="clipPath92">
        <path d="M746 744 L758 744 L758 755 L746 755 L746 744 Z" />
      </clipPath>
      <clipPath clipPathUnits="userSpaceOnUse" id="clipPath93">
        <path d="M134 901 L675 901 L675 930 L134 930 L134 901 Z" />
      </clipPath>
      <clipPath clipPathUnits="userSpaceOnUse" id="clipPath94">
        <path d="M883 924 L895 924 L895 935 L883 935 L883 924 Z" />
      </clipPath>
      <clipPath clipPathUnits="userSpaceOnUse" id="clipPath95">
        <path d="M127 1020 L703 1020 L703 1049 L127 1049 L127 1020 Z" />
      </clipPath>
      <clipPath clipPathUnits="userSpaceOnUse" id="clipPath96">
        <path d="M883 1044 L895 1044 L895 1055 L883 1055 L883 1044 Z" />
      </clipPath>
      <clipPath clipPathUnits="userSpaceOnUse" id="clipPath97">
        <path d="M161 1139 L579 1139 L579 1168 L161 1168 L161 1139 Z" />
      </clipPath>
      <clipPath clipPathUnits="userSpaceOnUse" id="clipPath98">
        <path d="M883 1164 L895 1164 L895 1175 L883 1175 L883 1164 Z" />
      </clipPath>
    </defs>
    <g font-size="23" fill="rgb(238,201,142)" font-family="'Lucida Sans'" stroke-linejoin="round" stroke="rgb(238,201,142)" stroke-width="0" stroke-miterlimit="0">
      <rect x="200" y="10" clip-path="url(#clipPath1)" width="70" height="30" stroke="none" />
    </g>
    <g stroke-width="0.1" font-size="23" font-family="'Lucida Sans'" stroke-linecap="butt">
      <rect x="200" y="10" clip-path="url(#clipPath1)" fill="none" width="69" height="29" />
      <text xml:space="preserve" x="202" y="33" clip-path="url(#clipPath2)" stroke="none">Syst...</text>
      <line clip-path="url(#clipPath3)" fill="none" x1="234" x2="234" y1="40" y2="1260" stroke-dasharray="10,10" stroke-width="1.1" />
    </g>
    <g stroke-linecap="butt" font-size="23" fill="rgb(255,245,181)" font-family="'Lucida Sans'" stroke-dasharray="10,10" stroke="rgb(255,245,181)" stroke-width="1.1">
      <rect x="300" y="10" clip-path="url(#clipPath4)" width="120" height="50" stroke="none" />
    </g>
    <g stroke-width="0.1" font-size="23" font-family="'Lucida Sans'" stroke-linecap="butt">
      <rect x="300" y="10" clip-path="url(#clipPath4)" fill="none" width="119" height="49" />
      <text xml:space="preserve" x="301" y="30" clip-path="url(#clipPath5)" stroke="none">theCreat...</text>
      <line clip-path="url(#clipPath6)" fill="none" x1="359" x2="359" y1="60" y2="1260" stroke-dasharray="10,10" stroke-width="1.1" />
    </g>
    <g stroke-linecap="butt" font-size="23" fill="rgb(255,245,181)" font-family="'Lucida Sans'" stroke-dasharray="10,10" stroke="rgb(255,245,181)" stroke-width="1.1">
      <rect x="430" y="10" clip-path="url(#clipPath7)" width="119" height="50" stroke="none" />
    </g>
    <g stroke-width="0.1" font-size="23" font-family="'Lucida Sans'" stroke-linecap="butt">
      <rect x="430" y="10" clip-path="url(#clipPath7)" fill="none" width="118" height="49" />
      <text xml:space="preserve" x="436" y="30" clip-path="url(#clipPath8)" stroke="none">theCloc...</text>
      <line clip-path="url(#clipPath9)" fill="none" x1="488" x2="488" y1="60" y2="1260" stroke-dasharray="10,10" stroke-width="1.1" />
    </g>
    <g stroke-linecap="butt" font-size="23" fill="rgb(39,76,114)" font-family="'Lucida Sans'" stroke-dasharray="10,10" stroke="rgb(39,76,114)" stroke-width="1.1">
      <rect x="479" y="510" clip-path="url(#clipPath10)" width="20" height="40" stroke="none" />
      <rect x="479" y="510" clip-path="url(#clipPath10)" fill="none" width="19" stroke-dasharray="none" height="39" stroke-width="0.1" />
    </g>
    <g stroke-width="0.1" font-size="23" font-family="'Lucida Sans'" stroke-linecap="butt">
      <text xml:space="preserve" x="500" y="532" clip-path="url(#clipPath11)" stroke="none">out04</text>
      <rect x="479" y="810" clip-path="url(#clipPath12)" fill="rgb(39,76,114)" width="20" height="40" stroke="none" />
      <rect x="479" y="810" clip-path="url(#clipPath12)" fill="none" width="19" height="39" stroke="rgb(39,76,114)" />
      <text xml:space="preserve" x="500" y="832" clip-path="url(#clipPath13)" stroke="none">out07</text>
      <rect x="559" y="10" clip-path="url(#clipPath14)" fill="rgb(255,245,181)" width="130" height="50" stroke="none" />
      <rect x="559" y="10" clip-path="url(#clipPath14)" fill="none" width="129" height="49" />
      <text xml:space="preserve" x="606" y="30" clip-path="url(#clipPath15)" stroke="none">bill</text>
      <text xml:space="preserve" x="560" y="57" clip-path="url(#clipPath16)" stroke="none">: actAdmi...</text>
      <line clip-path="url(#clipPath17)" fill="none" x1="623" x2="623" y1="60" y2="1260" stroke-dasharray="10,10" stroke-width="1.1" />
    </g>
    <g stroke-linecap="butt" font-size="23" fill="rgb(255,245,181)" font-family="'Lucida Sans'" stroke-dasharray="10,10" stroke="rgb(255,245,181)" stroke-width="1.1">
      <rect x="699" y="10" clip-path="url(#clipPath18)" width="132" height="50" stroke="none" />
    </g>
    <g stroke-width="0.1" font-size="23" font-family="'Lucida Sans'" stroke-linecap="butt">
      <rect x="699" y="10" clip-path="url(#clipPath18)" fill="none" width="131" height="49" />
      <text xml:space="preserve" x="733" y="30" clip-path="url(#clipPath19)" stroke="none">tango</text>
      <text xml:space="preserve" x="705" y="57" clip-path="url(#clipPath20)" stroke="none">: actCom...</text>
      <line clip-path="url(#clipPath21)" fill="none" x1="764" x2="764" y1="60" y2="1260" stroke-dasharray="10,10" stroke-width="1.1" />
    </g>
    <g stroke-linecap="butt" font-size="23" fill="rgb(39,76,114)" font-family="'Lucida Sans'" stroke-dasharray="10,10" stroke="rgb(39,76,114)" stroke-width="1.1">
      <rect x="755" y="690" clip-path="url(#clipPath22)" width="20" height="40" stroke="none" />
      <rect x="755" y="690" clip-path="url(#clipPath22)" fill="none" width="19" stroke-dasharray="none" height="39" stroke-width="0.1" />
    </g>
    <g stroke-width="0.1" font-size="23" font-family="'Lucida Sans'" stroke-linecap="butt">
      <text xml:space="preserve" x="776" y="712" clip-path="url(#clipPath23)" stroke="none">out06</text>
      <rect x="755" y="390" clip-path="url(#clipPath24)" fill="rgb(194,239,255)" width="20" height="40" stroke="none" />
      <rect x="755" y="390" clip-path="url(#clipPath24)" fill="none" width="19" height="39" stroke="rgb(194,239,255)" />
      <text xml:space="preserve" x="776" y="412" clip-path="url(#clipPath25)" stroke="none">in03</text>
      <rect x="755" y="750" clip-path="url(#clipPath26)" fill="rgb(194,239,255)" width="20" height="40" stroke="none" />
      <rect x="755" y="750" clip-path="url(#clipPath26)" fill="none" width="19" height="39" stroke="rgb(194,239,255)" />
      <text xml:space="preserve" x="776" y="772" clip-path="url(#clipPath27)" stroke="none">in06</text>
      <rect x="841" y="10" clip-path="url(#clipPath28)" fill="rgb(255,245,181)" width="122" height="50" stroke="none" />
      <rect x="841" y="10" clip-path="url(#clipPath28)" fill="none" width="121" height="49" />
      <text xml:space="preserve" x="872" y="30" clip-path="url(#clipPath29)" stroke="none">steve</text>
      <text xml:space="preserve" x="845" y="57" clip-path="url(#clipPath29)" stroke="none">: actCoo...</text>
      <line clip-path="url(#clipPath30)" fill="none" x1="901" x2="901" y1="60" y2="1260" stroke-dasharray="10,10" stroke-width="1.1" />
    </g>
    <g stroke-linecap="butt" font-size="23" fill="rgb(39,76,114)" font-family="'Lucida Sans'" stroke-dasharray="10,10" stroke="rgb(39,76,114)" stroke-width="1.1">
      <rect x="892" y="99" clip-path="url(#clipPath31)" width="20" height="40" stroke="none" />
      <rect x="892" y="99" clip-path="url(#clipPath31)" fill="none" width="19" stroke-dasharray="none" height="39" stroke-width="0.1" />
    </g>
    <g stroke-width="0.1" font-size="23" font-family="'Lucida Sans'" stroke-linecap="butt">
      <text xml:space="preserve" x="913" y="121" clip-path="url(#clipPath32)" stroke="none">out01</text>
      <rect x="892" y="210" clip-path="url(#clipPath33)" fill="rgb(39,76,114)" width="20" height="40" stroke="none" />
      <rect x="892" y="210" clip-path="url(#clipPath33)" fill="none" width="19" height="39" stroke="rgb(39,76,114)" />
      <text xml:space="preserve" x="913" y="232" clip-path="url(#clipPath34)" stroke="none">out02</text>
      <rect x="892" y="330" clip-path="url(#clipPath35)" fill="rgb(39,76,114)" width="20" height="40" stroke="none" />
      <rect x="892" y="330" clip-path="url(#clipPath35)" fill="none" width="19" height="39" stroke="rgb(39,76,114)" />
      <text xml:space="preserve" x="913" y="352" clip-path="url(#clipPath36)" stroke="none">out03</text>
      <rect x="892" y="570" clip-path="url(#clipPath37)" fill="rgb(39,76,114)" width="20" height="40" stroke="none" />
      <rect x="892" y="570" clip-path="url(#clipPath37)" fill="none" width="19" height="39" stroke="rgb(39,76,114)" />
      <text xml:space="preserve" x="913" y="592" clip-path="url(#clipPath38)" stroke="none">out05</text>
      <rect x="892" y="870" clip-path="url(#clipPath39)" fill="rgb(39,76,114)" width="20" height="40" stroke="none" />
      <rect x="892" y="870" clip-path="url(#clipPath39)" fill="none" width="19" height="39" stroke="rgb(39,76,114)" />
      <text xml:space="preserve" x="913" y="892" clip-path="url(#clipPath40)" stroke="none">out08</text>
      <rect x="892" y="990" clip-path="url(#clipPath41)" fill="rgb(39,76,114)" width="20" height="40" stroke="none" />
      <rect x="892" y="990" clip-path="url(#clipPath41)" fill="none" width="19" height="39" stroke="rgb(39,76,114)" />
      <text xml:space="preserve" x="913" y="1012" clip-path="url(#clipPath42)" stroke="none">out09</text>
      <rect x="892" y="1110" clip-path="url(#clipPath43)" fill="rgb(39,76,114)" width="20" height="40" stroke="none" />
      <rect x="892" y="1110" clip-path="url(#clipPath43)" fill="none" width="19" height="39" stroke="rgb(39,76,114)" />
      <text xml:space="preserve" x="913" y="1132" clip-path="url(#clipPath44)" stroke="none">out10</text>
      <rect x="892" y="150" clip-path="url(#clipPath45)" fill="rgb(194,239,255)" width="20" height="40" stroke="none" />
      <rect x="892" y="150" clip-path="url(#clipPath45)" fill="none" width="19" height="39" stroke="rgb(194,239,255)" />
      <text xml:space="preserve" x="913" y="172" clip-path="url(#clipPath46)" stroke="none">in01</text>
      <rect x="892" y="263" clip-path="url(#clipPath47)" fill="rgb(194,239,255)" width="20" height="40" stroke="none" />
      <rect x="892" y="263" clip-path="url(#clipPath47)" fill="none" width="19" height="39" stroke="rgb(194,239,255)" />
      <text xml:space="preserve" x="913" y="285" clip-path="url(#clipPath48)" stroke="none">in02</text>
      <rect x="892" y="450" clip-path="url(#clipPath49)" fill="rgb(194,239,255)" width="20" height="40" stroke="none" />
      <rect x="892" y="450" clip-path="url(#clipPath49)" fill="none" width="19" height="39" stroke="rgb(194,239,255)" />
      <text xml:space="preserve" x="913" y="472" clip-path="url(#clipPath50)" stroke="none">in04</text>
      <rect x="892" y="630" clip-path="url(#clipPath51)" fill="rgb(194,239,255)" width="20" height="40" stroke="none" />
      <rect x="892" y="630" clip-path="url(#clipPath51)" fill="none" width="19" height="39" stroke="rgb(194,239,255)" />
      <text xml:space="preserve" x="913" y="652" clip-path="url(#clipPath52)" stroke="none">in05</text>
      <rect x="892" y="930" clip-path="url(#clipPath53)" fill="rgb(194,239,255)" width="20" height="40" stroke="none" />
      <rect x="892" y="930" clip-path="url(#clipPath53)" fill="none" width="19" height="39" stroke="rgb(194,239,255)" />
      <text xml:space="preserve" x="913" y="952" clip-path="url(#clipPath54)" stroke="none">in07</text>
      <rect x="892" y="1050" clip-path="url(#clipPath55)" fill="rgb(194,239,255)" width="20" height="40" stroke="none" />
      <rect x="892" y="1050" clip-path="url(#clipPath55)" fill="none" width="19" height="39" stroke="rgb(194,239,255)" />
      <text xml:space="preserve" x="913" y="1072" clip-path="url(#clipPath56)" stroke="none">in08</text>
      <rect x="892" y="1170" clip-path="url(#clipPath57)" fill="rgb(194,239,255)" width="20" height="40" stroke="none" />
      <rect x="892" y="1170" clip-path="url(#clipPath57)" fill="none" width="19" height="39" stroke="rgb(194,239,255)" />
      <text xml:space="preserve" x="913" y="1192" clip-path="url(#clipPath58)" stroke="none">in09</text>
      <line clip-path="url(#clipPath59)" fill="none" x1="892" x2="235" y1="98" y2="98" stroke="rgb(136,136,136)" stroke-width="2.1" />
      <text x="144" y="92" clip-path="url(#clipPath60)" stroke="none" stroke-width="2.1" xml:space="preserve">oeLogin("steve","pwdMessirExcalibur2017")</text>
      <line clip-path="url(#clipPath61)" fill="none" x1="242" x2="235" y1="95" y2="98" stroke="rgb(136,136,136)" stroke-width="2.1" />
      <line clip-path="url(#clipPath61)" fill="none" x1="235" x2="242" y1="98" y2="101" stroke="rgb(136,136,136)" stroke-width="2.1" />
      <line clip-path="url(#clipPath59)" fill="none" x1="892" x2="235" y1="209" y2="209" stroke="rgb(136,136,136)" stroke-width="2.1" />
      <text x="185" y="203" clip-path="url(#clipPath62)" stroke="none" stroke-width="2.1" xml:space="preserve">oeGetCrisisSet("pending")</text>
      <line clip-path="url(#clipPath63)" fill="none" x1="242" x2="235" y1="206" y2="209" stroke="rgb(136,136,136)" stroke-width="2.1" />
      <line clip-path="url(#clipPath63)" fill="none" x1="235" x2="242" y1="209" y2="212" stroke="rgb(136,136,136)" stroke-width="2.1" />
      <line clip-path="url(#clipPath59)" fill="none" x1="892" x2="235" y1="329" y2="329" stroke="rgb(136,136,136)" stroke-width="2.1" />
      <text x="190" y="322" clip-path="url(#clipPath64)" stroke="none" stroke-width="2.1" xml:space="preserve">oeSetCrisisHandler("1")</text>
      <line clip-path="url(#clipPath65)" fill="none" x1="242" x2="235" y1="326" y2="329" stroke="rgb(136,136,136)" stroke-width="2.1" />
      <line clip-path="url(#clipPath65)" fill="none" x1="235" x2="242" y1="329" y2="332" stroke="rgb(136,136,136)" stroke-width="2.1" />
      <line clip-path="url(#clipPath59)" fill="none" x1="479" x2="235" y1="509" y2="509" stroke="rgb(136,136,136)" stroke-width="2.1" />
      <text x="161" y="504" clip-path="url(#clipPath66)" stroke="none" stroke-width="2.1" xml:space="preserve">oeSetClock("2017:11:26 - 10:45:00")</text>
      <line clip-path="url(#clipPath67)" fill="none" x1="242" x2="235" y1="506" y2="509" stroke="rgb(136,136,136)" stroke-width="2.1" />
      <line clip-path="url(#clipPath67)" fill="none" x1="235" x2="242" y1="509" y2="512" stroke="rgb(136,136,136)" stroke-width="2.1" />
      <line clip-path="url(#clipPath59)" fill="none" x1="892" x2="235" y1="569" y2="569" stroke="rgb(136,136,136)" stroke-width="2.1" />
      <text x="197" y="563" clip-path="url(#clipPath68)" stroke="none" stroke-width="2.1" xml:space="preserve">oeValidateAlert("1")</text>
      <line clip-path="url(#clipPath69)" fill="none" x1="242" x2="235" y1="566" y2="569" stroke="rgb(136,136,136)" stroke-width="2.1" />
      <line clip-path="url(#clipPath69)" fill="none" x1="235" x2="242" y1="569" y2="572" stroke="rgb(136,136,136)" stroke-width="2.1" />
      <line clip-path="url(#clipPath59)" fill="none" x1="755" x2="235" y1="689" y2="689" stroke="rgb(136,136,136)" stroke-width="2.1" />
      <text x="242" y="659" clip-path="url(#clipPath70)" stroke="none" stroke-width="2.1" xml:space="preserve">oeAlert("witness","2017:11:26","10:20:00","</text>
      <text x="244" y="686" clip-path="url(#clipPath71)" stroke="none" stroke-width="2.1" xml:space="preserve">+3524666445000","49.627095:6.16025...</text>
      <line clip-path="url(#clipPath72)" fill="none" x1="242" x2="235" y1="686" y2="689" stroke="rgb(136,136,136)" stroke-width="2.1" />
      <line clip-path="url(#clipPath72)" fill="none" x1="235" x2="242" y1="689" y2="692" stroke="rgb(136,136,136)" stroke-width="2.1" />
      <line clip-path="url(#clipPath59)" fill="none" x1="479" x2="235" y1="809" y2="809" stroke="rgb(136,136,136)" stroke-width="2.1" />
      <text x="162" y="803" clip-path="url(#clipPath73)" stroke="none" stroke-width="2.1" xml:space="preserve">oeSetClock("2017:11:26 - 12:45:00")</text>
      <line clip-path="url(#clipPath74)" fill="none" x1="242" x2="235" y1="806" y2="809" stroke="rgb(136,136,136)" stroke-width="2.1" />
      <line clip-path="url(#clipPath74)" fill="none" x1="235" x2="242" y1="809" y2="812" stroke="rgb(136,136,136)" stroke-width="2.1" />
      <line clip-path="url(#clipPath59)" fill="none" x1="892" x2="235" y1="869" y2="869" stroke="rgb(136,136,136)" stroke-width="2.1" />
      <text x="175" y="863" clip-path="url(#clipPath75)" stroke="none" stroke-width="2.1" xml:space="preserve">oeSetCrisisStatus("1","solved")</text>
      <line clip-path="url(#clipPath76)" fill="none" x1="242" x2="235" y1="866" y2="869" stroke="rgb(136,136,136)" stroke-width="2.1" />
      <line clip-path="url(#clipPath76)" fill="none" x1="235" x2="242" y1="869" y2="872" stroke="rgb(136,136,136)" stroke-width="2.1" />
      <line clip-path="url(#clipPath59)" fill="none" x1="892" x2="235" y1="989" y2="989" stroke="rgb(136,136,136)" stroke-width="2.1" />
      <text x="27" y="988" clip-path="url(#clipPath77)" stroke="none" stroke-width="2.1" xml:space="preserve">oeReportOnCrisis("1","3 victims sent to hospital, 2 cars evacuated and 4 rescue unit mobilized")</text>
      <line clip-path="url(#clipPath78)" fill="none" x1="242" x2="235" y1="986" y2="989" stroke="rgb(136,136,136)" stroke-width="2.1" />
      <line clip-path="url(#clipPath78)" fill="none" x1="235" x2="242" y1="989" y2="992" stroke="rgb(136,136,136)" stroke-width="2.1" />
      <line clip-path="url(#clipPath59)" fill="none" x1="892" x2="235" y1="1109" y2="1109" stroke="rgb(136,136,136)" stroke-width="2.1" />
      <text x="201" y="1103" clip-path="url(#clipPath79)" stroke="none" stroke-width="2.1" xml:space="preserve">oeCloseCrisis("1")</text>
      <line clip-path="url(#clipPath80)" fill="none" x1="242" x2="235" y1="1106" y2="1109" stroke="rgb(136,136,136)" stroke-width="2.1" />
      <line clip-path="url(#clipPath80)" fill="none" x1="235" x2="242" y1="1109" y2="1112" stroke="rgb(136,136,136)" stroke-width="2.1" />
    </g>
    <g stroke-linecap="butt" font-size="23" fill="rgb(136,136,136)" font-family="'Lucida Sans'" stroke-dasharray="5,5" stroke="rgb(136,136,136)" stroke-width="2.1">
      <line clip-path="url(#clipPath59)" fill="none" x1="892" x2="235" y1="149" y2="149" />
      <text x="152" y="144" clip-path="url(#clipPath81)" fill="black" stroke="none" xml:space="preserve">ieMessage(You are logged ! Welcome ...)</text>
      <line clip-path="url(#clipPath82)" fill="none" x1="885" x2="892" y1="152" y2="149" stroke-dasharray="none" />
      <line clip-path="url(#clipPath82)" fill="none" x1="892" x2="885" y1="149" y2="146" stroke-dasharray="none" />
      <line clip-path="url(#clipPath59)" fill="none" x1="892" x2="235" y1="262" y2="262" />
      <text x="159" y="258" clip-path="url(#clipPath83)" fill="black" stroke="none" xml:space="preserve">ieSendACrisis(crisis with ID 1 details)</text>
      <line clip-path="url(#clipPath84)" fill="none" x1="885" x2="892" y1="265" y2="262" stroke-dasharray="none" />
      <line clip-path="url(#clipPath84)" fill="none" x1="892" x2="885" y1="262" y2="259" stroke-dasharray="none" />
      <line clip-path="url(#clipPath59)" fill="none" x1="755" x2="235" y1="389" y2="389" />
      <text x="52" y="384" clip-path="url(#clipPath85)" fill="black" stroke="none" xml:space="preserve">ieSmsSend(+3524666445252,The handling of your alert by our services is in progress !)</text>
      <line clip-path="url(#clipPath86)" fill="none" x1="748" x2="755" y1="392" y2="389" stroke-dasharray="none" />
      <line clip-path="url(#clipPath86)" fill="none" x1="755" x2="748" y1="389" y2="386" stroke-dasharray="none" />
      <line clip-path="url(#clipPath59)" fill="none" x1="892" x2="235" y1="449" y2="449" />
      <text x="112" y="442" clip-path="url(#clipPath87)" fill="black" stroke="none" xml:space="preserve">ieMessage(You are now considered as handling the crisis !)</text>
      <line clip-path="url(#clipPath88)" fill="none" x1="885" x2="892" y1="452" y2="449" stroke-dasharray="none" />
      <line clip-path="url(#clipPath88)" fill="none" x1="892" x2="885" y1="449" y2="446" stroke-dasharray="none" />
      <line clip-path="url(#clipPath59)" fill="none" x1="892" x2="235" y1="629" y2="629" />
      <text x="141" y="623" clip-path="url(#clipPath89)" fill="black" stroke="none" xml:space="preserve">ieMessage(The Alert is now declared as valid !)</text>
      <line clip-path="url(#clipPath90)" fill="none" x1="885" x2="892" y1="632" y2="629" stroke-dasharray="none" />
      <line clip-path="url(#clipPath90)" fill="none" x1="892" x2="885" y1="629" y2="626" stroke-dasharray="none" />
      <line clip-path="url(#clipPath59)" fill="none" x1="755" x2="235" y1="749" y2="749" />
      <text x="24" y="746" clip-path="url(#clipPath91)" fill="black" stroke="none" xml:space="preserve">ieSmsSend(+3524666445000,Your alert has been registered. We will handle it and keep you informed)</text>
      <line clip-path="url(#clipPath92)" fill="none" x1="748" x2="755" y1="752" y2="749" stroke-dasharray="none" />
      <line clip-path="url(#clipPath92)" fill="none" x1="755" x2="748" y1="749" y2="746" stroke-dasharray="none" />
      <line clip-path="url(#clipPath59)" fill="none" x1="892" x2="235" y1="929" y2="929" />
      <text x="135" y="924" clip-path="url(#clipPath93)" fill="black" stroke="none" xml:space="preserve">ieMessage(The crisis status has been updated !)</text>
      <line clip-path="url(#clipPath94)" fill="none" x1="885" x2="892" y1="932" y2="929" stroke-dasharray="none" />
      <line clip-path="url(#clipPath94)" fill="none" x1="892" x2="885" y1="929" y2="926" stroke-dasharray="none" />
      <line clip-path="url(#clipPath59)" fill="none" x1="892" x2="235" y1="1049" y2="1049" />
      <text x="128" y="1043" clip-path="url(#clipPath95)" fill="black" stroke="none" xml:space="preserve">ieMessage(The crisis comment has been updated !)</text>
      <line clip-path="url(#clipPath96)" fill="none" x1="885" x2="892" y1="1052" y2="1049" stroke-dasharray="none" />
      <line clip-path="url(#clipPath96)" fill="none" x1="892" x2="885" y1="1049" y2="1046" stroke-dasharray="none" />
      <line clip-path="url(#clipPath59)" fill="none" x1="892" x2="235" y1="1169" y2="1169" />
      <text x="162" y="1162" clip-path="url(#clipPath97)" fill="black" stroke="none" xml:space="preserve">ieMessage(The crisis is now closed !)</text>
      <line clip-path="url(#clipPath98)" fill="none" x1="885" x2="892" y1="1172" y2="1169" stroke-dasharray="none" />
      <line clip-path="url(#clipPath98)" fill="none" x1="892" x2="885" y1="1169" y2="1166" stroke-dasharray="none" />
    </g>
  </g>
</svg>

