<?xml version="1.0" encoding="UTF-8"?>
<svg xmlns="http://www.w3.org/2000/svg" xmlns:xlink="http://www.w3.org/1999/xlink" stroke-dasharray="none" shape-rendering="auto" font-family="'Dialog'" width="825" text-rendering="auto" fill-opacity="1" contentScriptType="text/ecmascript" color-interpolation="auto" color-rendering="auto" preserveAspectRatio="xMidYMid meet" font-size="12" viewBox="0 0 825 1085" fill="black" stroke="black" image-rendering="auto" stroke-miterlimit="10" zoomAndPan="magnify" version="1.0" stroke-linecap="square" stroke-linejoin="miter" contentStyleType="text/css" font-style="normal" height="1085" stroke-width="1" stroke-dashoffset="0" font-weight="normal" stroke-opacity="1">
  <!--Generated by the Batik Graphics2D SVG Generator-->
  <defs id="genericDefs" />
  <g>
    <defs id="defs1">
      <clipPath clipPathUnits="userSpaceOnUse" id="clipPath1">
        <path d="M9 9 L81 9 L81 41 L9 41 L9 9 Z" />
      </clipPath>
      <clipPath clipPathUnits="userSpaceOnUse" id="clipPath2">
        <path d="M9 9 L84 9 L84 41 L9 41 L9 9 Z" />
      </clipPath>
      <clipPath clipPathUnits="userSpaceOnUse" id="clipPath3">
        <path d="M39 39 L51 39 L51 1076 L39 1076 L39 39 Z" />
      </clipPath>
      <clipPath clipPathUnits="userSpaceOnUse" id="clipPath4">
        <path d="M168 9 L286 9 L286 61 L168 61 L168 9 Z" />
      </clipPath>
      <clipPath clipPathUnits="userSpaceOnUse" id="clipPath5">
        <path d="M168 9 L289 9 L289 61 L168 61 L168 9 Z" />
      </clipPath>
      <clipPath clipPathUnits="userSpaceOnUse" id="clipPath6">
        <path d="M221 59 L233 59 L233 1076 L221 1076 L221 59 Z" />
      </clipPath>
      <clipPath clipPathUnits="userSpaceOnUse" id="clipPath7">
        <path d="M216 89 L238 89 L238 131 L216 131 L216 89 Z" />
      </clipPath>
      <clipPath clipPathUnits="userSpaceOnUse" id="clipPath8">
        <path d="M237 89 L279 89 L279 107 L237 107 L237 89 Z" />
      </clipPath>
      <clipPath clipPathUnits="userSpaceOnUse" id="clipPath9">
        <path d="M294 9 L395 9 L395 61 L294 61 L294 9 Z" />
      </clipPath>
      <clipPath clipPathUnits="userSpaceOnUse" id="clipPath10">
        <path d="M294 9 L398 9 L398 61 L294 61 L294 9 Z" />
      </clipPath>
      <clipPath clipPathUnits="userSpaceOnUse" id="clipPath11">
        <path d="M338 59 L350 59 L350 1076 L338 1076 L338 59 Z" />
      </clipPath>
      <clipPath clipPathUnits="userSpaceOnUse" id="clipPath12">
        <path d="M333 149 L355 149 L355 191 L333 191 L333 149 Z" />
      </clipPath>
      <clipPath clipPathUnits="userSpaceOnUse" id="clipPath13">
        <path d="M354 149 L396 149 L396 167 L354 167 L354 149 Z" />
      </clipPath>
      <clipPath clipPathUnits="userSpaceOnUse" id="clipPath14">
        <path d="M333 569 L355 569 L355 611 L333 611 L333 569 Z" />
      </clipPath>
      <clipPath clipPathUnits="userSpaceOnUse" id="clipPath15">
        <path d="M354 569 L396 569 L396 587 L354 587 L354 569 Z" />
      </clipPath>
      <clipPath clipPathUnits="userSpaceOnUse" id="clipPath16">
        <path d="M333 789 L355 789 L355 831 L333 831 L333 789 Z" />
      </clipPath>
      <clipPath clipPathUnits="userSpaceOnUse" id="clipPath17">
        <path d="M354 789 L396 789 L396 807 L354 807 L354 789 Z" />
      </clipPath>
      <clipPath clipPathUnits="userSpaceOnUse" id="clipPath18">
        <path d="M333 849 L355 849 L355 891 L333 891 L333 849 Z" />
      </clipPath>
      <clipPath clipPathUnits="userSpaceOnUse" id="clipPath19">
        <path d="M354 849 L396 849 L396 867 L354 867 L354 849 Z" />
      </clipPath>
      <clipPath clipPathUnits="userSpaceOnUse" id="clipPath20">
        <path d="M403 9 L534 9 L534 61 L403 61 L403 9 Z" />
      </clipPath>
      <clipPath clipPathUnits="userSpaceOnUse" id="clipPath21">
        <path d="M403 9 L536 9 L536 61 L403 61 L403 9 Z" />
      </clipPath>
      <clipPath clipPathUnits="userSpaceOnUse" id="clipPath22">
        <path d="M403 9 L537 9 L537 61 L403 61 L403 9 Z" />
      </clipPath>
      <clipPath clipPathUnits="userSpaceOnUse" id="clipPath23">
        <path d="M462 59 L474 59 L474 1076 L462 1076 L462 59 Z" />
      </clipPath>
      <clipPath clipPathUnits="userSpaceOnUse" id="clipPath24">
        <path d="M457 209 L479 209 L479 251 L457 251 L457 209 Z" />
      </clipPath>
      <clipPath clipPathUnits="userSpaceOnUse" id="clipPath25">
        <path d="M478 209 L520 209 L520 227 L478 227 L478 209 Z" />
      </clipPath>
      <clipPath clipPathUnits="userSpaceOnUse" id="clipPath26">
        <path d="M457 329 L479 329 L479 371 L457 371 L457 329 Z" />
      </clipPath>
      <clipPath clipPathUnits="userSpaceOnUse" id="clipPath27">
        <path d="M478 329 L520 329 L520 347 L478 347 L478 329 Z" />
      </clipPath>
      <clipPath clipPathUnits="userSpaceOnUse" id="clipPath28">
        <path d="M457 449 L479 449 L479 491 L457 491 L457 449 Z" />
      </clipPath>
      <clipPath clipPathUnits="userSpaceOnUse" id="clipPath29">
        <path d="M478 449 L520 449 L520 467 L478 467 L478 449 Z" />
      </clipPath>
      <clipPath clipPathUnits="userSpaceOnUse" id="clipPath30">
        <path d="M457 258 L479 258 L479 300 L457 300 L457 258 Z" />
      </clipPath>
      <clipPath clipPathUnits="userSpaceOnUse" id="clipPath31">
        <path d="M478 258 L511 258 L511 276 L478 276 L478 258 Z" />
      </clipPath>
      <clipPath clipPathUnits="userSpaceOnUse" id="clipPath32">
        <path d="M457 381 L479 381 L479 423 L457 423 L457 381 Z" />
      </clipPath>
      <clipPath clipPathUnits="userSpaceOnUse" id="clipPath33">
        <path d="M478 381 L511 381 L511 399 L478 399 L478 381 Z" />
      </clipPath>
      <clipPath clipPathUnits="userSpaceOnUse" id="clipPath34">
        <path d="M457 499 L479 499 L479 541 L457 541 L457 499 Z" />
      </clipPath>
      <clipPath clipPathUnits="userSpaceOnUse" id="clipPath35">
        <path d="M478 499 L511 499 L511 517 L478 517 L478 499 Z" />
      </clipPath>
      <clipPath clipPathUnits="userSpaceOnUse" id="clipPath36">
        <path d="M457 915 L479 915 L479 957 L457 957 L457 915 Z" />
      </clipPath>
      <clipPath clipPathUnits="userSpaceOnUse" id="clipPath37">
        <path d="M478 915 L511 915 L511 933 L478 933 L478 915 Z" />
      </clipPath>
      <clipPath clipPathUnits="userSpaceOnUse" id="clipPath38">
        <path d="M542 9 L678 9 L678 61 L542 61 L542 9 Z" />
      </clipPath>
      <clipPath clipPathUnits="userSpaceOnUse" id="clipPath39">
        <path d="M542 9 L681 9 L681 61 L542 61 L542 9 Z" />
      </clipPath>
      <clipPath clipPathUnits="userSpaceOnUse" id="clipPath40">
        <path d="M604 59 L616 59 L616 1076 L604 1076 L604 59 Z" />
      </clipPath>
      <clipPath clipPathUnits="userSpaceOnUse" id="clipPath41">
        <path d="M599 664 L621 664 L621 706 L599 706 L599 664 Z" />
      </clipPath>
      <clipPath clipPathUnits="userSpaceOnUse" id="clipPath42">
        <path d="M620 664 L662 664 L662 682 L620 682 L620 664 Z" />
      </clipPath>
      <clipPath clipPathUnits="userSpaceOnUse" id="clipPath43">
        <path d="M599 729 L621 729 L621 771 L599 771 L599 729 Z" />
      </clipPath>
      <clipPath clipPathUnits="userSpaceOnUse" id="clipPath44">
        <path d="M620 729 L653 729 L653 747 L620 747 L620 729 Z" />
      </clipPath>
      <clipPath clipPathUnits="userSpaceOnUse" id="clipPath45">
        <path d="M686 9 L816 9 L816 61 L686 61 L686 9 Z" />
      </clipPath>
      <clipPath clipPathUnits="userSpaceOnUse" id="clipPath46">
        <path d="M686 9 L819 9 L819 61 L686 61 L686 9 Z" />
      </clipPath>
      <clipPath clipPathUnits="userSpaceOnUse" id="clipPath47">
        <path d="M745 59 L757 59 L757 1076 L745 1076 L745 59 Z" />
      </clipPath>
      <clipPath clipPathUnits="userSpaceOnUse" id="clipPath48">
        <path d="M740 984 L762 984 L762 1026 L740 1026 L740 984 Z" />
      </clipPath>
      <clipPath clipPathUnits="userSpaceOnUse" id="clipPath49">
        <path d="M761 984 L794 984 L794 1002 L761 1002 L761 984 Z" />
      </clipPath>
      <clipPath clipPathUnits="userSpaceOnUse" id="clipPath50">
        <path d="M-1 -1 L826 -1 L826 1086 L-1 1086 L-1 -1 Z" />
      </clipPath>
      <clipPath clipPathUnits="userSpaceOnUse" id="clipPath51">
        <path d="M62 67 L297 67 L297 85 L62 85 L62 67 Z" />
      </clipPath>
      <clipPath clipPathUnits="userSpaceOnUse" id="clipPath52">
        <path d="M43 85 L55 85 L55 96 L43 96 L43 85 Z" />
      </clipPath>
      <clipPath clipPathUnits="userSpaceOnUse" id="clipPath53">
        <path d="M61 128 L298 128 L298 146 L61 146 L61 128 Z" />
      </clipPath>
      <clipPath clipPathUnits="userSpaceOnUse" id="clipPath54">
        <path d="M43 145 L55 145 L55 156 L43 156 L43 145 Z" />
      </clipPath>
      <clipPath clipPathUnits="userSpaceOnUse" id="clipPath55">
        <path d="M57 185 L289 185 L289 203 L57 203 L57 185 Z" />
      </clipPath>
      <clipPath clipPathUnits="userSpaceOnUse" id="clipPath56">
        <path d="M43 205 L55 205 L55 216 L43 216 L43 205 Z" />
      </clipPath>
      <clipPath clipPathUnits="userSpaceOnUse" id="clipPath57">
        <path d="M67 304 L431 304 L431 322 L67 322 L67 304 Z" />
      </clipPath>
      <clipPath clipPathUnits="userSpaceOnUse" id="clipPath58">
        <path d="M43 325 L55 325 L55 336 L43 336 L43 325 Z" />
      </clipPath>
      <clipPath clipPathUnits="userSpaceOnUse" id="clipPath59">
        <path d="M53 425 L125 425 L125 443 L53 443 L53 425 Z" />
      </clipPath>
      <clipPath clipPathUnits="userSpaceOnUse" id="clipPath60">
        <path d="M43 445 L55 445 L55 456 L43 456 L43 445 Z" />
      </clipPath>
      <clipPath clipPathUnits="userSpaceOnUse" id="clipPath61">
        <path d="M62 547 L299 547 L299 565 L62 565 L62 547 Z" />
      </clipPath>
      <clipPath clipPathUnits="userSpaceOnUse" id="clipPath62">
        <path d="M43 565 L55 565 L55 576 L43 576 L43 565 Z" />
      </clipPath>
      <clipPath clipPathUnits="userSpaceOnUse" id="clipPath63">
        <path d="M34 604 L537 604 L537 683 L34 683 L34 604 Z" />
      </clipPath>
      <clipPath clipPathUnits="userSpaceOnUse" id="clipPath64">
        <path d="M43 660 L55 660 L55 671 L43 671 L43 660 Z" />
      </clipPath>
      <clipPath clipPathUnits="userSpaceOnUse" id="clipPath65">
        <path d="M59 762 L296 762 L296 780 L59 780 L59 762 Z" />
      </clipPath>
      <clipPath clipPathUnits="userSpaceOnUse" id="clipPath66">
        <path d="M43 785 L55 785 L55 796 L43 796 L43 785 Z" />
      </clipPath>
      <clipPath clipPathUnits="userSpaceOnUse" id="clipPath67">
        <path d="M55 824 L238 824 L238 842 L55 842 L55 824 Z" />
      </clipPath>
      <clipPath clipPathUnits="userSpaceOnUse" id="clipPath68">
        <path d="M43 845 L55 845 L55 856 L43 856 L43 845 Z" />
      </clipPath>
      <clipPath clipPathUnits="userSpaceOnUse" id="clipPath69">
        <path d="M63 235 L319 235 L319 253 L63 253 L63 235 Z" />
      </clipPath>
      <clipPath clipPathUnits="userSpaceOnUse" id="clipPath70">
        <path d="M449 254 L461 254 L461 265 L449 265 L449 254 Z" />
      </clipPath>
      <clipPath clipPathUnits="userSpaceOnUse" id="clipPath71">
        <path d="M61 359 L253 359 L253 377 L61 377 L61 359 Z" />
      </clipPath>
      <clipPath clipPathUnits="userSpaceOnUse" id="clipPath72">
        <path d="M449 377 L461 377 L461 388 L449 388 L449 377 Z" />
      </clipPath>
      <clipPath clipPathUnits="userSpaceOnUse" id="clipPath73">
        <path d="M63 477 L346 477 L346 495 L63 495 L63 477 Z" />
      </clipPath>
      <clipPath clipPathUnits="userSpaceOnUse" id="clipPath74">
        <path d="M449 495 L461 495 L461 506 L449 506 L449 495 Z" />
      </clipPath>
      <clipPath clipPathUnits="userSpaceOnUse" id="clipPath75">
        <path d="M78 708 L724 708 L724 726 L78 726 L78 708 Z" />
      </clipPath>
      <clipPath clipPathUnits="userSpaceOnUse" id="clipPath76">
        <path d="M591 725 L603 725 L603 736 L591 736 L591 725 Z" />
      </clipPath>
      <clipPath clipPathUnits="userSpaceOnUse" id="clipPath77">
        <path d="M82 894 L629 894 L629 912 L82 912 L82 894 Z" />
      </clipPath>
      <clipPath clipPathUnits="userSpaceOnUse" id="clipPath78">
        <path d="M449 911 L461 911 L461 922 L449 922 L449 911 Z" />
      </clipPath>
      <clipPath clipPathUnits="userSpaceOnUse" id="clipPath79">
        <path d="M78 962 L625 962 L625 980 L78 980 L78 962 Z" />
      </clipPath>
      <clipPath clipPathUnits="userSpaceOnUse" id="clipPath80">
        <path d="M732 980 L744 980 L744 991 L732 991 L732 980 Z" />
      </clipPath>
    </defs>
    <g font-size="23" fill="rgb(238,201,142)" font-family="'Lucida Sans'" stroke-linejoin="round" stroke="rgb(238,201,142)" stroke-width="0" stroke-miterlimit="0">
      <rect x="10" y="10" clip-path="url(#clipPath1)" width="70" height="30" stroke="none" />
    </g>
    <g stroke-width="0.1" font-size="23" font-family="'Lucida Sans'" stroke-linecap="butt">
      <rect x="10" y="10" clip-path="url(#clipPath1)" fill="none" width="69" height="29" />
      <text x="22" font-size="13" y="32" clip-path="url(#clipPath2)" font-family="'Lucida Sans Unicode'" stroke="none" xml:space="preserve">System</text>
      <line clip-path="url(#clipPath3)" fill="none" x1="44" x2="44" y1="40" y2="1075" stroke-dasharray="10,10" stroke-width="1.1" />
    </g>
    <g stroke-linecap="butt" font-size="23" fill="rgb(255,245,181)" font-family="'Lucida Sans'" stroke-dasharray="10,10" stroke="rgb(255,245,181)" stroke-width="1.1">
      <rect x="169" y="10" clip-path="url(#clipPath4)" width="116" height="50" stroke="none" />
    </g>
    <g stroke-width="0.1" font-size="23" font-family="'Lucida Sans'" stroke-linecap="butt">
      <rect x="169" y="10" clip-path="url(#clipPath4)" fill="none" width="115" height="49" />
      <text x="194" font-size="13" y="34" clip-path="url(#clipPath5)" font-family="'Lucida Sans Unicode'" stroke="none" xml:space="preserve">theCreator</text>
      <text x="179" font-size="13" y="50" clip-path="url(#clipPath5)" font-family="'Lucida Sans Unicode'" stroke="none" xml:space="preserve">: actMsrCreator</text>
      <line clip-path="url(#clipPath6)" fill="none" x1="226" x2="226" y1="60" y2="1075" stroke-dasharray="10,10" stroke-width="1.1" />
    </g>
    <g stroke-linecap="butt" font-size="23" fill="rgb(39,76,114)" font-family="'Lucida Sans'" stroke-dasharray="10,10" stroke="rgb(39,76,114)" stroke-width="1.1">
      <rect x="217" y="90" clip-path="url(#clipPath7)" width="20" height="40" stroke="none" />
      <rect x="217" y="90" clip-path="url(#clipPath7)" fill="none" width="19" stroke-dasharray="none" height="39" stroke-width="0.1" />
    </g>
    <g stroke-width="0.1" font-size="13" font-family="'Lucida Sans Unicode'" stroke-linecap="butt">
      <text xml:space="preserve" x="238" y="105" clip-path="url(#clipPath8)" stroke="none">out01</text>
    </g>
    <g stroke-linecap="butt" font-size="23" fill="rgb(255,245,181)" font-family="'Lucida Sans'" stroke="rgb(255,245,181)" stroke-width="0.1">
      <rect x="295" y="10" clip-path="url(#clipPath9)" width="99" height="50" stroke="none" />
      <rect x="295" y="10" clip-path="url(#clipPath9)" fill="none" width="98" height="49" stroke="black" />
    </g>
    <g stroke-width="0.1" font-size="13" font-family="'Lucida Sans Unicode'" stroke-linecap="butt">
      <text xml:space="preserve" x="316" y="34" clip-path="url(#clipPath10)" stroke="none">theClock</text>
      <text xml:space="preserve" x="302" y="50" clip-path="url(#clipPath10)" stroke="none">: actActivator</text>
      <line clip-path="url(#clipPath11)" fill="none" x1="343" x2="343" y1="60" y2="1075" stroke-dasharray="10,10" stroke-width="1.1" />
    </g>
    <g stroke-linecap="butt" font-size="23" fill="rgb(39,76,114)" font-family="'Lucida Sans'" stroke-dasharray="10,10" stroke="rgb(39,76,114)" stroke-width="1.1">
      <rect x="334" y="150" clip-path="url(#clipPath12)" width="20" height="40" stroke="none" />
      <rect x="334" y="150" clip-path="url(#clipPath12)" fill="none" width="19" stroke-dasharray="none" height="39" stroke-width="0.1" />
    </g>
    <g stroke-width="0.1" font-size="13" font-family="'Lucida Sans Unicode'" stroke-linecap="butt">
      <text xml:space="preserve" x="355" y="165" clip-path="url(#clipPath13)" stroke="none">out02</text>
    </g>
    <g stroke-linecap="butt" font-size="23" fill="rgb(39,76,114)" font-family="'Lucida Sans'" stroke="rgb(39,76,114)" stroke-width="0.1">
      <rect x="334" y="570" clip-path="url(#clipPath14)" width="20" height="40" stroke="none" />
      <rect x="334" y="570" clip-path="url(#clipPath14)" fill="none" width="19" height="39" />
    </g>
    <g stroke-width="0.1" font-size="13" font-family="'Lucida Sans Unicode'" stroke-linecap="butt">
      <text xml:space="preserve" x="355" y="585" clip-path="url(#clipPath15)" stroke="none">out06</text>
    </g>
    <g stroke-linecap="butt" font-size="23" fill="rgb(39,76,114)" font-family="'Lucida Sans'" stroke="rgb(39,76,114)" stroke-width="0.1">
      <rect x="334" y="790" clip-path="url(#clipPath16)" width="20" height="40" stroke="none" />
      <rect x="334" y="790" clip-path="url(#clipPath16)" fill="none" width="19" height="39" />
    </g>
    <g stroke-width="0.1" font-size="13" font-family="'Lucida Sans Unicode'" stroke-linecap="butt">
      <text xml:space="preserve" x="355" y="805" clip-path="url(#clipPath17)" stroke="none">out08</text>
    </g>
    <g stroke-linecap="butt" font-size="23" fill="rgb(39,76,114)" font-family="'Lucida Sans'" stroke="rgb(39,76,114)" stroke-width="0.1">
      <rect x="334" y="850" clip-path="url(#clipPath18)" width="20" height="40" stroke="none" />
      <rect x="334" y="850" clip-path="url(#clipPath18)" fill="none" width="19" height="39" />
    </g>
    <g stroke-width="0.1" font-size="13" font-family="'Lucida Sans Unicode'" stroke-linecap="butt">
      <text xml:space="preserve" x="355" y="865" clip-path="url(#clipPath19)" stroke="none">out09</text>
    </g>
    <g stroke-linecap="butt" font-size="23" fill="rgb(255,245,181)" font-family="'Lucida Sans'" stroke="rgb(255,245,181)" stroke-width="0.1">
      <rect x="404" y="10" clip-path="url(#clipPath20)" width="129" height="50" stroke="none" />
      <rect x="404" y="10" clip-path="url(#clipPath20)" fill="none" width="128" height="49" stroke="black" />
    </g>
    <g stroke-width="0.1" font-size="13" font-family="'Lucida Sans Unicode'" stroke-linecap="butt">
      <text xml:space="preserve" x="458" y="34" clip-path="url(#clipPath21)" stroke="none">bill</text>
      <text xml:space="preserve" x="411" y="50" clip-path="url(#clipPath22)" stroke="none">: actAdministrator</text>
      <line clip-path="url(#clipPath23)" fill="none" x1="467" x2="467" y1="60" y2="1075" stroke-dasharray="10,10" stroke-width="1.1" />
    </g>
    <g stroke-linecap="butt" font-size="23" fill="rgb(39,76,114)" font-family="'Lucida Sans'" stroke-dasharray="10,10" stroke="rgb(39,76,114)" stroke-width="1.1">
      <rect x="458" y="210" clip-path="url(#clipPath24)" width="20" height="40" stroke="none" />
      <rect x="458" y="210" clip-path="url(#clipPath24)" fill="none" width="19" stroke-dasharray="none" height="39" stroke-width="0.1" />
    </g>
    <g stroke-width="0.1" font-size="13" font-family="'Lucida Sans Unicode'" stroke-linecap="butt">
      <text xml:space="preserve" x="479" y="225" clip-path="url(#clipPath25)" stroke="none">out03</text>
    </g>
    <g stroke-linecap="butt" font-size="23" fill="rgb(39,76,114)" font-family="'Lucida Sans'" stroke="rgb(39,76,114)" stroke-width="0.1">
      <rect x="458" y="330" clip-path="url(#clipPath26)" width="20" height="40" stroke="none" />
      <rect x="458" y="330" clip-path="url(#clipPath26)" fill="none" width="19" height="39" />
    </g>
    <g stroke-width="0.1" font-size="13" font-family="'Lucida Sans Unicode'" stroke-linecap="butt">
      <text xml:space="preserve" x="479" y="345" clip-path="url(#clipPath27)" stroke="none">out04</text>
    </g>
    <g stroke-linecap="butt" font-size="23" fill="rgb(39,76,114)" font-family="'Lucida Sans'" stroke="rgb(39,76,114)" stroke-width="0.1">
      <rect x="458" y="450" clip-path="url(#clipPath28)" width="20" height="40" stroke="none" />
      <rect x="458" y="450" clip-path="url(#clipPath28)" fill="none" width="19" height="39" />
    </g>
    <g stroke-width="0.1" font-size="13" font-family="'Lucida Sans Unicode'" stroke-linecap="butt">
      <text xml:space="preserve" x="479" y="465" clip-path="url(#clipPath29)" stroke="none">out05</text>
    </g>
    <g stroke-linecap="butt" font-size="23" fill="rgb(194,239,255)" font-family="'Lucida Sans'" stroke="rgb(194,239,255)" stroke-width="0.1">
      <rect x="458" y="259" clip-path="url(#clipPath30)" width="20" height="40" stroke="none" />
      <rect x="458" y="259" clip-path="url(#clipPath30)" fill="none" width="19" height="39" />
    </g>
    <g stroke-width="0.1" font-size="13" font-family="'Lucida Sans Unicode'" stroke-linecap="butt">
      <text xml:space="preserve" x="479" y="274" clip-path="url(#clipPath31)" stroke="none">in01</text>
    </g>
    <g stroke-linecap="butt" font-size="23" fill="rgb(194,239,255)" font-family="'Lucida Sans'" stroke="rgb(194,239,255)" stroke-width="0.1">
      <rect x="458" y="382" clip-path="url(#clipPath32)" width="20" height="40" stroke="none" />
      <rect x="458" y="382" clip-path="url(#clipPath32)" fill="none" width="19" height="39" />
    </g>
    <g stroke-width="0.1" font-size="13" font-family="'Lucida Sans Unicode'" stroke-linecap="butt">
      <text xml:space="preserve" x="479" y="397" clip-path="url(#clipPath33)" stroke="none">in02</text>
    </g>
    <g stroke-linecap="butt" font-size="23" fill="rgb(194,239,255)" font-family="'Lucida Sans'" stroke="rgb(194,239,255)" stroke-width="0.1">
      <rect x="458" y="500" clip-path="url(#clipPath34)" width="20" height="40" stroke="none" />
      <rect x="458" y="500" clip-path="url(#clipPath34)" fill="none" width="19" height="39" />
    </g>
    <g stroke-width="0.1" font-size="13" font-family="'Lucida Sans Unicode'" stroke-linecap="butt">
      <text xml:space="preserve" x="479" y="515" clip-path="url(#clipPath35)" stroke="none">in03</text>
    </g>
    <g stroke-linecap="butt" font-size="23" fill="rgb(194,239,255)" font-family="'Lucida Sans'" stroke="rgb(194,239,255)" stroke-width="0.1">
      <rect x="458" y="916" clip-path="url(#clipPath36)" width="20" height="40" stroke="none" />
      <rect x="458" y="916" clip-path="url(#clipPath36)" fill="none" width="19" height="39" />
    </g>
    <g stroke-width="0.1" font-size="13" font-family="'Lucida Sans Unicode'" stroke-linecap="butt">
      <text xml:space="preserve" x="479" y="931" clip-path="url(#clipPath37)" stroke="none">in05</text>
    </g>
    <g stroke-linecap="butt" font-size="23" fill="rgb(255,245,181)" font-family="'Lucida Sans'" stroke="rgb(255,245,181)" stroke-width="0.1">
      <rect x="543" y="10" clip-path="url(#clipPath38)" width="134" height="50" stroke="none" />
      <rect x="543" y="10" clip-path="url(#clipPath38)" fill="none" width="133" height="49" stroke="black" />
    </g>
    <g stroke-width="0.1" font-size="13" font-family="'Lucida Sans Unicode'" stroke-linecap="butt">
      <text xml:space="preserve" x="591" y="34" clip-path="url(#clipPath39)" stroke="none">tango</text>
      <text xml:space="preserve" x="552" y="50" clip-path="url(#clipPath39)" stroke="none">: actComCompany</text>
      <line clip-path="url(#clipPath40)" fill="none" x1="609" x2="609" y1="60" y2="1075" stroke-dasharray="10,10" stroke-width="1.1" />
    </g>
    <g stroke-linecap="butt" font-size="23" fill="rgb(39,76,114)" font-family="'Lucida Sans'" stroke-dasharray="10,10" stroke="rgb(39,76,114)" stroke-width="1.1">
      <rect x="600" y="665" clip-path="url(#clipPath41)" width="20" height="40" stroke="none" />
      <rect x="600" y="665" clip-path="url(#clipPath41)" fill="none" width="19" stroke-dasharray="none" height="39" stroke-width="0.1" />
    </g>
    <g stroke-width="0.1" font-size="13" font-family="'Lucida Sans Unicode'" stroke-linecap="butt">
      <text xml:space="preserve" x="621" y="680" clip-path="url(#clipPath42)" stroke="none">out07</text>
    </g>
    <g stroke-linecap="butt" font-size="23" fill="rgb(194,239,255)" font-family="'Lucida Sans'" stroke="rgb(194,239,255)" stroke-width="0.1">
      <rect x="600" y="730" clip-path="url(#clipPath43)" width="20" height="40" stroke="none" />
      <rect x="600" y="730" clip-path="url(#clipPath43)" fill="none" width="19" height="39" />
    </g>
    <g stroke-width="0.1" font-size="13" font-family="'Lucida Sans Unicode'" stroke-linecap="butt">
      <text xml:space="preserve" x="621" y="745" clip-path="url(#clipPath44)" stroke="none">in04</text>
    </g>
    <g stroke-linecap="butt" font-size="23" fill="rgb(255,245,181)" font-family="'Lucida Sans'" stroke="rgb(255,245,181)" stroke-width="0.1">
      <rect x="687" y="10" clip-path="url(#clipPath45)" width="128" height="50" stroke="none" />
      <rect x="687" y="10" clip-path="url(#clipPath45)" fill="none" width="127" height="49" stroke="black" />
    </g>
    <g stroke-width="0.1" font-size="13" font-family="'Lucida Sans Unicode'" stroke-linecap="butt">
      <text xml:space="preserve" x="734" y="34" clip-path="url(#clipPath46)" stroke="none">steve</text>
      <text xml:space="preserve" x="700" y="50" clip-path="url(#clipPath46)" stroke="none">: actCoordinator</text>
      <line clip-path="url(#clipPath47)" fill="none" x1="750" x2="750" y1="60" y2="1075" stroke-dasharray="10,10" stroke-width="1.1" />
    </g>
    <g stroke-linecap="butt" font-size="23" fill="rgb(194,239,255)" font-family="'Lucida Sans'" stroke-dasharray="10,10" stroke="rgb(194,239,255)" stroke-width="1.1">
      <rect x="741" y="985" clip-path="url(#clipPath48)" width="20" height="40" stroke="none" />
      <rect x="741" y="985" clip-path="url(#clipPath48)" fill="none" width="19" stroke-dasharray="none" height="39" stroke-width="0.1" />
    </g>
    <g stroke-width="0.1" font-size="13" font-family="'Lucida Sans Unicode'" stroke-linecap="butt">
      <text xml:space="preserve" x="762" y="1000" clip-path="url(#clipPath49)" stroke="none">in06</text>
      <line clip-path="url(#clipPath50)" fill="none" x1="217" x2="45" y1="90" y2="90" stroke="rgb(136,136,136)" stroke-width="2.1" />
      <text x="63" y="83" clip-path="url(#clipPath51)" stroke="none" stroke-width="2.1" xml:space="preserve">oeCreateSystemAndEnvironment("4")</text>
      <line clip-path="url(#clipPath52)" fill="none" x1="52" x2="45" y1="87" y2="90" stroke="rgb(136,136,136)" stroke-width="2.1" />
      <line clip-path="url(#clipPath52)" fill="none" x1="45" x2="52" y1="90" y2="93" stroke="rgb(136,136,136)" stroke-width="2.1" />
      <line clip-path="url(#clipPath50)" fill="none" x1="334" x2="45" y1="150" y2="150" stroke="rgb(136,136,136)" stroke-width="2.1" />
      <text x="62" y="144" clip-path="url(#clipPath53)" stroke="none" stroke-width="2.1" xml:space="preserve">oeSetClock("2017:11:24 - 03:20:00")</text>
      <line clip-path="url(#clipPath54)" fill="none" x1="52" x2="45" y1="147" y2="150" stroke="rgb(136,136,136)" stroke-width="2.1" />
      <line clip-path="url(#clipPath54)" fill="none" x1="45" x2="52" y1="150" y2="153" stroke="rgb(136,136,136)" stroke-width="2.1" />
      <line clip-path="url(#clipPath50)" fill="none" x1="458" x2="45" y1="210" y2="210" stroke="rgb(136,136,136)" stroke-width="2.1" />
      <text x="58" y="201" clip-path="url(#clipPath55)" stroke="none" stroke-width="2.1" xml:space="preserve">oeLogin("icrashadmin","7WXC1359")</text>
      <line clip-path="url(#clipPath56)" fill="none" x1="52" x2="45" y1="207" y2="210" stroke="rgb(136,136,136)" stroke-width="2.1" />
      <line clip-path="url(#clipPath56)" fill="none" x1="45" x2="52" y1="210" y2="213" stroke="rgb(136,136,136)" stroke-width="2.1" />
      <line clip-path="url(#clipPath50)" fill="none" x1="458" x2="45" y1="330" y2="330" stroke="rgb(136,136,136)" stroke-width="2.1" />
      <text x="68" y="320" clip-path="url(#clipPath57)" stroke="none" stroke-width="2.1" xml:space="preserve">oeAddCoordinator("1","steve","pwdMessirExcalibur2017")</text>
      <line clip-path="url(#clipPath58)" fill="none" x1="52" x2="45" y1="327" y2="330" stroke="rgb(136,136,136)" stroke-width="2.1" />
      <line clip-path="url(#clipPath58)" fill="none" x1="45" x2="52" y1="330" y2="333" stroke="rgb(136,136,136)" stroke-width="2.1" />
      <line clip-path="url(#clipPath50)" fill="none" x1="458" x2="45" y1="450" y2="450" stroke="rgb(136,136,136)" stroke-width="2.1" />
      <text x="54" y="441" clip-path="url(#clipPath59)" stroke="none" stroke-width="2.1" xml:space="preserve">oeLogout()</text>
      <line clip-path="url(#clipPath60)" fill="none" x1="52" x2="45" y1="447" y2="450" stroke="rgb(136,136,136)" stroke-width="2.1" />
      <line clip-path="url(#clipPath60)" fill="none" x1="45" x2="52" y1="450" y2="453" stroke="rgb(136,136,136)" stroke-width="2.1" />
      <line clip-path="url(#clipPath50)" fill="none" x1="334" x2="45" y1="570" y2="570" stroke="rgb(136,136,136)" stroke-width="2.1" />
      <text x="63" y="563" clip-path="url(#clipPath61)" stroke="none" stroke-width="2.1" xml:space="preserve">oeSetClock("2017:11:26 - 10:15:00")</text>
      <line clip-path="url(#clipPath62)" fill="none" x1="52" x2="45" y1="567" y2="570" stroke="rgb(136,136,136)" stroke-width="2.1" />
      <line clip-path="url(#clipPath62)" fill="none" x1="45" x2="52" y1="570" y2="573" stroke="rgb(136,136,136)" stroke-width="2.1" />
      <line clip-path="url(#clipPath50)" fill="none" x1="600" x2="45" y1="665" y2="665" stroke="rgb(136,136,136)" stroke-width="2.1" />
      <text x="48" y="642" clip-path="url(#clipPath63)" stroke="none" stroke-width="2.1" xml:space="preserve">oeAlert("witness","2017:11:26","10:10:16","+3524666445252","49.627675:</text>
      <text x="147" y="658" clip-path="url(#clipPath63)" stroke="none" stroke-width="2.1" xml:space="preserve">6.159590","3 cars involved in an accident.")</text>
      <line clip-path="url(#clipPath64)" fill="none" x1="52" x2="45" y1="662" y2="665" stroke="rgb(136,136,136)" stroke-width="2.1" />
      <line clip-path="url(#clipPath64)" fill="none" x1="45" x2="52" y1="665" y2="668" stroke="rgb(136,136,136)" stroke-width="2.1" />
      <line clip-path="url(#clipPath50)" fill="none" x1="334" x2="45" y1="790" y2="790" stroke="rgb(136,136,136)" stroke-width="2.1" />
      <text x="60" y="778" clip-path="url(#clipPath65)" stroke="none" stroke-width="2.1" xml:space="preserve">oeSetClock("2017:11:26 - 10:30:00")</text>
      <line clip-path="url(#clipPath66)" fill="none" x1="52" x2="45" y1="787" y2="790" stroke="rgb(136,136,136)" stroke-width="2.1" />
      <line clip-path="url(#clipPath66)" fill="none" x1="45" x2="52" y1="790" y2="793" stroke="rgb(136,136,136)" stroke-width="2.1" />
      <line clip-path="url(#clipPath50)" fill="none" x1="334" x2="45" y1="850" y2="850" stroke="rgb(136,136,136)" stroke-width="2.1" />
      <text x="56" y="840" clip-path="url(#clipPath67)" stroke="none" stroke-width="2.1" xml:space="preserve">oeSollicitateCrisisHandling()</text>
      <line clip-path="url(#clipPath68)" fill="none" x1="52" x2="45" y1="847" y2="850" stroke="rgb(136,136,136)" stroke-width="2.1" />
      <line clip-path="url(#clipPath68)" fill="none" x1="45" x2="52" y1="850" y2="853" stroke="rgb(136,136,136)" stroke-width="2.1" />
    </g>
    <g stroke-linecap="butt" font-size="13" fill="rgb(136,136,136)" font-family="'Lucida Sans Unicode'" stroke-dasharray="5,5" stroke="rgb(136,136,136)" stroke-width="2.1">
      <line clip-path="url(#clipPath50)" fill="none" x1="458" x2="45" y1="259" y2="259" />
      <text x="64" y="251" clip-path="url(#clipPath69)" fill="black" stroke="none" xml:space="preserve">ieMessage(You are logged ! Welcome ...)</text>
      <line clip-path="url(#clipPath70)" fill="none" x1="451" x2="458" y1="262" y2="259" stroke-dasharray="none" />
      <line clip-path="url(#clipPath70)" fill="none" x1="458" x2="451" y1="259" y2="256" stroke-dasharray="none" />
      <line clip-path="url(#clipPath50)" fill="none" x1="458" x2="45" y1="382" y2="382" />
      <text x="62" y="375" clip-path="url(#clipPath71)" fill="black" stroke="none" xml:space="preserve">ieCoordinatorAddedreturned()</text>
      <line clip-path="url(#clipPath72)" fill="none" x1="451" x2="458" y1="385" y2="382" stroke-dasharray="none" />
      <line clip-path="url(#clipPath72)" fill="none" x1="458" x2="451" y1="382" y2="379" stroke-dasharray="none" />
      <line clip-path="url(#clipPath50)" fill="none" x1="458" x2="45" y1="500" y2="500" />
      <text x="64" y="493" clip-path="url(#clipPath73)" fill="black" stroke="none" xml:space="preserve">ieMessage(You are logged out ! Good Bye ...)</text>
      <line clip-path="url(#clipPath74)" fill="none" x1="451" x2="458" y1="503" y2="500" stroke-dasharray="none" />
      <line clip-path="url(#clipPath74)" fill="none" x1="458" x2="451" y1="500" y2="497" stroke-dasharray="none" />
      <line clip-path="url(#clipPath50)" fill="none" x1="600" x2="45" y1="730" y2="730" />
      <text x="79" y="724" clip-path="url(#clipPath75)" fill="black" stroke="none" xml:space="preserve">ieSmsSend(+3524666445252,Your alert has been registered. We will handle it and keep you informed)</text>
      <line clip-path="url(#clipPath76)" fill="none" x1="593" x2="600" y1="733" y2="730" stroke-dasharray="none" />
      <line clip-path="url(#clipPath76)" fill="none" x1="600" x2="593" y1="730" y2="727" stroke-dasharray="none" />
      <line clip-path="url(#clipPath50)" fill="none" x1="458" x2="45" y1="916" y2="916" />
      <text x="83" y="910" clip-path="url(#clipPath77)" fill="black" stroke="none" xml:space="preserve">ieMessage(There are alerts pending since more than the defined delay. Please REACT !)</text>
      <line clip-path="url(#clipPath78)" fill="none" x1="451" x2="458" y1="919" y2="916" stroke-dasharray="none" />
      <line clip-path="url(#clipPath78)" fill="none" x1="458" x2="451" y1="916" y2="913" stroke-dasharray="none" />
      <line clip-path="url(#clipPath50)" fill="none" x1="741" x2="45" y1="985" y2="985" />
      <text x="79" y="978" clip-path="url(#clipPath79)" fill="black" stroke="none" xml:space="preserve">ieMessage(There are alerts pending since more than the defined delay. Please REACT !)</text>
      <line clip-path="url(#clipPath80)" fill="none" x1="734" x2="741" y1="988" y2="985" stroke-dasharray="none" />
      <line clip-path="url(#clipPath80)" fill="none" x1="741" x2="734" y1="985" y2="982" stroke-dasharray="none" />
    </g>
  </g>
</svg>

