<?xml version="1.0" encoding="UTF-8"?>
<svg xmlns="http://www.w3.org/2000/svg" xmlns:xlink="http://www.w3.org/1999/xlink" stroke-dasharray="none" shape-rendering="auto" font-family="'Dialog'" width="783" text-rendering="auto" fill-opacity="1" contentScriptType="text/ecmascript" color-interpolation="auto" color-rendering="auto" preserveAspectRatio="xMidYMid meet" font-size="12" viewBox="0 0 783 1270" fill="black" stroke="black" image-rendering="auto" stroke-miterlimit="10" zoomAndPan="magnify" version="1.0" stroke-linecap="square" stroke-linejoin="miter" contentStyleType="text/css" font-style="normal" height="1270" stroke-width="1" stroke-dashoffset="0" font-weight="normal" stroke-opacity="1">
  <!--Generated by the Batik Graphics2D SVG Generator-->
  <defs id="genericDefs" />
  <g>
    <defs id="defs1">
      <clipPath clipPathUnits="userSpaceOnUse" id="clipPath1">
        <path d="M9 9 L81 9 L81 41 L9 41 L9 9 Z" />
      </clipPath>
      <clipPath clipPathUnits="userSpaceOnUse" id="clipPath2">
        <path d="M9 9 L84 9 L84 41 L9 41 L9 9 Z" />
      </clipPath>
      <clipPath clipPathUnits="userSpaceOnUse" id="clipPath3">
        <path d="M39 39 L51 39 L51 1261 L39 1261 L39 39 Z" />
      </clipPath>
      <clipPath clipPathUnits="userSpaceOnUse" id="clipPath4">
        <path d="M109 9 L231 9 L231 61 L109 61 L109 9 Z" />
      </clipPath>
      <clipPath clipPathUnits="userSpaceOnUse" id="clipPath5">
        <path d="M109 9 L234 9 L234 61 L109 61 L109 9 Z" />
      </clipPath>
      <clipPath clipPathUnits="userSpaceOnUse" id="clipPath6">
        <path d="M164 59 L176 59 L176 1261 L164 1261 L164 59 Z" />
      </clipPath>
      <clipPath clipPathUnits="userSpaceOnUse" id="clipPath7">
        <path d="M239 9 L360 9 L360 61 L239 61 L239 9 Z" />
      </clipPath>
      <clipPath clipPathUnits="userSpaceOnUse" id="clipPath8">
        <path d="M239 9 L363 9 L363 61 L239 61 L239 9 Z" />
      </clipPath>
      <clipPath clipPathUnits="userSpaceOnUse" id="clipPath9">
        <path d="M293 59 L305 59 L305 1261 L293 1261 L293 59 Z" />
      </clipPath>
      <clipPath clipPathUnits="userSpaceOnUse" id="clipPath10">
        <path d="M288 509 L310 509 L310 551 L288 551 L288 509 Z" />
      </clipPath>
      <clipPath clipPathUnits="userSpaceOnUse" id="clipPath11">
        <path d="M309 509 L351 509 L351 527 L309 527 L309 509 Z" />
      </clipPath>
      <clipPath clipPathUnits="userSpaceOnUse" id="clipPath12">
        <path d="M288 809 L310 809 L310 851 L288 851 L288 809 Z" />
      </clipPath>
      <clipPath clipPathUnits="userSpaceOnUse" id="clipPath13">
        <path d="M309 809 L351 809 L351 827 L309 827 L309 809 Z" />
      </clipPath>
      <clipPath clipPathUnits="userSpaceOnUse" id="clipPath14">
        <path d="M368 9 L500 9 L500 61 L368 61 L368 9 Z" />
      </clipPath>
      <clipPath clipPathUnits="userSpaceOnUse" id="clipPath15">
        <path d="M368 9 L502 9 L502 61 L368 61 L368 9 Z" />
      </clipPath>
      <clipPath clipPathUnits="userSpaceOnUse" id="clipPath16">
        <path d="M368 9 L503 9 L503 61 L368 61 L368 9 Z" />
      </clipPath>
      <clipPath clipPathUnits="userSpaceOnUse" id="clipPath17">
        <path d="M428 59 L440 59 L440 1261 L428 1261 L428 59 Z" />
      </clipPath>
      <clipPath clipPathUnits="userSpaceOnUse" id="clipPath18">
        <path d="M508 9 L642 9 L642 61 L508 61 L508 9 Z" />
      </clipPath>
      <clipPath clipPathUnits="userSpaceOnUse" id="clipPath19">
        <path d="M508 9 L645 9 L645 61 L508 61 L508 9 Z" />
      </clipPath>
      <clipPath clipPathUnits="userSpaceOnUse" id="clipPath20">
        <path d="M569 59 L581 59 L581 1261 L569 1261 L569 59 Z" />
      </clipPath>
      <clipPath clipPathUnits="userSpaceOnUse" id="clipPath21">
        <path d="M564 689 L586 689 L586 731 L564 731 L564 689 Z" />
      </clipPath>
      <clipPath clipPathUnits="userSpaceOnUse" id="clipPath22">
        <path d="M585 689 L627 689 L627 707 L585 707 L585 689 Z" />
      </clipPath>
      <clipPath clipPathUnits="userSpaceOnUse" id="clipPath23">
        <path d="M564 389 L586 389 L586 431 L564 431 L564 389 Z" />
      </clipPath>
      <clipPath clipPathUnits="userSpaceOnUse" id="clipPath24">
        <path d="M585 389 L618 389 L618 407 L585 407 L585 389 Z" />
      </clipPath>
      <clipPath clipPathUnits="userSpaceOnUse" id="clipPath25">
        <path d="M564 749 L586 749 L586 791 L564 791 L564 749 Z" />
      </clipPath>
      <clipPath clipPathUnits="userSpaceOnUse" id="clipPath26">
        <path d="M585 749 L618 749 L618 767 L585 767 L585 749 Z" />
      </clipPath>
      <clipPath clipPathUnits="userSpaceOnUse" id="clipPath27">
        <path d="M650 9 L774 9 L774 61 L650 61 L650 9 Z" />
      </clipPath>
      <clipPath clipPathUnits="userSpaceOnUse" id="clipPath28">
        <path d="M650 9 L777 9 L777 61 L650 61 L650 9 Z" />
      </clipPath>
      <clipPath clipPathUnits="userSpaceOnUse" id="clipPath29">
        <path d="M706 59 L718 59 L718 1261 L706 1261 L706 59 Z" />
      </clipPath>
      <clipPath clipPathUnits="userSpaceOnUse" id="clipPath30">
        <path d="M701 98 L723 98 L723 140 L701 140 L701 98 Z" />
      </clipPath>
      <clipPath clipPathUnits="userSpaceOnUse" id="clipPath31">
        <path d="M722 98 L764 98 L764 116 L722 116 L722 98 Z" />
      </clipPath>
      <clipPath clipPathUnits="userSpaceOnUse" id="clipPath32">
        <path d="M701 209 L723 209 L723 251 L701 251 L701 209 Z" />
      </clipPath>
      <clipPath clipPathUnits="userSpaceOnUse" id="clipPath33">
        <path d="M722 209 L764 209 L764 227 L722 227 L722 209 Z" />
      </clipPath>
      <clipPath clipPathUnits="userSpaceOnUse" id="clipPath34">
        <path d="M701 329 L723 329 L723 371 L701 371 L701 329 Z" />
      </clipPath>
      <clipPath clipPathUnits="userSpaceOnUse" id="clipPath35">
        <path d="M722 329 L764 329 L764 347 L722 347 L722 329 Z" />
      </clipPath>
      <clipPath clipPathUnits="userSpaceOnUse" id="clipPath36">
        <path d="M701 569 L723 569 L723 611 L701 611 L701 569 Z" />
      </clipPath>
      <clipPath clipPathUnits="userSpaceOnUse" id="clipPath37">
        <path d="M722 569 L764 569 L764 587 L722 587 L722 569 Z" />
      </clipPath>
      <clipPath clipPathUnits="userSpaceOnUse" id="clipPath38">
        <path d="M701 869 L723 869 L723 911 L701 911 L701 869 Z" />
      </clipPath>
      <clipPath clipPathUnits="userSpaceOnUse" id="clipPath39">
        <path d="M722 869 L764 869 L764 887 L722 887 L722 869 Z" />
      </clipPath>
      <clipPath clipPathUnits="userSpaceOnUse" id="clipPath40">
        <path d="M701 989 L723 989 L723 1031 L701 1031 L701 989 Z" />
      </clipPath>
      <clipPath clipPathUnits="userSpaceOnUse" id="clipPath41">
        <path d="M722 989 L764 989 L764 1007 L722 1007 L722 989 Z" />
      </clipPath>
      <clipPath clipPathUnits="userSpaceOnUse" id="clipPath42">
        <path d="M701 1109 L723 1109 L723 1151 L701 1151 L701 1109 Z" />
      </clipPath>
      <clipPath clipPathUnits="userSpaceOnUse" id="clipPath43">
        <path d="M722 1109 L764 1109 L764 1127 L722 1127 L722 1109 Z" />
      </clipPath>
      <clipPath clipPathUnits="userSpaceOnUse" id="clipPath44">
        <path d="M701 149 L723 149 L723 191 L701 191 L701 149 Z" />
      </clipPath>
      <clipPath clipPathUnits="userSpaceOnUse" id="clipPath45">
        <path d="M722 149 L755 149 L755 167 L722 167 L722 149 Z" />
      </clipPath>
      <clipPath clipPathUnits="userSpaceOnUse" id="clipPath46">
        <path d="M701 262 L723 262 L723 304 L701 304 L701 262 Z" />
      </clipPath>
      <clipPath clipPathUnits="userSpaceOnUse" id="clipPath47">
        <path d="M722 262 L755 262 L755 280 L722 280 L722 262 Z" />
      </clipPath>
      <clipPath clipPathUnits="userSpaceOnUse" id="clipPath48">
        <path d="M701 449 L723 449 L723 491 L701 491 L701 449 Z" />
      </clipPath>
      <clipPath clipPathUnits="userSpaceOnUse" id="clipPath49">
        <path d="M722 449 L755 449 L755 467 L722 467 L722 449 Z" />
      </clipPath>
      <clipPath clipPathUnits="userSpaceOnUse" id="clipPath50">
        <path d="M701 629 L723 629 L723 671 L701 671 L701 629 Z" />
      </clipPath>
      <clipPath clipPathUnits="userSpaceOnUse" id="clipPath51">
        <path d="M722 629 L755 629 L755 647 L722 647 L722 629 Z" />
      </clipPath>
      <clipPath clipPathUnits="userSpaceOnUse" id="clipPath52">
        <path d="M701 929 L723 929 L723 971 L701 971 L701 929 Z" />
      </clipPath>
      <clipPath clipPathUnits="userSpaceOnUse" id="clipPath53">
        <path d="M722 929 L755 929 L755 947 L722 947 L722 929 Z" />
      </clipPath>
      <clipPath clipPathUnits="userSpaceOnUse" id="clipPath54">
        <path d="M701 1049 L723 1049 L723 1091 L701 1091 L701 1049 Z" />
      </clipPath>
      <clipPath clipPathUnits="userSpaceOnUse" id="clipPath55">
        <path d="M722 1049 L755 1049 L755 1067 L722 1067 L722 1049 Z" />
      </clipPath>
      <clipPath clipPathUnits="userSpaceOnUse" id="clipPath56">
        <path d="M701 1169 L723 1169 L723 1211 L701 1211 L701 1169 Z" />
      </clipPath>
      <clipPath clipPathUnits="userSpaceOnUse" id="clipPath57">
        <path d="M722 1169 L755 1169 L755 1187 L722 1187 L722 1169 Z" />
      </clipPath>
      <clipPath clipPathUnits="userSpaceOnUse" id="clipPath58">
        <path d="M-1 -1 L784 -1 L784 1271 L-1 1271 L-1 -1 Z" />
      </clipPath>
      <clipPath clipPathUnits="userSpaceOnUse" id="clipPath59">
        <path d="M59 74 L336 74 L336 92 L59 92 L59 74 Z" />
      </clipPath>
      <clipPath clipPathUnits="userSpaceOnUse" id="clipPath60">
        <path d="M43 93 L55 93 L55 104 L43 104 L43 93 Z" />
      </clipPath>
      <clipPath clipPathUnits="userSpaceOnUse" id="clipPath61">
        <path d="M56 185 L221 185 L221 203 L56 203 L56 185 Z" />
      </clipPath>
      <clipPath clipPathUnits="userSpaceOnUse" id="clipPath62">
        <path d="M43 204 L55 204 L55 215 L43 215 L43 204 Z" />
      </clipPath>
      <clipPath clipPathUnits="userSpaceOnUse" id="clipPath63">
        <path d="M56 304 L206 304 L206 322 L56 322 L56 304 Z" />
      </clipPath>
      <clipPath clipPathUnits="userSpaceOnUse" id="clipPath64">
        <path d="M43 324 L55 324 L55 335 L43 335 L43 324 Z" />
      </clipPath>
      <clipPath clipPathUnits="userSpaceOnUse" id="clipPath65">
        <path d="M64 486 L301 486 L301 504 L64 504 L64 486 Z" />
      </clipPath>
      <clipPath clipPathUnits="userSpaceOnUse" id="clipPath66">
        <path d="M43 504 L55 504 L55 515 L43 515 L43 504 Z" />
      </clipPath>
      <clipPath clipPathUnits="userSpaceOnUse" id="clipPath67">
        <path d="M54 545 L181 545 L181 563 L54 563 L54 545 Z" />
      </clipPath>
      <clipPath clipPathUnits="userSpaceOnUse" id="clipPath68">
        <path d="M43 564 L55 564 L55 575 L43 575 L43 564 Z" />
      </clipPath>
      <clipPath clipPathUnits="userSpaceOnUse" id="clipPath69">
        <path d="M49 635 L553 635 L553 693 L49 693 L49 635 Z" />
      </clipPath>
      <clipPath clipPathUnits="userSpaceOnUse" id="clipPath70">
        <path d="M43 684 L55 684 L55 695 L43 695 L43 684 Z" />
      </clipPath>
      <clipPath clipPathUnits="userSpaceOnUse" id="clipPath71">
        <path d="M65 785 L302 785 L302 803 L65 803 L65 785 Z" />
      </clipPath>
      <clipPath clipPathUnits="userSpaceOnUse" id="clipPath72">
        <path d="M43 804 L55 804 L55 815 L43 815 L43 804 Z" />
      </clipPath>
      <clipPath clipPathUnits="userSpaceOnUse" id="clipPath73">
        <path d="M57 845 L252 845 L252 863 L57 863 L57 845 Z" />
      </clipPath>
      <clipPath clipPathUnits="userSpaceOnUse" id="clipPath74">
        <path d="M43 864 L55 864 L55 875 L43 875 L43 864 Z" />
      </clipPath>
      <clipPath clipPathUnits="userSpaceOnUse" id="clipPath75">
        <path d="M71 970 L679 970 L679 988 L71 988 L71 970 Z" />
      </clipPath>
      <clipPath clipPathUnits="userSpaceOnUse" id="clipPath76">
        <path d="M43 984 L55 984 L55 995 L43 995 L43 984 Z" />
      </clipPath>
      <clipPath clipPathUnits="userSpaceOnUse" id="clipPath77">
        <path d="M53 1085 L170 1085 L170 1103 L53 1103 L53 1085 Z" />
      </clipPath>
      <clipPath clipPathUnits="userSpaceOnUse" id="clipPath78">
        <path d="M43 1104 L55 1104 L55 1115 L43 1115 L43 1104 Z" />
      </clipPath>
      <clipPath clipPathUnits="userSpaceOnUse" id="clipPath79">
        <path d="M59 126 L315 126 L315 144 L59 144 L59 126 Z" />
      </clipPath>
      <clipPath clipPathUnits="userSpaceOnUse" id="clipPath80">
        <path d="M693 144 L705 144 L705 155 L693 155 L693 144 Z" />
      </clipPath>
      <clipPath clipPathUnits="userSpaceOnUse" id="clipPath81">
        <path d="M58 240 L298 240 L298 258 L58 258 L58 240 Z" />
      </clipPath>
      <clipPath clipPathUnits="userSpaceOnUse" id="clipPath82">
        <path d="M693 257 L705 257 L705 268 L693 268 L693 257 Z" />
      </clipPath>
      <clipPath clipPathUnits="userSpaceOnUse" id="clipPath83">
        <path d="M78 366 L636 366 L636 384 L78 384 L78 366 Z" />
      </clipPath>
      <clipPath clipPathUnits="userSpaceOnUse" id="clipPath84">
        <path d="M556 384 L568 384 L568 395 L556 395 L556 384 Z" />
      </clipPath>
      <clipPath clipPathUnits="userSpaceOnUse" id="clipPath85">
        <path d="M64 424 L439 424 L439 442 L64 442 L64 424 Z" />
      </clipPath>
      <clipPath clipPathUnits="userSpaceOnUse" id="clipPath86">
        <path d="M693 444 L705 444 L705 455 L693 455 L693 444 Z" />
      </clipPath>
      <clipPath clipPathUnits="userSpaceOnUse" id="clipPath87">
        <path d="M64 605 L361 605 L361 623 L64 623 L64 605 Z" />
      </clipPath>
      <clipPath clipPathUnits="userSpaceOnUse" id="clipPath88">
        <path d="M693 624 L705 624 L705 635 L693 635 L693 624 Z" />
      </clipPath>
      <clipPath clipPathUnits="userSpaceOnUse" id="clipPath89">
        <path d="M87 728 L733 728 L733 746 L87 746 L87 728 Z" />
      </clipPath>
      <clipPath clipPathUnits="userSpaceOnUse" id="clipPath90">
        <path d="M556 744 L568 744 L568 755 L556 755 L556 744 Z" />
      </clipPath>
      <clipPath clipPathUnits="userSpaceOnUse" id="clipPath91">
        <path d="M61 906 L366 906 L366 924 L61 924 L61 906 Z" />
      </clipPath>
      <clipPath clipPathUnits="userSpaceOnUse" id="clipPath92">
        <path d="M693 924 L705 924 L705 935 L693 935 L693 924 Z" />
      </clipPath>
      <clipPath clipPathUnits="userSpaceOnUse" id="clipPath93">
        <path d="M61 1025 L386 1025 L386 1043 L61 1043 L61 1025 Z" />
      </clipPath>
      <clipPath clipPathUnits="userSpaceOnUse" id="clipPath94">
        <path d="M693 1044 L705 1044 L705 1055 L693 1055 L693 1044 Z" />
      </clipPath>
      <clipPath clipPathUnits="userSpaceOnUse" id="clipPath95">
        <path d="M60 1144 L297 1144 L297 1162 L60 1162 L60 1144 Z" />
      </clipPath>
      <clipPath clipPathUnits="userSpaceOnUse" id="clipPath96">
        <path d="M693 1164 L705 1164 L705 1175 L693 1175 L693 1164 Z" />
      </clipPath>
    </defs>
    <g font-size="23" fill="rgb(238,201,142)" font-family="'Lucida Sans'" stroke-linejoin="round" stroke="rgb(238,201,142)" stroke-width="0" stroke-miterlimit="0">
      <rect x="10" y="10" clip-path="url(#clipPath1)" width="70" height="30" stroke="none" />
    </g>
    <g stroke-width="0.1" font-size="23" font-family="'Lucida Sans'" stroke-linecap="butt">
      <rect x="10" y="10" clip-path="url(#clipPath1)" fill="none" width="69" height="29" />
      <text x="22" font-size="13" y="32" clip-path="url(#clipPath2)" font-family="'Lucida Sans Unicode'" stroke="none" xml:space="preserve">System</text>
      <line clip-path="url(#clipPath3)" fill="none" x1="44" x2="44" y1="40" y2="1260" stroke-dasharray="10,10" stroke-width="1.1" />
    </g>
    <g stroke-linecap="butt" font-size="23" fill="rgb(255,245,181)" font-family="'Lucida Sans'" stroke-dasharray="10,10" stroke="rgb(255,245,181)" stroke-width="1.1">
      <rect x="110" y="10" clip-path="url(#clipPath4)" width="120" height="50" stroke="none" />
    </g>
    <g stroke-width="0.1" font-size="23" font-family="'Lucida Sans'" stroke-linecap="butt">
      <rect x="110" y="10" clip-path="url(#clipPath4)" fill="none" width="119" height="49" />
      <text x="137" font-size="13" y="34" clip-path="url(#clipPath5)" font-family="'Lucida Sans Unicode'" stroke="none" xml:space="preserve">theCreator</text>
      <text x="122" font-size="13" y="50" clip-path="url(#clipPath5)" font-family="'Lucida Sans Unicode'" stroke="none" xml:space="preserve">: actMsrCreator</text>
      <line clip-path="url(#clipPath6)" fill="none" x1="169" x2="169" y1="60" y2="1260" stroke-dasharray="10,10" stroke-width="1.1" />
    </g>
    <g stroke-linecap="butt" font-size="23" fill="rgb(255,245,181)" font-family="'Lucida Sans'" stroke-dasharray="10,10" stroke="rgb(255,245,181)" stroke-width="1.1">
      <rect x="240" y="10" clip-path="url(#clipPath7)" width="119" height="50" stroke="none" />
    </g>
    <g stroke-width="0.1" font-size="23" font-family="'Lucida Sans'" stroke-linecap="butt">
      <rect x="240" y="10" clip-path="url(#clipPath7)" fill="none" width="118" height="49" />
      <text x="271" font-size="13" y="34" clip-path="url(#clipPath8)" font-family="'Lucida Sans Unicode'" stroke="none" xml:space="preserve">theClock</text>
      <text x="257" font-size="13" y="50" clip-path="url(#clipPath8)" font-family="'Lucida Sans Unicode'" stroke="none" xml:space="preserve">: actActivator</text>
      <line clip-path="url(#clipPath9)" fill="none" x1="298" x2="298" y1="60" y2="1260" stroke-dasharray="10,10" stroke-width="1.1" />
    </g>
    <g stroke-linecap="butt" font-size="23" fill="rgb(39,76,114)" font-family="'Lucida Sans'" stroke-dasharray="10,10" stroke="rgb(39,76,114)" stroke-width="1.1">
      <rect x="289" y="510" clip-path="url(#clipPath10)" width="20" height="40" stroke="none" />
      <rect x="289" y="510" clip-path="url(#clipPath10)" fill="none" width="19" stroke-dasharray="none" height="39" stroke-width="0.1" />
    </g>
    <g stroke-width="0.1" font-size="13" font-family="'Lucida Sans Unicode'" stroke-linecap="butt">
      <text xml:space="preserve" x="310" y="525" clip-path="url(#clipPath11)" stroke="none">out04</text>
    </g>
    <g stroke-linecap="butt" font-size="23" fill="rgb(39,76,114)" font-family="'Lucida Sans'" stroke="rgb(39,76,114)" stroke-width="0.1">
      <rect x="289" y="810" clip-path="url(#clipPath12)" width="20" height="40" stroke="none" />
      <rect x="289" y="810" clip-path="url(#clipPath12)" fill="none" width="19" height="39" />
    </g>
    <g stroke-width="0.1" font-size="13" font-family="'Lucida Sans Unicode'" stroke-linecap="butt">
      <text xml:space="preserve" x="310" y="825" clip-path="url(#clipPath13)" stroke="none">out07</text>
    </g>
    <g stroke-linecap="butt" font-size="23" fill="rgb(255,245,181)" font-family="'Lucida Sans'" stroke="rgb(255,245,181)" stroke-width="0.1">
      <rect x="369" y="10" clip-path="url(#clipPath14)" width="130" height="50" stroke="none" />
      <rect x="369" y="10" clip-path="url(#clipPath14)" fill="none" width="129" height="49" stroke="black" />
    </g>
    <g stroke-width="0.1" font-size="13" font-family="'Lucida Sans Unicode'" stroke-linecap="butt">
      <text xml:space="preserve" x="424" y="34" clip-path="url(#clipPath15)" stroke="none">bill</text>
      <text xml:space="preserve" x="377" y="50" clip-path="url(#clipPath16)" stroke="none">: actAdministrator</text>
      <line clip-path="url(#clipPath17)" fill="none" x1="433" x2="433" y1="60" y2="1260" stroke-dasharray="10,10" stroke-width="1.1" />
    </g>
    <g stroke-linecap="butt" font-size="23" fill="rgb(255,245,181)" font-family="'Lucida Sans'" stroke-dasharray="10,10" stroke="rgb(255,245,181)" stroke-width="1.1">
      <rect x="509" y="10" clip-path="url(#clipPath18)" width="132" height="50" stroke="none" />
    </g>
    <g stroke-width="0.1" font-size="23" font-family="'Lucida Sans'" stroke-linecap="butt">
      <rect x="509" y="10" clip-path="url(#clipPath18)" fill="none" width="131" height="49" />
      <text x="556" font-size="13" y="34" clip-path="url(#clipPath19)" font-family="'Lucida Sans Unicode'" stroke="none" xml:space="preserve">tango</text>
      <text x="517" font-size="13" y="50" clip-path="url(#clipPath19)" font-family="'Lucida Sans Unicode'" stroke="none" xml:space="preserve">: actComCompany</text>
      <line clip-path="url(#clipPath20)" fill="none" x1="574" x2="574" y1="60" y2="1260" stroke-dasharray="10,10" stroke-width="1.1" />
    </g>
    <g stroke-linecap="butt" font-size="23" fill="rgb(39,76,114)" font-family="'Lucida Sans'" stroke-dasharray="10,10" stroke="rgb(39,76,114)" stroke-width="1.1">
      <rect x="565" y="690" clip-path="url(#clipPath21)" width="20" height="40" stroke="none" />
      <rect x="565" y="690" clip-path="url(#clipPath21)" fill="none" width="19" stroke-dasharray="none" height="39" stroke-width="0.1" />
    </g>
    <g stroke-width="0.1" font-size="13" font-family="'Lucida Sans Unicode'" stroke-linecap="butt">
      <text xml:space="preserve" x="586" y="705" clip-path="url(#clipPath22)" stroke="none">out06</text>
    </g>
    <g stroke-linecap="butt" font-size="23" fill="rgb(194,239,255)" font-family="'Lucida Sans'" stroke="rgb(194,239,255)" stroke-width="0.1">
      <rect x="565" y="390" clip-path="url(#clipPath23)" width="20" height="40" stroke="none" />
      <rect x="565" y="390" clip-path="url(#clipPath23)" fill="none" width="19" height="39" />
    </g>
    <g stroke-width="0.1" font-size="13" font-family="'Lucida Sans Unicode'" stroke-linecap="butt">
      <text xml:space="preserve" x="586" y="405" clip-path="url(#clipPath24)" stroke="none">in03</text>
    </g>
    <g stroke-linecap="butt" font-size="23" fill="rgb(194,239,255)" font-family="'Lucida Sans'" stroke="rgb(194,239,255)" stroke-width="0.1">
      <rect x="565" y="750" clip-path="url(#clipPath25)" width="20" height="40" stroke="none" />
      <rect x="565" y="750" clip-path="url(#clipPath25)" fill="none" width="19" height="39" />
    </g>
    <g stroke-width="0.1" font-size="13" font-family="'Lucida Sans Unicode'" stroke-linecap="butt">
      <text xml:space="preserve" x="586" y="765" clip-path="url(#clipPath26)" stroke="none">in06</text>
    </g>
    <g stroke-linecap="butt" font-size="23" fill="rgb(255,245,181)" font-family="'Lucida Sans'" stroke="rgb(255,245,181)" stroke-width="0.1">
      <rect x="651" y="10" clip-path="url(#clipPath27)" width="122" height="50" stroke="none" />
      <rect x="651" y="10" clip-path="url(#clipPath27)" fill="none" width="121" height="49" stroke="black" />
    </g>
    <g stroke-width="0.1" font-size="13" font-family="'Lucida Sans Unicode'" stroke-linecap="butt">
      <text xml:space="preserve" x="695" y="34" clip-path="url(#clipPath28)" stroke="none">steve</text>
      <text xml:space="preserve" x="661" y="50" clip-path="url(#clipPath28)" stroke="none">: actCoordinator</text>
      <line clip-path="url(#clipPath29)" fill="none" x1="711" x2="711" y1="60" y2="1260" stroke-dasharray="10,10" stroke-width="1.1" />
    </g>
    <g stroke-linecap="butt" font-size="23" fill="rgb(39,76,114)" font-family="'Lucida Sans'" stroke-dasharray="10,10" stroke="rgb(39,76,114)" stroke-width="1.1">
      <rect x="702" y="99" clip-path="url(#clipPath30)" width="20" height="40" stroke="none" />
      <rect x="702" y="99" clip-path="url(#clipPath30)" fill="none" width="19" stroke-dasharray="none" height="39" stroke-width="0.1" />
    </g>
    <g stroke-width="0.1" font-size="13" font-family="'Lucida Sans Unicode'" stroke-linecap="butt">
      <text xml:space="preserve" x="723" y="114" clip-path="url(#clipPath31)" stroke="none">out01</text>
    </g>
    <g stroke-linecap="butt" font-size="23" fill="rgb(39,76,114)" font-family="'Lucida Sans'" stroke="rgb(39,76,114)" stroke-width="0.1">
      <rect x="702" y="210" clip-path="url(#clipPath32)" width="20" height="40" stroke="none" />
      <rect x="702" y="210" clip-path="url(#clipPath32)" fill="none" width="19" height="39" />
    </g>
    <g stroke-width="0.1" font-size="13" font-family="'Lucida Sans Unicode'" stroke-linecap="butt">
      <text xml:space="preserve" x="723" y="225" clip-path="url(#clipPath33)" stroke="none">out02</text>
    </g>
    <g stroke-linecap="butt" font-size="23" fill="rgb(39,76,114)" font-family="'Lucida Sans'" stroke="rgb(39,76,114)" stroke-width="0.1">
      <rect x="702" y="330" clip-path="url(#clipPath34)" width="20" height="40" stroke="none" />
      <rect x="702" y="330" clip-path="url(#clipPath34)" fill="none" width="19" height="39" />
    </g>
    <g stroke-width="0.1" font-size="13" font-family="'Lucida Sans Unicode'" stroke-linecap="butt">
      <text xml:space="preserve" x="723" y="345" clip-path="url(#clipPath35)" stroke="none">out03</text>
    </g>
    <g stroke-linecap="butt" font-size="23" fill="rgb(39,76,114)" font-family="'Lucida Sans'" stroke="rgb(39,76,114)" stroke-width="0.1">
      <rect x="702" y="570" clip-path="url(#clipPath36)" width="20" height="40" stroke="none" />
      <rect x="702" y="570" clip-path="url(#clipPath36)" fill="none" width="19" height="39" />
    </g>
    <g stroke-width="0.1" font-size="13" font-family="'Lucida Sans Unicode'" stroke-linecap="butt">
      <text xml:space="preserve" x="723" y="585" clip-path="url(#clipPath37)" stroke="none">out05</text>
    </g>
    <g stroke-linecap="butt" font-size="23" fill="rgb(39,76,114)" font-family="'Lucida Sans'" stroke="rgb(39,76,114)" stroke-width="0.1">
      <rect x="702" y="870" clip-path="url(#clipPath38)" width="20" height="40" stroke="none" />
      <rect x="702" y="870" clip-path="url(#clipPath38)" fill="none" width="19" height="39" />
    </g>
    <g stroke-width="0.1" font-size="13" font-family="'Lucida Sans Unicode'" stroke-linecap="butt">
      <text xml:space="preserve" x="723" y="885" clip-path="url(#clipPath39)" stroke="none">out08</text>
    </g>
    <g stroke-linecap="butt" font-size="23" fill="rgb(39,76,114)" font-family="'Lucida Sans'" stroke="rgb(39,76,114)" stroke-width="0.1">
      <rect x="702" y="990" clip-path="url(#clipPath40)" width="20" height="40" stroke="none" />
      <rect x="702" y="990" clip-path="url(#clipPath40)" fill="none" width="19" height="39" />
    </g>
    <g stroke-width="0.1" font-size="13" font-family="'Lucida Sans Unicode'" stroke-linecap="butt">
      <text xml:space="preserve" x="723" y="1005" clip-path="url(#clipPath41)" stroke="none">out09</text>
    </g>
    <g stroke-linecap="butt" font-size="23" fill="rgb(39,76,114)" font-family="'Lucida Sans'" stroke="rgb(39,76,114)" stroke-width="0.1">
      <rect x="702" y="1110" clip-path="url(#clipPath42)" width="20" height="40" stroke="none" />
      <rect x="702" y="1110" clip-path="url(#clipPath42)" fill="none" width="19" height="39" />
    </g>
    <g stroke-width="0.1" font-size="13" font-family="'Lucida Sans Unicode'" stroke-linecap="butt">
      <text xml:space="preserve" x="723" y="1125" clip-path="url(#clipPath43)" stroke="none">out10</text>
    </g>
    <g stroke-linecap="butt" font-size="23" fill="rgb(194,239,255)" font-family="'Lucida Sans'" stroke="rgb(194,239,255)" stroke-width="0.1">
      <rect x="702" y="150" clip-path="url(#clipPath44)" width="20" height="40" stroke="none" />
      <rect x="702" y="150" clip-path="url(#clipPath44)" fill="none" width="19" height="39" />
    </g>
    <g stroke-width="0.1" font-size="13" font-family="'Lucida Sans Unicode'" stroke-linecap="butt">
      <text xml:space="preserve" x="723" y="165" clip-path="url(#clipPath45)" stroke="none">in01</text>
    </g>
    <g stroke-linecap="butt" font-size="23" fill="rgb(194,239,255)" font-family="'Lucida Sans'" stroke="rgb(194,239,255)" stroke-width="0.1">
      <rect x="702" y="263" clip-path="url(#clipPath46)" width="20" height="40" stroke="none" />
      <rect x="702" y="263" clip-path="url(#clipPath46)" fill="none" width="19" height="39" />
    </g>
    <g stroke-width="0.1" font-size="13" font-family="'Lucida Sans Unicode'" stroke-linecap="butt">
      <text xml:space="preserve" x="723" y="278" clip-path="url(#clipPath47)" stroke="none">in02</text>
    </g>
    <g stroke-linecap="butt" font-size="23" fill="rgb(194,239,255)" font-family="'Lucida Sans'" stroke="rgb(194,239,255)" stroke-width="0.1">
      <rect x="702" y="450" clip-path="url(#clipPath48)" width="20" height="40" stroke="none" />
      <rect x="702" y="450" clip-path="url(#clipPath48)" fill="none" width="19" height="39" />
    </g>
    <g stroke-width="0.1" font-size="13" font-family="'Lucida Sans Unicode'" stroke-linecap="butt">
      <text xml:space="preserve" x="723" y="465" clip-path="url(#clipPath49)" stroke="none">in04</text>
    </g>
    <g stroke-linecap="butt" font-size="23" fill="rgb(194,239,255)" font-family="'Lucida Sans'" stroke="rgb(194,239,255)" stroke-width="0.1">
      <rect x="702" y="630" clip-path="url(#clipPath50)" width="20" height="40" stroke="none" />
      <rect x="702" y="630" clip-path="url(#clipPath50)" fill="none" width="19" height="39" />
    </g>
    <g stroke-width="0.1" font-size="13" font-family="'Lucida Sans Unicode'" stroke-linecap="butt">
      <text xml:space="preserve" x="723" y="645" clip-path="url(#clipPath51)" stroke="none">in05</text>
    </g>
    <g stroke-linecap="butt" font-size="23" fill="rgb(194,239,255)" font-family="'Lucida Sans'" stroke="rgb(194,239,255)" stroke-width="0.1">
      <rect x="702" y="930" clip-path="url(#clipPath52)" width="20" height="40" stroke="none" />
      <rect x="702" y="930" clip-path="url(#clipPath52)" fill="none" width="19" height="39" />
    </g>
    <g stroke-width="0.1" font-size="13" font-family="'Lucida Sans Unicode'" stroke-linecap="butt">
      <text xml:space="preserve" x="723" y="945" clip-path="url(#clipPath53)" stroke="none">in07</text>
    </g>
    <g stroke-linecap="butt" font-size="23" fill="rgb(194,239,255)" font-family="'Lucida Sans'" stroke="rgb(194,239,255)" stroke-width="0.1">
      <rect x="702" y="1050" clip-path="url(#clipPath54)" width="20" height="40" stroke="none" />
      <rect x="702" y="1050" clip-path="url(#clipPath54)" fill="none" width="19" height="39" />
    </g>
    <g stroke-width="0.1" font-size="13" font-family="'Lucida Sans Unicode'" stroke-linecap="butt">
      <text xml:space="preserve" x="723" y="1065" clip-path="url(#clipPath55)" stroke="none">in08</text>
    </g>
    <g stroke-linecap="butt" font-size="23" fill="rgb(194,239,255)" font-family="'Lucida Sans'" stroke="rgb(194,239,255)" stroke-width="0.1">
      <rect x="702" y="1170" clip-path="url(#clipPath56)" width="20" height="40" stroke="none" />
      <rect x="702" y="1170" clip-path="url(#clipPath56)" fill="none" width="19" height="39" />
    </g>
    <g stroke-width="0.1" font-size="13" font-family="'Lucida Sans Unicode'" stroke-linecap="butt">
      <text xml:space="preserve" x="723" y="1185" clip-path="url(#clipPath57)" stroke="none">in09</text>
      <line clip-path="url(#clipPath58)" fill="none" x1="702" x2="45" y1="98" y2="98" stroke="rgb(136,136,136)" stroke-width="2.1" />
      <text x="60" y="90" clip-path="url(#clipPath59)" stroke="none" stroke-width="2.1" xml:space="preserve">oeLogin("steve","pwdMessirExcalibur2017")</text>
      <line clip-path="url(#clipPath60)" fill="none" x1="52" x2="45" y1="95" y2="98" stroke="rgb(136,136,136)" stroke-width="2.1" />
      <line clip-path="url(#clipPath60)" fill="none" x1="45" x2="52" y1="98" y2="101" stroke="rgb(136,136,136)" stroke-width="2.1" />
      <line clip-path="url(#clipPath58)" fill="none" x1="702" x2="45" y1="209" y2="209" stroke="rgb(136,136,136)" stroke-width="2.1" />
      <text x="57" y="201" clip-path="url(#clipPath61)" stroke="none" stroke-width="2.1" xml:space="preserve">oeGetCrisisSet("pending")</text>
      <line clip-path="url(#clipPath62)" fill="none" x1="52" x2="45" y1="206" y2="209" stroke="rgb(136,136,136)" stroke-width="2.1" />
      <line clip-path="url(#clipPath62)" fill="none" x1="45" x2="52" y1="209" y2="212" stroke="rgb(136,136,136)" stroke-width="2.1" />
      <line clip-path="url(#clipPath58)" fill="none" x1="702" x2="45" y1="329" y2="329" stroke="rgb(136,136,136)" stroke-width="2.1" />
      <text x="57" y="320" clip-path="url(#clipPath63)" stroke="none" stroke-width="2.1" xml:space="preserve">oeSetCrisisHandler("1")</text>
      <line clip-path="url(#clipPath64)" fill="none" x1="52" x2="45" y1="326" y2="329" stroke="rgb(136,136,136)" stroke-width="2.1" />
      <line clip-path="url(#clipPath64)" fill="none" x1="45" x2="52" y1="329" y2="332" stroke="rgb(136,136,136)" stroke-width="2.1" />
      <line clip-path="url(#clipPath58)" fill="none" x1="289" x2="45" y1="509" y2="509" stroke="rgb(136,136,136)" stroke-width="2.1" />
      <text x="65" y="502" clip-path="url(#clipPath65)" stroke="none" stroke-width="2.1" xml:space="preserve">oeSetClock("2017:11:26 - 10:45:00")</text>
      <line clip-path="url(#clipPath66)" fill="none" x1="52" x2="45" y1="506" y2="509" stroke="rgb(136,136,136)" stroke-width="2.1" />
      <line clip-path="url(#clipPath66)" fill="none" x1="45" x2="52" y1="509" y2="512" stroke="rgb(136,136,136)" stroke-width="2.1" />
      <line clip-path="url(#clipPath58)" fill="none" x1="702" x2="45" y1="569" y2="569" stroke="rgb(136,136,136)" stroke-width="2.1" />
      <text x="55" y="561" clip-path="url(#clipPath67)" stroke="none" stroke-width="2.1" xml:space="preserve">oeValidateAlert("1")</text>
      <line clip-path="url(#clipPath68)" fill="none" x1="52" x2="45" y1="566" y2="569" stroke="rgb(136,136,136)" stroke-width="2.1" />
      <line clip-path="url(#clipPath68)" fill="none" x1="45" x2="52" y1="569" y2="572" stroke="rgb(136,136,136)" stroke-width="2.1" />
      <line clip-path="url(#clipPath58)" fill="none" x1="565" x2="45" y1="689" y2="689" stroke="rgb(136,136,136)" stroke-width="2.1" />
      <text x="63" y="663" clip-path="url(#clipPath69)" stroke="none" stroke-width="2.1" xml:space="preserve">oeAlert("witness","2017:11:26","10:20:00","+3524666445000","49.627095:</text>
      <text x="174" y="679" clip-path="url(#clipPath69)" stroke="none" stroke-width="2.1" xml:space="preserve">6.160251","A car crash just happened.")</text>
      <line clip-path="url(#clipPath70)" fill="none" x1="52" x2="45" y1="686" y2="689" stroke="rgb(136,136,136)" stroke-width="2.1" />
      <line clip-path="url(#clipPath70)" fill="none" x1="45" x2="52" y1="689" y2="692" stroke="rgb(136,136,136)" stroke-width="2.1" />
      <line clip-path="url(#clipPath58)" fill="none" x1="289" x2="45" y1="809" y2="809" stroke="rgb(136,136,136)" stroke-width="2.1" />
      <text x="66" y="801" clip-path="url(#clipPath71)" stroke="none" stroke-width="2.1" xml:space="preserve">oeSetClock("2017:11:26 - 12:45:00")</text>
      <line clip-path="url(#clipPath72)" fill="none" x1="52" x2="45" y1="806" y2="809" stroke="rgb(136,136,136)" stroke-width="2.1" />
      <line clip-path="url(#clipPath72)" fill="none" x1="45" x2="52" y1="809" y2="812" stroke="rgb(136,136,136)" stroke-width="2.1" />
      <line clip-path="url(#clipPath58)" fill="none" x1="702" x2="45" y1="869" y2="869" stroke="rgb(136,136,136)" stroke-width="2.1" />
      <text x="58" y="861" clip-path="url(#clipPath73)" stroke="none" stroke-width="2.1" xml:space="preserve">oeSetCrisisStatus("1","solved")</text>
      <line clip-path="url(#clipPath74)" fill="none" x1="52" x2="45" y1="866" y2="869" stroke="rgb(136,136,136)" stroke-width="2.1" />
      <line clip-path="url(#clipPath74)" fill="none" x1="45" x2="52" y1="869" y2="872" stroke="rgb(136,136,136)" stroke-width="2.1" />
      <line clip-path="url(#clipPath58)" fill="none" x1="702" x2="45" y1="989" y2="989" stroke="rgb(136,136,136)" stroke-width="2.1" />
      <text x="72" y="986" clip-path="url(#clipPath75)" stroke="none" stroke-width="2.1" xml:space="preserve">oeReportOnCrisis("1","3 victims sent to hospital, 2 cars evacuated and 4 rescue unit mobilized")</text>
      <line clip-path="url(#clipPath76)" fill="none" x1="52" x2="45" y1="986" y2="989" stroke="rgb(136,136,136)" stroke-width="2.1" />
      <line clip-path="url(#clipPath76)" fill="none" x1="45" x2="52" y1="989" y2="992" stroke="rgb(136,136,136)" stroke-width="2.1" />
      <line clip-path="url(#clipPath58)" fill="none" x1="702" x2="45" y1="1109" y2="1109" stroke="rgb(136,136,136)" stroke-width="2.1" />
      <text x="54" y="1101" clip-path="url(#clipPath77)" stroke="none" stroke-width="2.1" xml:space="preserve">oeCloseCrisis("1")</text>
      <line clip-path="url(#clipPath78)" fill="none" x1="52" x2="45" y1="1106" y2="1109" stroke="rgb(136,136,136)" stroke-width="2.1" />
      <line clip-path="url(#clipPath78)" fill="none" x1="45" x2="52" y1="1109" y2="1112" stroke="rgb(136,136,136)" stroke-width="2.1" />
    </g>
    <g stroke-linecap="butt" font-size="13" fill="rgb(136,136,136)" font-family="'Lucida Sans Unicode'" stroke-dasharray="5,5" stroke="rgb(136,136,136)" stroke-width="2.1">
      <line clip-path="url(#clipPath58)" fill="none" x1="702" x2="45" y1="149" y2="149" />
      <text x="60" y="142" clip-path="url(#clipPath79)" fill="black" stroke="none" xml:space="preserve">ieMessage(You are logged ! Welcome ...)</text>
      <line clip-path="url(#clipPath80)" fill="none" x1="695" x2="702" y1="152" y2="149" stroke-dasharray="none" />
      <line clip-path="url(#clipPath80)" fill="none" x1="702" x2="695" y1="149" y2="146" stroke-dasharray="none" />
      <line clip-path="url(#clipPath58)" fill="none" x1="702" x2="45" y1="262" y2="262" />
      <text x="59" y="256" clip-path="url(#clipPath81)" fill="black" stroke="none" xml:space="preserve">ieSendACrisis(crisis with ID 1 details)</text>
      <line clip-path="url(#clipPath82)" fill="none" x1="695" x2="702" y1="265" y2="262" stroke-dasharray="none" />
      <line clip-path="url(#clipPath82)" fill="none" x1="702" x2="695" y1="262" y2="259" stroke-dasharray="none" />
      <line clip-path="url(#clipPath58)" fill="none" x1="565" x2="45" y1="389" y2="389" />
      <text x="79" y="382" clip-path="url(#clipPath83)" fill="black" stroke="none" xml:space="preserve">ieSmsSend(+3524666445252,The handling of your alert by our services is in progress !)</text>
      <line clip-path="url(#clipPath84)" fill="none" x1="558" x2="565" y1="392" y2="389" stroke-dasharray="none" />
      <line clip-path="url(#clipPath84)" fill="none" x1="565" x2="558" y1="389" y2="386" stroke-dasharray="none" />
      <line clip-path="url(#clipPath58)" fill="none" x1="702" x2="45" y1="449" y2="449" />
      <text x="65" y="440" clip-path="url(#clipPath85)" fill="black" stroke="none" xml:space="preserve">ieMessage(You are now considered as handling the crisis !)</text>
      <line clip-path="url(#clipPath86)" fill="none" x1="695" x2="702" y1="452" y2="449" stroke-dasharray="none" />
      <line clip-path="url(#clipPath86)" fill="none" x1="702" x2="695" y1="449" y2="446" stroke-dasharray="none" />
      <line clip-path="url(#clipPath58)" fill="none" x1="702" x2="45" y1="629" y2="629" />
      <text x="65" y="621" clip-path="url(#clipPath87)" fill="black" stroke="none" xml:space="preserve">ieMessage(The Alert is now declared as valid !)</text>
      <line clip-path="url(#clipPath88)" fill="none" x1="695" x2="702" y1="632" y2="629" stroke-dasharray="none" />
      <line clip-path="url(#clipPath88)" fill="none" x1="702" x2="695" y1="629" y2="626" stroke-dasharray="none" />
      <line clip-path="url(#clipPath58)" fill="none" x1="565" x2="45" y1="749" y2="749" />
      <text x="88" y="744" clip-path="url(#clipPath89)" fill="black" stroke="none" xml:space="preserve">ieSmsSend(+3524666445000,Your alert has been registered. We will handle it and keep you informed)</text>
      <line clip-path="url(#clipPath90)" fill="none" x1="558" x2="565" y1="752" y2="749" stroke-dasharray="none" />
      <line clip-path="url(#clipPath90)" fill="none" x1="565" x2="558" y1="749" y2="746" stroke-dasharray="none" />
      <line clip-path="url(#clipPath58)" fill="none" x1="702" x2="45" y1="929" y2="929" />
      <text x="62" y="922" clip-path="url(#clipPath91)" fill="black" stroke="none" xml:space="preserve">ieMessage(The crisis status has been updated !)</text>
      <line clip-path="url(#clipPath92)" fill="none" x1="695" x2="702" y1="932" y2="929" stroke-dasharray="none" />
      <line clip-path="url(#clipPath92)" fill="none" x1="702" x2="695" y1="929" y2="926" stroke-dasharray="none" />
      <line clip-path="url(#clipPath58)" fill="none" x1="702" x2="45" y1="1049" y2="1049" />
      <text x="62" y="1041" clip-path="url(#clipPath93)" fill="black" stroke="none" xml:space="preserve">ieMessage(The crisis comment has been updated !)</text>
      <line clip-path="url(#clipPath94)" fill="none" x1="695" x2="702" y1="1052" y2="1049" stroke-dasharray="none" />
      <line clip-path="url(#clipPath94)" fill="none" x1="702" x2="695" y1="1049" y2="1046" stroke-dasharray="none" />
      <line clip-path="url(#clipPath58)" fill="none" x1="702" x2="45" y1="1169" y2="1169" />
      <text x="61" y="1160" clip-path="url(#clipPath95)" fill="black" stroke="none" xml:space="preserve">ieMessage(The crisis is now closed !)</text>
      <line clip-path="url(#clipPath96)" fill="none" x1="695" x2="702" y1="1172" y2="1169" stroke-dasharray="none" />
      <line clip-path="url(#clipPath96)" fill="none" x1="702" x2="695" y1="1169" y2="1166" stroke-dasharray="none" />
    </g>
  </g>
</svg>

