<?xml version="1.0" encoding="UTF-8"?>
<svg xmlns="http://www.w3.org/2000/svg" xmlns:xlink="http://www.w3.org/1999/xlink" stroke-dasharray="none" shape-rendering="auto" font-family="'Dialog'" width="1196" text-rendering="auto" fill-opacity="1" contentScriptType="text/ecmascript" color-interpolation="auto" color-rendering="auto" preserveAspectRatio="xMidYMid meet" font-size="12" viewBox="0 0 1196 1085" fill="black" stroke="black" image-rendering="auto" stroke-miterlimit="10" zoomAndPan="magnify" version="1.0" stroke-linecap="square" stroke-linejoin="miter" contentStyleType="text/css" font-style="normal" height="1085" stroke-width="1" stroke-dashoffset="0" font-weight="normal" stroke-opacity="1">
  <!--Generated by the Batik Graphics2D SVG Generator-->
  <defs id="genericDefs" />
  <g>
    <defs id="defs1">
      <clipPath clipPathUnits="userSpaceOnUse" id="clipPath1">
        <path d="M208 9 L280 9 L280 41 L208 41 L208 9 Z" />
      </clipPath>
      <clipPath clipPathUnits="userSpaceOnUse" id="clipPath2">
        <path d="M208 9 L284 9 L284 41 L208 41 L208 9 Z" />
      </clipPath>
      <clipPath clipPathUnits="userSpaceOnUse" id="clipPath3">
        <path d="M238 39 L250 39 L250 1076 L238 1076 L238 39 Z" />
      </clipPath>
      <clipPath clipPathUnits="userSpaceOnUse" id="clipPath4">
        <path d="M367 9 L485 9 L485 61 L367 61 L367 9 Z" />
      </clipPath>
      <clipPath clipPathUnits="userSpaceOnUse" id="clipPath5">
        <path d="M367 9 L490 9 L490 61 L367 61 L367 9 Z" />
      </clipPath>
      <clipPath clipPathUnits="userSpaceOnUse" id="clipPath6">
        <path d="M420 59 L432 59 L432 1076 L420 1076 L420 59 Z" />
      </clipPath>
      <clipPath clipPathUnits="userSpaceOnUse" id="clipPath7">
        <path d="M415 89 L437 89 L437 131 L415 131 L415 89 Z" />
      </clipPath>
      <clipPath clipPathUnits="userSpaceOnUse" id="clipPath8">
        <path d="M436 89 L511 89 L511 118 L436 118 L436 89 Z" />
      </clipPath>
      <clipPath clipPathUnits="userSpaceOnUse" id="clipPath9">
        <path d="M493 9 L594 9 L594 61 L493 61 L493 9 Z" />
      </clipPath>
      <clipPath clipPathUnits="userSpaceOnUse" id="clipPath10">
        <path d="M493 9 L599 9 L599 61 L493 61 L493 9 Z" />
      </clipPath>
      <clipPath clipPathUnits="userSpaceOnUse" id="clipPath11">
        <path d="M537 59 L549 59 L549 1076 L537 1076 L537 59 Z" />
      </clipPath>
      <clipPath clipPathUnits="userSpaceOnUse" id="clipPath12">
        <path d="M532 149 L554 149 L554 191 L532 191 L532 149 Z" />
      </clipPath>
      <clipPath clipPathUnits="userSpaceOnUse" id="clipPath13">
        <path d="M553 149 L628 149 L628 178 L553 178 L553 149 Z" />
      </clipPath>
      <clipPath clipPathUnits="userSpaceOnUse" id="clipPath14">
        <path d="M532 569 L554 569 L554 611 L532 611 L532 569 Z" />
      </clipPath>
      <clipPath clipPathUnits="userSpaceOnUse" id="clipPath15">
        <path d="M553 569 L628 569 L628 598 L553 598 L553 569 Z" />
      </clipPath>
      <clipPath clipPathUnits="userSpaceOnUse" id="clipPath16">
        <path d="M532 789 L554 789 L554 831 L532 831 L532 789 Z" />
      </clipPath>
      <clipPath clipPathUnits="userSpaceOnUse" id="clipPath17">
        <path d="M553 789 L628 789 L628 818 L553 818 L553 789 Z" />
      </clipPath>
      <clipPath clipPathUnits="userSpaceOnUse" id="clipPath18">
        <path d="M532 849 L554 849 L554 891 L532 891 L532 849 Z" />
      </clipPath>
      <clipPath clipPathUnits="userSpaceOnUse" id="clipPath19">
        <path d="M553 849 L628 849 L628 878 L553 878 L553 849 Z" />
      </clipPath>
      <clipPath clipPathUnits="userSpaceOnUse" id="clipPath20">
        <path d="M602 9 L733 9 L733 61 L602 61 L602 9 Z" />
      </clipPath>
      <clipPath clipPathUnits="userSpaceOnUse" id="clipPath21">
        <path d="M602 9 L737 9 L737 61 L602 61 L602 9 Z" />
      </clipPath>
      <clipPath clipPathUnits="userSpaceOnUse" id="clipPath22">
        <path d="M602 9 L738 9 L738 61 L602 61 L602 9 Z" />
      </clipPath>
      <clipPath clipPathUnits="userSpaceOnUse" id="clipPath23">
        <path d="M661 59 L673 59 L673 1076 L661 1076 L661 59 Z" />
      </clipPath>
      <clipPath clipPathUnits="userSpaceOnUse" id="clipPath24">
        <path d="M656 209 L678 209 L678 251 L656 251 L656 209 Z" />
      </clipPath>
      <clipPath clipPathUnits="userSpaceOnUse" id="clipPath25">
        <path d="M677 209 L752 209 L752 238 L677 238 L677 209 Z" />
      </clipPath>
      <clipPath clipPathUnits="userSpaceOnUse" id="clipPath26">
        <path d="M656 329 L678 329 L678 371 L656 371 L656 329 Z" />
      </clipPath>
      <clipPath clipPathUnits="userSpaceOnUse" id="clipPath27">
        <path d="M677 329 L752 329 L752 358 L677 358 L677 329 Z" />
      </clipPath>
      <clipPath clipPathUnits="userSpaceOnUse" id="clipPath28">
        <path d="M656 449 L678 449 L678 491 L656 491 L656 449 Z" />
      </clipPath>
      <clipPath clipPathUnits="userSpaceOnUse" id="clipPath29">
        <path d="M677 449 L752 449 L752 478 L677 478 L677 449 Z" />
      </clipPath>
      <clipPath clipPathUnits="userSpaceOnUse" id="clipPath30">
        <path d="M656 258 L678 258 L678 300 L656 300 L656 258 Z" />
      </clipPath>
      <clipPath clipPathUnits="userSpaceOnUse" id="clipPath31">
        <path d="M677 258 L736 258 L736 287 L677 287 L677 258 Z" />
      </clipPath>
      <clipPath clipPathUnits="userSpaceOnUse" id="clipPath32">
        <path d="M656 381 L678 381 L678 423 L656 423 L656 381 Z" />
      </clipPath>
      <clipPath clipPathUnits="userSpaceOnUse" id="clipPath33">
        <path d="M677 381 L736 381 L736 410 L677 410 L677 381 Z" />
      </clipPath>
      <clipPath clipPathUnits="userSpaceOnUse" id="clipPath34">
        <path d="M656 499 L678 499 L678 541 L656 541 L656 499 Z" />
      </clipPath>
      <clipPath clipPathUnits="userSpaceOnUse" id="clipPath35">
        <path d="M677 499 L736 499 L736 528 L677 528 L677 499 Z" />
      </clipPath>
      <clipPath clipPathUnits="userSpaceOnUse" id="clipPath36">
        <path d="M656 915 L678 915 L678 957 L656 957 L656 915 Z" />
      </clipPath>
      <clipPath clipPathUnits="userSpaceOnUse" id="clipPath37">
        <path d="M677 915 L736 915 L736 944 L677 944 L677 915 Z" />
      </clipPath>
      <clipPath clipPathUnits="userSpaceOnUse" id="clipPath38">
        <path d="M741 9 L877 9 L877 61 L741 61 L741 9 Z" />
      </clipPath>
      <clipPath clipPathUnits="userSpaceOnUse" id="clipPath39">
        <path d="M741 9 L883 9 L883 61 L741 61 L741 9 Z" />
      </clipPath>
      <clipPath clipPathUnits="userSpaceOnUse" id="clipPath40">
        <path d="M741 9 L882 9 L882 61 L741 61 L741 9 Z" />
      </clipPath>
      <clipPath clipPathUnits="userSpaceOnUse" id="clipPath41">
        <path d="M803 59 L815 59 L815 1076 L803 1076 L803 59 Z" />
      </clipPath>
      <clipPath clipPathUnits="userSpaceOnUse" id="clipPath42">
        <path d="M798 664 L820 664 L820 706 L798 706 L798 664 Z" />
      </clipPath>
      <clipPath clipPathUnits="userSpaceOnUse" id="clipPath43">
        <path d="M819 664 L894 664 L894 693 L819 693 L819 664 Z" />
      </clipPath>
      <clipPath clipPathUnits="userSpaceOnUse" id="clipPath44">
        <path d="M798 729 L820 729 L820 771 L798 771 L798 729 Z" />
      </clipPath>
      <clipPath clipPathUnits="userSpaceOnUse" id="clipPath45">
        <path d="M819 729 L878 729 L878 758 L819 758 L819 729 Z" />
      </clipPath>
      <clipPath clipPathUnits="userSpaceOnUse" id="clipPath46">
        <path d="M885 9 L1015 9 L1015 61 L885 61 L885 9 Z" />
      </clipPath>
      <clipPath clipPathUnits="userSpaceOnUse" id="clipPath47">
        <path d="M885 9 L1020 9 L1020 61 L885 61 L885 9 Z" />
      </clipPath>
      <clipPath clipPathUnits="userSpaceOnUse" id="clipPath48">
        <path d="M944 59 L956 59 L956 1076 L944 1076 L944 59 Z" />
      </clipPath>
      <clipPath clipPathUnits="userSpaceOnUse" id="clipPath49">
        <path d="M939 984 L961 984 L961 1026 L939 1026 L939 984 Z" />
      </clipPath>
      <clipPath clipPathUnits="userSpaceOnUse" id="clipPath50">
        <path d="M960 984 L1019 984 L1019 1013 L960 1013 L960 984 Z" />
      </clipPath>
      <clipPath clipPathUnits="userSpaceOnUse" id="clipPath51">
        <path d="M-1 -1 L1197 -1 L1197 1086 L-1 1086 L-1 -1 Z" />
      </clipPath>
      <clipPath clipPathUnits="userSpaceOnUse" id="clipPath52">
        <path d="M172 62 L589 62 L589 91 L172 91 L172 62 Z" />
      </clipPath>
      <clipPath clipPathUnits="userSpaceOnUse" id="clipPath53">
        <path d="M242 85 L254 85 L254 96 L242 96 L242 85 Z" />
      </clipPath>
      <clipPath clipPathUnits="userSpaceOnUse" id="clipPath54">
        <path d="M166 123 L594 123 L594 152 L166 152 L166 123 Z" />
      </clipPath>
      <clipPath clipPathUnits="userSpaceOnUse" id="clipPath55">
        <path d="M242 145 L254 145 L254 156 L242 156 L242 145 Z" />
      </clipPath>
      <clipPath clipPathUnits="userSpaceOnUse" id="clipPath56">
        <path d="M166 180 L580 180 L580 209 L166 209 L166 180 Z" />
      </clipPath>
      <clipPath clipPathUnits="userSpaceOnUse" id="clipPath57">
        <path d="M242 205 L254 205 L254 216 L242 216 L242 205 Z" />
      </clipPath>
      <clipPath clipPathUnits="userSpaceOnUse" id="clipPath58">
        <path d="M125 299 L773 299 L773 328 L125 328 L125 299 Z" />
      </clipPath>
      <clipPath clipPathUnits="userSpaceOnUse" id="clipPath59">
        <path d="M242 325 L254 325 L254 336 L242 336 L242 325 Z" />
      </clipPath>
      <clipPath clipPathUnits="userSpaceOnUse" id="clipPath60">
        <path d="M226 420 L351 420 L351 449 L226 449 L226 420 Z" />
      </clipPath>
      <clipPath clipPathUnits="userSpaceOnUse" id="clipPath61">
        <path d="M242 445 L254 445 L254 456 L242 456 L242 445 Z" />
      </clipPath>
      <clipPath clipPathUnits="userSpaceOnUse" id="clipPath62">
        <path d="M167 542 L595 542 L595 571 L167 571 L167 542 Z" />
      </clipPath>
      <clipPath clipPathUnits="userSpaceOnUse" id="clipPath63">
        <path d="M242 565 L254 565 L254 576 L242 576 L242 565 Z" />
      </clipPath>
      <clipPath clipPathUnits="userSpaceOnUse" id="clipPath64">
        <path d="M233 604 L738 604 L738 683 L233 683 L233 604 Z" />
      </clipPath>
      <clipPath clipPathUnits="userSpaceOnUse" id="clipPath65">
        <path d="M233 604 L739 604 L739 683 L233 683 L233 604 Z" />
      </clipPath>
      <clipPath clipPathUnits="userSpaceOnUse" id="clipPath66">
        <path d="M242 660 L254 660 L254 671 L242 671 L242 660 Z" />
      </clipPath>
      <clipPath clipPathUnits="userSpaceOnUse" id="clipPath67">
        <path d="M164 757 L592 757 L592 786 L164 786 L164 757 Z" />
      </clipPath>
      <clipPath clipPathUnits="userSpaceOnUse" id="clipPath68">
        <path d="M242 785 L254 785 L254 796 L242 796 L242 785 Z" />
      </clipPath>
      <clipPath clipPathUnits="userSpaceOnUse" id="clipPath69">
        <path d="M186 819 L507 819 L507 848 L186 848 L186 819 Z" />
      </clipPath>
      <clipPath clipPathUnits="userSpaceOnUse" id="clipPath70">
        <path d="M242 845 L254 845 L254 856 L242 856 L242 845 Z" />
      </clipPath>
      <clipPath clipPathUnits="userSpaceOnUse" id="clipPath71">
        <path d="M164 230 L618 230 L618 259 L164 259 L164 230 Z" />
      </clipPath>
      <clipPath clipPathUnits="userSpaceOnUse" id="clipPath72">
        <path d="M648 254 L660 254 L660 265 L648 265 L648 254 Z" />
      </clipPath>
      <clipPath clipPathUnits="userSpaceOnUse" id="clipPath73">
        <path d="M187 354 L527 354 L527 383 L187 383 L187 354 Z" />
      </clipPath>
      <clipPath clipPathUnits="userSpaceOnUse" id="clipPath74">
        <path d="M648 377 L660 377 L660 388 L648 388 L648 377 Z" />
      </clipPath>
      <clipPath clipPathUnits="userSpaceOnUse" id="clipPath75">
        <path d="M154 472 L656 472 L656 501 L154 501 L154 472 Z" />
      </clipPath>
      <clipPath clipPathUnits="userSpaceOnUse" id="clipPath76">
        <path d="M648 495 L660 495 L660 506 L648 506 L648 495 Z" />
      </clipPath>
      <clipPath clipPathUnits="userSpaceOnUse" id="clipPath77">
        <path d="M23 703 L1178 703 L1178 732 L23 732 L23 703 Z" />
      </clipPath>
      <clipPath clipPathUnits="userSpaceOnUse" id="clipPath78">
        <path d="M790 725 L802 725 L802 736 L790 736 L790 725 Z" />
      </clipPath>
      <clipPath clipPathUnits="userSpaceOnUse" id="clipPath79">
        <path d="M68 889 L1044 889 L1044 918 L68 918 L68 889 Z" />
      </clipPath>
      <clipPath clipPathUnits="userSpaceOnUse" id="clipPath80">
        <path d="M648 911 L660 911 L660 922 L648 922 L648 911 Z" />
      </clipPath>
      <clipPath clipPathUnits="userSpaceOnUse" id="clipPath81">
        <path d="M64 957 L1040 957 L1040 986 L64 986 L64 957 Z" />
      </clipPath>
      <clipPath clipPathUnits="userSpaceOnUse" id="clipPath82">
        <path d="M931 980 L943 980 L943 991 L931 991 L931 980 Z" />
      </clipPath>
    </defs>
    <g font-size="23" fill="rgb(238,201,142)" font-family="'Lucida Sans'" stroke-linejoin="round" stroke="rgb(238,201,142)" stroke-width="0" stroke-miterlimit="0">
      <rect x="209" y="10" clip-path="url(#clipPath1)" width="70" height="30" stroke="none" />
    </g>
    <g stroke-width="0.1" font-size="23" font-family="'Lucida Sans'" stroke-linecap="butt">
      <rect x="209" y="10" clip-path="url(#clipPath1)" fill="none" width="69" height="29" />
      <text xml:space="preserve" x="211" y="33" clip-path="url(#clipPath2)" stroke="none">Syst...</text>
      <line clip-path="url(#clipPath3)" fill="none" x1="243" x2="243" y1="40" y2="1075" stroke-dasharray="10,10" stroke-width="1.1" />
    </g>
    <g stroke-linecap="butt" font-size="23" fill="rgb(255,245,181)" font-family="'Lucida Sans'" stroke-dasharray="10,10" stroke="rgb(255,245,181)" stroke-width="1.1">
      <rect x="368" y="10" clip-path="url(#clipPath4)" width="116" height="50" stroke="none" />
    </g>
    <g stroke-width="0.1" font-size="23" font-family="'Lucida Sans'" stroke-linecap="butt">
      <rect x="368" y="10" clip-path="url(#clipPath4)" fill="none" width="115" height="49" />
      <text xml:space="preserve" x="372" y="43" clip-path="url(#clipPath5)" stroke="none">theCrea...</text>
      <line clip-path="url(#clipPath6)" fill="none" x1="425" x2="425" y1="60" y2="1075" stroke-dasharray="10,10" stroke-width="1.1" />
    </g>
    <g stroke-linecap="butt" font-size="23" fill="rgb(39,76,114)" font-family="'Lucida Sans'" stroke-dasharray="10,10" stroke="rgb(39,76,114)" stroke-width="1.1">
      <rect x="416" y="90" clip-path="url(#clipPath7)" width="20" height="40" stroke="none" />
      <rect x="416" y="90" clip-path="url(#clipPath7)" fill="none" width="19" stroke-dasharray="none" height="39" stroke-width="0.1" />
    </g>
    <g stroke-width="0.1" font-size="23" font-family="'Lucida Sans'" stroke-linecap="butt">
      <text xml:space="preserve" x="437" y="112" clip-path="url(#clipPath8)" stroke="none">out01</text>
      <rect x="494" y="10" clip-path="url(#clipPath9)" fill="rgb(255,245,181)" width="99" height="50" stroke="none" />
      <rect x="494" y="10" clip-path="url(#clipPath9)" fill="none" width="98" height="49" />
      <text xml:space="preserve" x="496" y="30" clip-path="url(#clipPath10)" stroke="none">theClo...</text>
      <line clip-path="url(#clipPath11)" fill="none" x1="542" x2="542" y1="60" y2="1075" stroke-dasharray="10,10" stroke-width="1.1" />
    </g>
    <g stroke-linecap="butt" font-size="23" fill="rgb(39,76,114)" font-family="'Lucida Sans'" stroke-dasharray="10,10" stroke="rgb(39,76,114)" stroke-width="1.1">
      <rect x="533" y="150" clip-path="url(#clipPath12)" width="20" height="40" stroke="none" />
      <rect x="533" y="150" clip-path="url(#clipPath12)" fill="none" width="19" stroke-dasharray="none" height="39" stroke-width="0.1" />
    </g>
    <g stroke-width="0.1" font-size="23" font-family="'Lucida Sans'" stroke-linecap="butt">
      <text xml:space="preserve" x="554" y="172" clip-path="url(#clipPath13)" stroke="none">out02</text>
      <rect x="533" y="570" clip-path="url(#clipPath14)" fill="rgb(39,76,114)" width="20" height="40" stroke="none" />
      <rect x="533" y="570" clip-path="url(#clipPath14)" fill="none" width="19" height="39" stroke="rgb(39,76,114)" />
      <text xml:space="preserve" x="554" y="592" clip-path="url(#clipPath15)" stroke="none">out06</text>
      <rect x="533" y="790" clip-path="url(#clipPath16)" fill="rgb(39,76,114)" width="20" height="40" stroke="none" />
      <rect x="533" y="790" clip-path="url(#clipPath16)" fill="none" width="19" height="39" stroke="rgb(39,76,114)" />
      <text xml:space="preserve" x="554" y="812" clip-path="url(#clipPath17)" stroke="none">out08</text>
      <rect x="533" y="850" clip-path="url(#clipPath18)" fill="rgb(39,76,114)" width="20" height="40" stroke="none" />
      <rect x="533" y="850" clip-path="url(#clipPath18)" fill="none" width="19" height="39" stroke="rgb(39,76,114)" />
      <text xml:space="preserve" x="554" y="872" clip-path="url(#clipPath19)" stroke="none">out09</text>
      <rect x="603" y="10" clip-path="url(#clipPath20)" fill="rgb(255,245,181)" width="129" height="50" stroke="none" />
      <rect x="603" y="10" clip-path="url(#clipPath20)" fill="none" width="128" height="49" />
      <text xml:space="preserve" x="650" y="30" clip-path="url(#clipPath21)" stroke="none">bill</text>
      <text xml:space="preserve" x="604" y="57" clip-path="url(#clipPath22)" stroke="none">: actAdmi...</text>
      <line clip-path="url(#clipPath23)" fill="none" x1="666" x2="666" y1="60" y2="1075" stroke-dasharray="10,10" stroke-width="1.1" />
    </g>
    <g stroke-linecap="butt" font-size="23" fill="rgb(39,76,114)" font-family="'Lucida Sans'" stroke-dasharray="10,10" stroke="rgb(39,76,114)" stroke-width="1.1">
      <rect x="657" y="210" clip-path="url(#clipPath24)" width="20" height="40" stroke="none" />
      <rect x="657" y="210" clip-path="url(#clipPath24)" fill="none" width="19" stroke-dasharray="none" height="39" stroke-width="0.1" />
    </g>
    <g stroke-width="0.1" font-size="23" font-family="'Lucida Sans'" stroke-linecap="butt">
      <text xml:space="preserve" x="678" y="232" clip-path="url(#clipPath25)" stroke="none">out03</text>
      <rect x="657" y="330" clip-path="url(#clipPath26)" fill="rgb(39,76,114)" width="20" height="40" stroke="none" />
      <rect x="657" y="330" clip-path="url(#clipPath26)" fill="none" width="19" height="39" stroke="rgb(39,76,114)" />
      <text xml:space="preserve" x="678" y="352" clip-path="url(#clipPath27)" stroke="none">out04</text>
      <rect x="657" y="450" clip-path="url(#clipPath28)" fill="rgb(39,76,114)" width="20" height="40" stroke="none" />
      <rect x="657" y="450" clip-path="url(#clipPath28)" fill="none" width="19" height="39" stroke="rgb(39,76,114)" />
      <text xml:space="preserve" x="678" y="472" clip-path="url(#clipPath29)" stroke="none">out05</text>
      <rect x="657" y="259" clip-path="url(#clipPath30)" fill="rgb(194,239,255)" width="20" height="40" stroke="none" />
      <rect x="657" y="259" clip-path="url(#clipPath30)" fill="none" width="19" height="39" stroke="rgb(194,239,255)" />
      <text xml:space="preserve" x="678" y="281" clip-path="url(#clipPath31)" stroke="none">in01</text>
      <rect x="657" y="382" clip-path="url(#clipPath32)" fill="rgb(194,239,255)" width="20" height="40" stroke="none" />
      <rect x="657" y="382" clip-path="url(#clipPath32)" fill="none" width="19" height="39" stroke="rgb(194,239,255)" />
      <text xml:space="preserve" x="678" y="404" clip-path="url(#clipPath33)" stroke="none">in02</text>
      <rect x="657" y="500" clip-path="url(#clipPath34)" fill="rgb(194,239,255)" width="20" height="40" stroke="none" />
      <rect x="657" y="500" clip-path="url(#clipPath34)" fill="none" width="19" height="39" stroke="rgb(194,239,255)" />
      <text xml:space="preserve" x="678" y="522" clip-path="url(#clipPath35)" stroke="none">in03</text>
      <rect x="657" y="916" clip-path="url(#clipPath36)" fill="rgb(194,239,255)" width="20" height="40" stroke="none" />
      <rect x="657" y="916" clip-path="url(#clipPath36)" fill="none" width="19" height="39" stroke="rgb(194,239,255)" />
      <text xml:space="preserve" x="678" y="938" clip-path="url(#clipPath37)" stroke="none">in05</text>
      <rect x="742" y="10" clip-path="url(#clipPath38)" fill="rgb(255,245,181)" width="134" height="50" stroke="none" />
      <rect x="742" y="10" clip-path="url(#clipPath38)" fill="none" width="133" height="49" />
      <text xml:space="preserve" x="777" y="30" clip-path="url(#clipPath39)" stroke="none">tango</text>
      <text xml:space="preserve" x="749" y="57" clip-path="url(#clipPath40)" stroke="none">: actCom...</text>
      <line clip-path="url(#clipPath41)" fill="none" x1="808" x2="808" y1="60" y2="1075" stroke-dasharray="10,10" stroke-width="1.1" />
    </g>
    <g stroke-linecap="butt" font-size="23" fill="rgb(39,76,114)" font-family="'Lucida Sans'" stroke-dasharray="10,10" stroke="rgb(39,76,114)" stroke-width="1.1">
      <rect x="799" y="665" clip-path="url(#clipPath42)" width="20" height="40" stroke="none" />
      <rect x="799" y="665" clip-path="url(#clipPath42)" fill="none" width="19" stroke-dasharray="none" height="39" stroke-width="0.1" />
    </g>
    <g stroke-width="0.1" font-size="23" font-family="'Lucida Sans'" stroke-linecap="butt">
      <text xml:space="preserve" x="820" y="687" clip-path="url(#clipPath43)" stroke="none">out07</text>
      <rect x="799" y="730" clip-path="url(#clipPath44)" fill="rgb(194,239,255)" width="20" height="40" stroke="none" />
      <rect x="799" y="730" clip-path="url(#clipPath44)" fill="none" width="19" height="39" stroke="rgb(194,239,255)" />
      <text xml:space="preserve" x="820" y="752" clip-path="url(#clipPath45)" stroke="none">in04</text>
      <rect x="886" y="10" clip-path="url(#clipPath46)" fill="rgb(255,245,181)" width="128" height="50" stroke="none" />
      <rect x="886" y="10" clip-path="url(#clipPath46)" fill="none" width="127" height="49" />
      <text xml:space="preserve" x="920" y="30" clip-path="url(#clipPath47)" stroke="none">steve</text>
      <text xml:space="preserve" x="889" y="57" clip-path="url(#clipPath47)" stroke="none">: actCoor...</text>
      <line clip-path="url(#clipPath48)" fill="none" x1="949" x2="949" y1="60" y2="1075" stroke-dasharray="10,10" stroke-width="1.1" />
    </g>
    <g stroke-linecap="butt" font-size="23" fill="rgb(194,239,255)" font-family="'Lucida Sans'" stroke-dasharray="10,10" stroke="rgb(194,239,255)" stroke-width="1.1">
      <rect x="940" y="985" clip-path="url(#clipPath49)" width="20" height="40" stroke="none" />
      <rect x="940" y="985" clip-path="url(#clipPath49)" fill="none" width="19" stroke-dasharray="none" height="39" stroke-width="0.1" />
    </g>
    <g stroke-width="0.1" font-size="23" font-family="'Lucida Sans'" stroke-linecap="butt">
      <text xml:space="preserve" x="961" y="1007" clip-path="url(#clipPath50)" stroke="none">in06</text>
      <line clip-path="url(#clipPath51)" fill="none" x1="416" x2="244" y1="90" y2="90" stroke="rgb(136,136,136)" stroke-width="2.1" />
      <text x="173" y="85" clip-path="url(#clipPath52)" stroke="none" stroke-width="2.1" xml:space="preserve">oeCreateSystemAndEnvironment("4")</text>
      <line clip-path="url(#clipPath53)" fill="none" x1="251" x2="244" y1="87" y2="90" stroke="rgb(136,136,136)" stroke-width="2.1" />
      <line clip-path="url(#clipPath53)" fill="none" x1="244" x2="251" y1="90" y2="93" stroke="rgb(136,136,136)" stroke-width="2.1" />
      <line clip-path="url(#clipPath51)" fill="none" x1="533" x2="244" y1="150" y2="150" stroke="rgb(136,136,136)" stroke-width="2.1" />
      <text x="167" y="146" clip-path="url(#clipPath54)" stroke="none" stroke-width="2.1" xml:space="preserve">oeSetClock("2017:11:24 - 03:20:00")</text>
      <line clip-path="url(#clipPath55)" fill="none" x1="251" x2="244" y1="147" y2="150" stroke="rgb(136,136,136)" stroke-width="2.1" />
      <line clip-path="url(#clipPath55)" fill="none" x1="244" x2="251" y1="150" y2="153" stroke="rgb(136,136,136)" stroke-width="2.1" />
      <line clip-path="url(#clipPath51)" fill="none" x1="657" x2="244" y1="210" y2="210" stroke="rgb(136,136,136)" stroke-width="2.1" />
      <text x="167" y="203" clip-path="url(#clipPath56)" stroke="none" stroke-width="2.1" xml:space="preserve">oeLogin("icrashadmin","7WXC1359")</text>
      <line clip-path="url(#clipPath57)" fill="none" x1="251" x2="244" y1="207" y2="210" stroke="rgb(136,136,136)" stroke-width="2.1" />
      <line clip-path="url(#clipPath57)" fill="none" x1="244" x2="251" y1="210" y2="213" stroke="rgb(136,136,136)" stroke-width="2.1" />
      <line clip-path="url(#clipPath51)" fill="none" x1="657" x2="244" y1="330" y2="330" stroke="rgb(136,136,136)" stroke-width="2.1" />
      <text x="126" y="322" clip-path="url(#clipPath58)" stroke="none" stroke-width="2.1" xml:space="preserve">oeAddCoordinator("1","steve","pwdMessirExcalibur2017")</text>
      <line clip-path="url(#clipPath59)" fill="none" x1="251" x2="244" y1="327" y2="330" stroke="rgb(136,136,136)" stroke-width="2.1" />
      <line clip-path="url(#clipPath59)" fill="none" x1="244" x2="251" y1="330" y2="333" stroke="rgb(136,136,136)" stroke-width="2.1" />
      <line clip-path="url(#clipPath51)" fill="none" x1="657" x2="244" y1="450" y2="450" stroke="rgb(136,136,136)" stroke-width="2.1" />
      <text x="227" y="443" clip-path="url(#clipPath60)" stroke="none" stroke-width="2.1" xml:space="preserve">oeLogout()</text>
      <line clip-path="url(#clipPath61)" fill="none" x1="251" x2="244" y1="447" y2="450" stroke="rgb(136,136,136)" stroke-width="2.1" />
      <line clip-path="url(#clipPath61)" fill="none" x1="244" x2="251" y1="450" y2="453" stroke="rgb(136,136,136)" stroke-width="2.1" />
      <line clip-path="url(#clipPath51)" fill="none" x1="533" x2="244" y1="570" y2="570" stroke="rgb(136,136,136)" stroke-width="2.1" />
      <text x="168" y="565" clip-path="url(#clipPath62)" stroke="none" stroke-width="2.1" xml:space="preserve">oeSetClock("2017:11:26 - 10:15:00")</text>
      <line clip-path="url(#clipPath63)" fill="none" x1="251" x2="244" y1="567" y2="570" stroke="rgb(136,136,136)" stroke-width="2.1" />
      <line clip-path="url(#clipPath63)" fill="none" x1="244" x2="251" y1="570" y2="573" stroke="rgb(136,136,136)" stroke-width="2.1" />
      <line clip-path="url(#clipPath51)" fill="none" x1="799" x2="244" y1="665" y2="665" stroke="rgb(136,136,136)" stroke-width="2.1" />
      <text x="235" y="638" clip-path="url(#clipPath64)" stroke="none" stroke-width="2.1" xml:space="preserve">oeAlert("witness","2017:11:26","10:10:16","</text>
      <text x="237" y="665" clip-path="url(#clipPath65)" stroke="none" stroke-width="2.1" xml:space="preserve">+3524666445252","49.627675:6.15959...</text>
      <line clip-path="url(#clipPath66)" fill="none" x1="251" x2="244" y1="662" y2="665" stroke="rgb(136,136,136)" stroke-width="2.1" />
      <line clip-path="url(#clipPath66)" fill="none" x1="244" x2="251" y1="665" y2="668" stroke="rgb(136,136,136)" stroke-width="2.1" />
      <line clip-path="url(#clipPath51)" fill="none" x1="533" x2="244" y1="790" y2="790" stroke="rgb(136,136,136)" stroke-width="2.1" />
      <text x="165" y="780" clip-path="url(#clipPath67)" stroke="none" stroke-width="2.1" xml:space="preserve">oeSetClock("2017:11:26 - 10:30:00")</text>
      <line clip-path="url(#clipPath68)" fill="none" x1="251" x2="244" y1="787" y2="790" stroke="rgb(136,136,136)" stroke-width="2.1" />
      <line clip-path="url(#clipPath68)" fill="none" x1="244" x2="251" y1="790" y2="793" stroke="rgb(136,136,136)" stroke-width="2.1" />
      <line clip-path="url(#clipPath51)" fill="none" x1="533" x2="244" y1="850" y2="850" stroke="rgb(136,136,136)" stroke-width="2.1" />
      <text x="187" y="842" clip-path="url(#clipPath69)" stroke="none" stroke-width="2.1" xml:space="preserve">oeSollicitateCrisisHandling()</text>
      <line clip-path="url(#clipPath70)" fill="none" x1="251" x2="244" y1="847" y2="850" stroke="rgb(136,136,136)" stroke-width="2.1" />
      <line clip-path="url(#clipPath70)" fill="none" x1="244" x2="251" y1="850" y2="853" stroke="rgb(136,136,136)" stroke-width="2.1" />
    </g>
    <g stroke-linecap="butt" font-size="23" fill="rgb(136,136,136)" font-family="'Lucida Sans'" stroke-dasharray="5,5" stroke="rgb(136,136,136)" stroke-width="2.1">
      <line clip-path="url(#clipPath51)" fill="none" x1="657" x2="244" y1="259" y2="259" />
      <text x="165" y="253" clip-path="url(#clipPath71)" fill="black" stroke="none" xml:space="preserve">ieMessage(You are logged ! Welcome ...)</text>
      <line clip-path="url(#clipPath72)" fill="none" x1="650" x2="657" y1="262" y2="259" stroke-dasharray="none" />
      <line clip-path="url(#clipPath72)" fill="none" x1="657" x2="650" y1="259" y2="256" stroke-dasharray="none" />
      <line clip-path="url(#clipPath51)" fill="none" x1="657" x2="244" y1="382" y2="382" />
      <text x="188" y="377" clip-path="url(#clipPath73)" fill="black" stroke="none" xml:space="preserve">ieCoordinatorAddedreturned()</text>
      <line clip-path="url(#clipPath74)" fill="none" x1="650" x2="657" y1="385" y2="382" stroke-dasharray="none" />
      <line clip-path="url(#clipPath74)" fill="none" x1="657" x2="650" y1="382" y2="379" stroke-dasharray="none" />
      <line clip-path="url(#clipPath51)" fill="none" x1="657" x2="244" y1="500" y2="500" />
      <text x="155" y="495" clip-path="url(#clipPath75)" fill="black" stroke="none" xml:space="preserve">ieMessage(You are logged out ! Good Bye ...)</text>
      <line clip-path="url(#clipPath76)" fill="none" x1="650" x2="657" y1="503" y2="500" stroke-dasharray="none" />
      <line clip-path="url(#clipPath76)" fill="none" x1="657" x2="650" y1="500" y2="497" stroke-dasharray="none" />
      <line clip-path="url(#clipPath51)" fill="none" x1="799" x2="244" y1="730" y2="730" />
      <text x="24" y="726" clip-path="url(#clipPath77)" fill="black" stroke="none" xml:space="preserve">ieSmsSend(+3524666445252,Your alert has been registered. We will handle it and keep you informed)</text>
      <line clip-path="url(#clipPath78)" fill="none" x1="792" x2="799" y1="733" y2="730" stroke-dasharray="none" />
      <line clip-path="url(#clipPath78)" fill="none" x1="799" x2="792" y1="730" y2="727" stroke-dasharray="none" />
      <line clip-path="url(#clipPath51)" fill="none" x1="657" x2="244" y1="916" y2="916" />
      <text x="69" y="912" clip-path="url(#clipPath79)" fill="black" stroke="none" xml:space="preserve">ieMessage(There are alerts pending since more than the defined delay. Please REACT !)</text>
      <line clip-path="url(#clipPath80)" fill="none" x1="650" x2="657" y1="919" y2="916" stroke-dasharray="none" />
      <line clip-path="url(#clipPath80)" fill="none" x1="657" x2="650" y1="916" y2="913" stroke-dasharray="none" />
      <line clip-path="url(#clipPath51)" fill="none" x1="940" x2="244" y1="985" y2="985" />
      <text x="65" y="980" clip-path="url(#clipPath81)" fill="black" stroke="none" xml:space="preserve">ieMessage(There are alerts pending since more than the defined delay. Please REACT !)</text>
      <line clip-path="url(#clipPath82)" fill="none" x1="933" x2="940" y1="988" y2="985" stroke-dasharray="none" />
      <line clip-path="url(#clipPath82)" fill="none" x1="940" x2="933" y1="985" y2="982" stroke-dasharray="none" />
    </g>
  </g>
</svg>

