<?xml version="1.0" encoding="UTF-8"?>
<svg xmlns="http://www.w3.org/2000/svg" xmlns:xlink="http://www.w3.org/1999/xlink" stroke-dasharray="none" shape-rendering="auto" font-family="'Dialog'" width="1513" text-rendering="auto" fill-opacity="1" contentScriptType="text/ecmascript" color-interpolation="auto" color-rendering="auto" preserveAspectRatio="xMidYMid meet" font-size="12" viewBox="0 0 1513 1010" fill="black" stroke="black" image-rendering="auto" stroke-miterlimit="10" zoomAndPan="magnify" version="1.0" stroke-linecap="square" stroke-linejoin="miter" contentStyleType="text/css" font-style="normal" height="1010" stroke-width="1" stroke-dashoffset="0" font-weight="normal" stroke-opacity="1">
  <!--Generated by the Batik Graphics2D SVG Generator-->
  <defs id="genericDefs" />
  <g>
    <defs id="defs1">
      <clipPath clipPathUnits="userSpaceOnUse" id="clipPath1">
        <path d="M1009 9 L1116 9 L1116 61 L1009 61 L1009 9 Z" />
      </clipPath>
      <clipPath clipPathUnits="userSpaceOnUse" id="clipPath2">
        <path d="M1009 9 L1121 9 L1121 61 L1009 61 L1009 9 Z" />
      </clipPath>
      <clipPath clipPathUnits="userSpaceOnUse" id="clipPath3">
        <path d="M1056 59 L1068 59 L1068 1001 L1056 1001 L1056 59 Z" />
      </clipPath>
      <clipPath clipPathUnits="userSpaceOnUse" id="clipPath4">
        <path d="M1051 89 L1073 89 L1073 131 L1051 131 L1051 89 Z" />
      </clipPath>
      <clipPath clipPathUnits="userSpaceOnUse" id="clipPath5">
        <path d="M1072 89 L1137 89 L1137 118 L1072 118 L1072 89 Z" />
      </clipPath>
      <clipPath clipPathUnits="userSpaceOnUse" id="clipPath6">
        <path d="M1124 9 L1223 9 L1223 61 L1124 61 L1124 9 Z" />
      </clipPath>
      <clipPath clipPathUnits="userSpaceOnUse" id="clipPath7">
        <path d="M1124 9 L1228 9 L1228 61 L1124 61 L1124 9 Z" />
      </clipPath>
      <clipPath clipPathUnits="userSpaceOnUse" id="clipPath8">
        <path d="M1167 59 L1179 59 L1179 1001 L1167 1001 L1167 59 Z" />
      </clipPath>
      <clipPath clipPathUnits="userSpaceOnUse" id="clipPath9">
        <path d="M1162 149 L1184 149 L1184 191 L1162 191 L1162 149 Z" />
      </clipPath>
      <clipPath clipPathUnits="userSpaceOnUse" id="clipPath10">
        <path d="M1183 149 L1248 149 L1248 178 L1183 178 L1183 149 Z" />
      </clipPath>
      <clipPath clipPathUnits="userSpaceOnUse" id="clipPath11">
        <path d="M1162 555 L1184 555 L1184 597 L1162 597 L1162 555 Z" />
      </clipPath>
      <clipPath clipPathUnits="userSpaceOnUse" id="clipPath12">
        <path d="M1183 555 L1248 555 L1248 584 L1183 584 L1183 555 Z" />
      </clipPath>
      <clipPath clipPathUnits="userSpaceOnUse" id="clipPath13">
        <path d="M1162 789 L1184 789 L1184 831 L1162 831 L1162 789 Z" />
      </clipPath>
      <clipPath clipPathUnits="userSpaceOnUse" id="clipPath14">
        <path d="M1183 789 L1248 789 L1248 818 L1183 818 L1183 789 Z" />
      </clipPath>
      <clipPath clipPathUnits="userSpaceOnUse" id="clipPath15">
        <path d="M1231 9 L1360 9 L1360 61 L1231 61 L1231 9 Z" />
      </clipPath>
      <clipPath clipPathUnits="userSpaceOnUse" id="clipPath16">
        <path d="M1231 9 L1364 9 L1364 61 L1231 61 L1231 9 Z" />
      </clipPath>
      <clipPath clipPathUnits="userSpaceOnUse" id="clipPath17">
        <path d="M1231 9 L1365 9 L1365 61 L1231 61 L1231 9 Z" />
      </clipPath>
      <clipPath clipPathUnits="userSpaceOnUse" id="clipPath18">
        <path d="M1289 59 L1301 59 L1301 1001 L1289 1001 L1289 59 Z" />
      </clipPath>
      <clipPath clipPathUnits="userSpaceOnUse" id="clipPath19">
        <path d="M1284 209 L1306 209 L1306 251 L1284 251 L1284 209 Z" />
      </clipPath>
      <clipPath clipPathUnits="userSpaceOnUse" id="clipPath20">
        <path d="M1305 209 L1370 209 L1370 238 L1305 238 L1305 209 Z" />
      </clipPath>
      <clipPath clipPathUnits="userSpaceOnUse" id="clipPath21">
        <path d="M1284 329 L1306 329 L1306 371 L1284 371 L1284 329 Z" />
      </clipPath>
      <clipPath clipPathUnits="userSpaceOnUse" id="clipPath22">
        <path d="M1305 329 L1370 329 L1370 358 L1305 358 L1305 329 Z" />
      </clipPath>
      <clipPath clipPathUnits="userSpaceOnUse" id="clipPath23">
        <path d="M1284 449 L1306 449 L1306 491 L1284 491 L1284 449 Z" />
      </clipPath>
      <clipPath clipPathUnits="userSpaceOnUse" id="clipPath24">
        <path d="M1305 449 L1370 449 L1370 478 L1305 478 L1305 449 Z" />
      </clipPath>
      <clipPath clipPathUnits="userSpaceOnUse" id="clipPath25">
        <path d="M1284 255 L1306 255 L1306 297 L1284 297 L1284 255 Z" />
      </clipPath>
      <clipPath clipPathUnits="userSpaceOnUse" id="clipPath26">
        <path d="M1305 255 L1370 255 L1370 284 L1305 284 L1305 255 Z" />
      </clipPath>
      <clipPath clipPathUnits="userSpaceOnUse" id="clipPath27">
        <path d="M1284 374 L1306 374 L1306 416 L1284 416 L1284 374 Z" />
      </clipPath>
      <clipPath clipPathUnits="userSpaceOnUse" id="clipPath28">
        <path d="M1305 374 L1370 374 L1370 403 L1305 403 L1305 374 Z" />
      </clipPath>
      <clipPath clipPathUnits="userSpaceOnUse" id="clipPath29">
        <path d="M1284 499 L1306 499 L1306 541 L1284 541 L1284 499 Z" />
      </clipPath>
      <clipPath clipPathUnits="userSpaceOnUse" id="clipPath30">
        <path d="M1305 499 L1370 499 L1370 528 L1305 528 L1305 499 Z" />
      </clipPath>
      <clipPath clipPathUnits="userSpaceOnUse" id="clipPath31">
        <path d="M1284 849 L1306 849 L1306 891 L1284 891 L1284 849 Z" />
      </clipPath>
      <clipPath clipPathUnits="userSpaceOnUse" id="clipPath32">
        <path d="M1305 849 L1370 849 L1370 878 L1305 878 L1305 849 Z" />
      </clipPath>
      <clipPath clipPathUnits="userSpaceOnUse" id="clipPath33">
        <path d="M1368 9 L1501 9 L1501 61 L1368 61 L1368 9 Z" />
      </clipPath>
      <clipPath clipPathUnits="userSpaceOnUse" id="clipPath34">
        <path d="M1368 9 L1507 9 L1507 61 L1368 61 L1368 9 Z" />
      </clipPath>
      <clipPath clipPathUnits="userSpaceOnUse" id="clipPath35">
        <path d="M1368 9 L1506 9 L1506 61 L1368 61 L1368 9 Z" />
      </clipPath>
      <clipPath clipPathUnits="userSpaceOnUse" id="clipPath36">
        <path d="M1428 59 L1440 59 L1440 1001 L1428 1001 L1428 59 Z" />
      </clipPath>
      <clipPath clipPathUnits="userSpaceOnUse" id="clipPath37">
        <path d="M1423 650 L1445 650 L1445 692 L1423 692 L1423 650 Z" />
      </clipPath>
      <clipPath clipPathUnits="userSpaceOnUse" id="clipPath38">
        <path d="M1444 650 L1509 650 L1509 679 L1444 679 L1444 650 Z" />
      </clipPath>
      <clipPath clipPathUnits="userSpaceOnUse" id="clipPath39">
        <path d="M1423 729 L1445 729 L1445 771 L1423 771 L1423 729 Z" />
      </clipPath>
      <clipPath clipPathUnits="userSpaceOnUse" id="clipPath40">
        <path d="M1444 729 L1509 729 L1509 758 L1444 758 L1444 729 Z" />
      </clipPath>
      <clipPath clipPathUnits="userSpaceOnUse" id="clipPath41">
        <path d="M870 9 L1001 9 L1001 61 L870 61 L870 9 Z" />
      </clipPath>
      <clipPath clipPathUnits="userSpaceOnUse" id="clipPath42">
        <path d="M870 9 L1006 9 L1006 61 L870 61 L870 9 Z" />
      </clipPath>
      <clipPath clipPathUnits="userSpaceOnUse" id="clipPath43">
        <path d="M929 59 L941 59 L941 1001 L929 1001 L929 59 Z" />
      </clipPath>
      <clipPath clipPathUnits="userSpaceOnUse" id="clipPath44">
        <path d="M924 909 L946 909 L946 951 L924 951 L924 909 Z" />
      </clipPath>
      <clipPath clipPathUnits="userSpaceOnUse" id="clipPath45">
        <path d="M945 909 L1010 909 L1010 938 L945 938 L945 909 Z" />
      </clipPath>
      <clipPath clipPathUnits="userSpaceOnUse" id="clipPath46">
        <path d="M167 9 L239 9 L239 41 L167 41 L167 9 Z" />
      </clipPath>
      <clipPath clipPathUnits="userSpaceOnUse" id="clipPath47">
        <path d="M167 9 L243 9 L243 41 L167 41 L167 9 Z" />
      </clipPath>
      <clipPath clipPathUnits="userSpaceOnUse" id="clipPath48">
        <path d="M197 39 L209 39 L209 1001 L197 1001 L197 39 Z" />
      </clipPath>
      <clipPath clipPathUnits="userSpaceOnUse" id="clipPath49">
        <path d="M-1 -1 L1514 -1 L1514 1011 L-1 1011 L-1 -1 Z" />
      </clipPath>
      <clipPath clipPathUnits="userSpaceOnUse" id="clipPath50">
        <path d="M459 61 L858 61 L858 90 L459 90 L459 61 Z" />
      </clipPath>
      <clipPath clipPathUnits="userSpaceOnUse" id="clipPath51">
        <path d="M201 85 L213 85 L213 96 L201 96 L201 85 Z" />
      </clipPath>
      <clipPath clipPathUnits="userSpaceOnUse" id="clipPath52">
        <path d="M453 124 L863 124 L863 153 L453 153 L453 124 Z" />
      </clipPath>
      <clipPath clipPathUnits="userSpaceOnUse" id="clipPath53">
        <path d="M201 145 L213 145 L213 156 L201 156 L201 145 Z" />
      </clipPath>
      <clipPath clipPathUnits="userSpaceOnUse" id="clipPath54">
        <path d="M458 179 L836 179 L836 208 L458 208 L458 179 Z" />
      </clipPath>
      <clipPath clipPathUnits="userSpaceOnUse" id="clipPath55">
        <path d="M201 205 L213 205 L213 216 L201 216 L201 205 Z" />
      </clipPath>
      <clipPath clipPathUnits="userSpaceOnUse" id="clipPath56">
        <path d="M427 300 L1022 300 L1022 329 L427 329 L427 300 Z" />
      </clipPath>
      <clipPath clipPathUnits="userSpaceOnUse" id="clipPath57">
        <path d="M201 325 L213 325 L213 336 L201 336 L201 325 Z" />
      </clipPath>
      <clipPath clipPathUnits="userSpaceOnUse" id="clipPath58">
        <path d="M512 419 L637 419 L637 448 L512 448 L512 419 Z" />
      </clipPath>
      <clipPath clipPathUnits="userSpaceOnUse" id="clipPath59">
        <path d="M201 445 L213 445 L213 456 L201 456 L201 445 Z" />
      </clipPath>
      <clipPath clipPathUnits="userSpaceOnUse" id="clipPath60">
        <path d="M449 522 L859 522 L859 551 L449 551 L449 522 Z" />
      </clipPath>
      <clipPath clipPathUnits="userSpaceOnUse" id="clipPath61">
        <path d="M201 551 L213 551 L213 562 L201 562 L201 551 Z" />
      </clipPath>
      <clipPath clipPathUnits="userSpaceOnUse" id="clipPath62">
        <path d="M496 594 L965 594 L965 662 L496 662 L496 594 Z" />
      </clipPath>
      <clipPath clipPathUnits="userSpaceOnUse" id="clipPath63">
        <path d="M201 646 L213 646 L213 657 L201 657 L201 646 Z" />
      </clipPath>
      <clipPath clipPathUnits="userSpaceOnUse" id="clipPath64">
        <path d="M473 761 L794 761 L794 790 L473 790 L473 761 Z" />
      </clipPath>
      <clipPath clipPathUnits="userSpaceOnUse" id="clipPath65">
        <path d="M201 785 L213 785 L213 796 L201 796 L201 785 Z" />
      </clipPath>
      <clipPath clipPathUnits="userSpaceOnUse" id="clipPath66">
        <path d="M445 227 L899 227 L899 256 L445 256 L445 227 Z" />
      </clipPath>
      <clipPath clipPathUnits="userSpaceOnUse" id="clipPath67">
        <path d="M1276 251 L1288 251 L1288 262 L1276 262 L1276 251 Z" />
      </clipPath>
      <clipPath clipPathUnits="userSpaceOnUse" id="clipPath68">
        <path d="M485 345 L730 345 L730 374 L485 374 L485 345 Z" />
      </clipPath>
      <clipPath clipPathUnits="userSpaceOnUse" id="clipPath69">
        <path d="M1276 370 L1288 370 L1288 381 L1276 381 L1276 370 Z" />
      </clipPath>
      <clipPath clipPathUnits="userSpaceOnUse" id="clipPath70">
        <path d="M439 469 L941 469 L941 498 L439 498 L439 469 Z" />
      </clipPath>
      <clipPath clipPathUnits="userSpaceOnUse" id="clipPath71">
        <path d="M1276 495 L1288 495 L1288 506 L1276 506 L1276 495 Z" />
      </clipPath>
      <clipPath clipPathUnits="userSpaceOnUse" id="clipPath72">
        <path d="M306 697 L1461 697 L1461 726 L306 726 L306 697 Z" />
      </clipPath>
      <clipPath clipPathUnits="userSpaceOnUse" id="clipPath73">
        <path d="M1415 725 L1427 725 L1427 736 L1415 736 L1415 725 Z" />
      </clipPath>
      <clipPath clipPathUnits="userSpaceOnUse" id="clipPath74">
        <path d="M344 823 L1320 823 L1320 852 L344 852 L344 823 Z" />
      </clipPath>
      <clipPath clipPathUnits="userSpaceOnUse" id="clipPath75">
        <path d="M1276 845 L1288 845 L1288 856 L1276 856 L1276 845 Z" />
      </clipPath>
      <clipPath clipPathUnits="userSpaceOnUse" id="clipPath76">
        <path d="M23 878 L999 878 L999 907 L23 907 L23 878 Z" />
      </clipPath>
      <clipPath clipPathUnits="userSpaceOnUse" id="clipPath77">
        <path d="M916 905 L928 905 L928 916 L916 916 L916 905 Z" />
      </clipPath>
    </defs>
    <g font-size="23" fill="rgb(255,245,181)" font-family="'Lucida Sans'" stroke-linejoin="round" stroke="rgb(255,245,181)" stroke-width="0" stroke-miterlimit="0">
      <rect x="1010" y="10" clip-path="url(#clipPath1)" width="105" height="50" stroke="none" />
    </g>
    <g stroke-width="0.1" font-size="23" font-family="'Lucida Sans'" stroke-linecap="butt">
      <rect x="1010" y="10" clip-path="url(#clipPath1)" fill="none" width="104" height="49" />
      <text xml:space="preserve" x="1015" y="43" clip-path="url(#clipPath2)" stroke="none">theCre...</text>
      <line clip-path="url(#clipPath3)" fill="none" x1="1061" x2="1061" y1="60" y2="1000" stroke-dasharray="10,10" stroke-width="1.1" />
    </g>
    <g stroke-linecap="butt" font-size="23" fill="rgb(77,137,20)" font-family="'Lucida Sans'" stroke-dasharray="10,10" stroke="rgb(77,137,20)" stroke-width="1.1">
      <rect x="1052" y="90" clip-path="url(#clipPath4)" width="20" height="40" stroke="none" />
      <rect x="1053" y="91" clip-path="url(#clipPath4)" fill="none" width="18" stroke-dasharray="none" height="38" stroke-width="2.1" />
      <text x="1073" y="112" clip-path="url(#clipPath5)" stroke-dasharray="none" stroke="none" stroke-width="2.1" xml:space="preserve">tsi01</text>
    </g>
    <g stroke-linecap="butt" font-size="23" fill="rgb(255,245,181)" font-family="'Lucida Sans'" stroke="rgb(255,245,181)" stroke-width="2.1">
      <rect x="1125" y="10" clip-path="url(#clipPath6)" width="97" height="50" stroke="none" />
      <rect x="1125" y="10" clip-path="url(#clipPath6)" fill="none" width="96" height="49" stroke="black" stroke-width="0.1" />
      <text x="1126" y="43" clip-path="url(#clipPath7)" fill="black" stroke="none" stroke-width="0.1" xml:space="preserve">theClo...</text>
    </g>
    <g stroke-width="1.1" font-size="23" stroke-dasharray="10,10" font-family="'Lucida Sans'" stroke-linecap="butt">
      <line clip-path="url(#clipPath8)" fill="none" x1="1172" x2="1172" y1="60" y2="1000" />
      <rect x="1163" y="150" clip-path="url(#clipPath9)" fill="rgb(77,137,20)" width="20" height="40" stroke="none" />
    </g>
    <g stroke-linecap="butt" font-size="23" fill="rgb(77,137,20)" font-family="'Lucida Sans'" stroke="rgb(77,137,20)" stroke-width="2.1">
      <rect x="1164" y="151" clip-path="url(#clipPath9)" fill="none" width="18" height="38" />
      <text xml:space="preserve" x="1184" y="172" clip-path="url(#clipPath10)" stroke="none">tsi02</text>
      <rect x="1163" y="556" clip-path="url(#clipPath11)" width="20" height="40" stroke="none" />
      <rect x="1164" y="557" clip-path="url(#clipPath11)" fill="none" width="18" height="38" />
      <text xml:space="preserve" x="1184" y="578" clip-path="url(#clipPath12)" stroke="none">tsi06</text>
      <rect x="1163" y="790" clip-path="url(#clipPath13)" width="20" height="40" stroke="none" />
      <rect x="1164" y="791" clip-path="url(#clipPath13)" fill="none" width="18" height="38" />
      <text xml:space="preserve" x="1184" y="812" clip-path="url(#clipPath14)" stroke="none">tsi09</text>
      <rect x="1232" y="10" clip-path="url(#clipPath15)" fill="rgb(255,245,181)" width="127" height="50" stroke="none" />
      <rect x="1232" y="10" clip-path="url(#clipPath15)" fill="none" width="126" height="49" stroke="black" stroke-width="0.1" />
      <text x="1277" y="30" clip-path="url(#clipPath16)" fill="black" stroke="none" stroke-width="0.1" xml:space="preserve">bill</text>
      <text x="1235" y="57" clip-path="url(#clipPath17)" fill="black" stroke="none" stroke-width="0.1" xml:space="preserve">: actAdm...</text>
    </g>
    <g stroke-width="1.1" font-size="23" stroke-dasharray="10,10" font-family="'Lucida Sans'" stroke-linecap="butt">
      <line clip-path="url(#clipPath18)" fill="none" x1="1294" x2="1294" y1="60" y2="1000" />
      <rect x="1285" y="210" clip-path="url(#clipPath19)" fill="rgb(77,137,20)" width="20" height="40" stroke="none" />
    </g>
    <g stroke-linecap="butt" font-size="23" fill="rgb(77,137,20)" font-family="'Lucida Sans'" stroke="rgb(77,137,20)" stroke-width="2.1">
      <rect x="1286" y="211" clip-path="url(#clipPath19)" fill="none" width="18" height="38" />
      <text xml:space="preserve" x="1306" y="232" clip-path="url(#clipPath20)" stroke="none">tsi03</text>
      <rect x="1285" y="330" clip-path="url(#clipPath21)" width="20" height="40" stroke="none" />
      <rect x="1286" y="331" clip-path="url(#clipPath21)" fill="none" width="18" height="38" />
      <text xml:space="preserve" x="1306" y="352" clip-path="url(#clipPath22)" stroke="none">tsi04</text>
      <rect x="1285" y="450" clip-path="url(#clipPath23)" width="20" height="40" stroke="none" />
      <rect x="1286" y="451" clip-path="url(#clipPath23)" fill="none" width="18" height="38" />
      <text xml:space="preserve" x="1306" y="472" clip-path="url(#clipPath24)" stroke="none">tsi05</text>
      <rect x="1285" y="256" clip-path="url(#clipPath25)" fill="rgb(204,242,166)" width="20" height="40" stroke="none" />
      <rect x="1285" y="256" clip-path="url(#clipPath25)" fill="none" width="19" height="39" stroke="rgb(209,209,209)" stroke-width="0.1" />
      <text x="1306" y="278" clip-path="url(#clipPath26)" stroke="none" stroke-width="0.1" xml:space="preserve">tsi03</text>
      <rect x="1285" y="375" clip-path="url(#clipPath27)" fill="rgb(204,242,166)" width="20" height="40" stroke="none" stroke-width="0.1" />
      <rect x="1285" y="375" clip-path="url(#clipPath27)" fill="none" width="19" height="39" stroke="rgb(209,209,209)" stroke-width="0.1" />
      <text x="1306" y="397" clip-path="url(#clipPath28)" stroke="none" stroke-width="0.1" xml:space="preserve">tsi04</text>
      <rect x="1285" y="500" clip-path="url(#clipPath29)" fill="rgb(204,242,166)" width="20" height="40" stroke="none" stroke-width="0.1" />
      <rect x="1285" y="500" clip-path="url(#clipPath29)" fill="none" width="19" height="39" stroke="rgb(209,209,209)" stroke-width="0.1" />
      <text x="1306" y="522" clip-path="url(#clipPath30)" stroke="none" stroke-width="0.1" xml:space="preserve">tsi05</text>
      <rect x="1285" y="850" clip-path="url(#clipPath31)" fill="rgb(204,242,166)" width="20" height="40" stroke="none" stroke-width="0.1" />
      <rect x="1285" y="850" clip-path="url(#clipPath31)" fill="none" width="19" height="39" stroke="rgb(209,209,209)" stroke-width="0.1" />
      <text x="1306" y="872" clip-path="url(#clipPath32)" stroke="none" stroke-width="0.1" xml:space="preserve">tsi09</text>
      <rect x="1369" y="10" clip-path="url(#clipPath33)" fill="rgb(255,245,181)" width="131" height="50" stroke="none" stroke-width="0.1" />
      <rect x="1369" y="10" clip-path="url(#clipPath33)" fill="none" width="130" height="49" stroke="black" stroke-width="0.1" />
      <text x="1402" y="30" clip-path="url(#clipPath34)" fill="black" stroke="none" stroke-width="0.1" xml:space="preserve">tango</text>
      <text x="1374" y="57" clip-path="url(#clipPath35)" fill="black" stroke="none" stroke-width="0.1" xml:space="preserve">: actCom...</text>
    </g>
    <g stroke-width="1.1" font-size="23" stroke-dasharray="10,10" font-family="'Lucida Sans'" stroke-linecap="butt">
      <line clip-path="url(#clipPath36)" fill="none" x1="1433" x2="1433" y1="60" y2="1000" />
      <rect x="1424" y="651" clip-path="url(#clipPath37)" fill="rgb(77,137,20)" width="20" height="40" stroke="none" />
    </g>
    <g stroke-linecap="butt" font-size="23" fill="rgb(77,137,20)" font-family="'Lucida Sans'" stroke="rgb(77,137,20)" stroke-width="2.1">
      <rect x="1425" y="652" clip-path="url(#clipPath37)" fill="none" width="18" height="38" />
      <text xml:space="preserve" x="1445" y="673" clip-path="url(#clipPath38)" stroke="none">tsi07</text>
      <rect x="1424" y="730" clip-path="url(#clipPath39)" fill="rgb(204,242,166)" width="20" height="40" stroke="none" />
      <rect x="1424" y="730" clip-path="url(#clipPath39)" fill="none" width="19" height="39" stroke="rgb(209,209,209)" stroke-width="0.1" />
      <text x="1445" y="752" clip-path="url(#clipPath40)" stroke="none" stroke-width="0.1" xml:space="preserve">tsi07</text>
      <rect x="871" y="10" clip-path="url(#clipPath41)" fill="rgb(255,245,181)" width="129" height="50" stroke="none" stroke-width="0.1" />
      <rect x="871" y="10" clip-path="url(#clipPath41)" fill="none" width="128" height="49" stroke="black" stroke-width="0.1" />
      <text x="905" y="30" clip-path="url(#clipPath42)" fill="black" stroke="none" stroke-width="0.1" xml:space="preserve">steve</text>
      <text x="874" y="57" clip-path="url(#clipPath42)" fill="black" stroke="none" stroke-width="0.1" xml:space="preserve">: actCoor...</text>
    </g>
    <g stroke-width="1.1" font-size="23" stroke-dasharray="10,10" font-family="'Lucida Sans'" stroke-linecap="butt">
      <line clip-path="url(#clipPath43)" fill="none" x1="934" x2="934" y1="60" y2="1000" />
      <rect x="925" y="910" clip-path="url(#clipPath44)" fill="rgb(204,242,166)" width="20" height="40" stroke="none" />
    </g>
    <g stroke-linecap="butt" font-size="23" fill="rgb(209,209,209)" font-family="'Lucida Sans'" stroke="rgb(209,209,209)" stroke-width="0.1">
      <rect x="925" y="910" clip-path="url(#clipPath44)" fill="none" width="19" height="39" />
      <text x="946" y="932" clip-path="url(#clipPath45)" fill="rgb(77,137,20)" stroke="none" xml:space="preserve">tsi09</text>
      <rect x="168" y="10" clip-path="url(#clipPath46)" fill="rgb(238,201,142)" width="70" height="30" stroke="none" />
      <rect x="168" y="10" clip-path="url(#clipPath46)" fill="none" width="69" height="29" stroke="black" />
      <text x="170" y="33" clip-path="url(#clipPath47)" fill="black" stroke="none" xml:space="preserve">Syst...</text>
    </g>
    <g stroke-width="1.1" font-size="23" stroke-dasharray="10,10" font-family="'Lucida Sans'" stroke-linecap="butt">
      <line clip-path="url(#clipPath48)" fill="none" x1="202" x2="202" y1="40" y2="1000" />
    </g>
    <g stroke-linecap="butt" font-size="23" fill="rgb(136,136,136)" font-family="'Lucida Sans'" stroke="rgb(136,136,136)" stroke-width="2.1">
      <line clip-path="url(#clipPath49)" fill="none" x1="1052" x2="203" y1="90" y2="90" />
      <text x="460" y="84" clip-path="url(#clipPath50)" fill="black" stroke="none" xml:space="preserve">oeCreateSystemAndEnvironment(4)</text>
      <line clip-path="url(#clipPath51)" fill="none" x1="210" x2="203" y1="87" y2="90" />
      <line clip-path="url(#clipPath51)" fill="none" x1="203" x2="210" y1="90" y2="93" />
      <line clip-path="url(#clipPath49)" fill="none" x1="1163" x2="203" y1="150" y2="150" />
      <text x="454" y="147" clip-path="url(#clipPath52)" fill="black" stroke="none" xml:space="preserve">oeSetClock(2017:11:24 - 03:20:00)</text>
      <line clip-path="url(#clipPath53)" fill="none" x1="210" x2="203" y1="147" y2="150" />
      <line clip-path="url(#clipPath53)" fill="none" x1="203" x2="210" y1="150" y2="153" />
      <line clip-path="url(#clipPath49)" fill="none" x1="1285" x2="203" y1="210" y2="210" />
      <text x="459" y="202" clip-path="url(#clipPath54)" fill="black" stroke="none" xml:space="preserve">oeLogin(icrashadmin,7WXC1359)</text>
      <line clip-path="url(#clipPath55)" fill="none" x1="210" x2="203" y1="207" y2="210" />
      <line clip-path="url(#clipPath55)" fill="none" x1="203" x2="210" y1="210" y2="213" />
      <line clip-path="url(#clipPath49)" fill="none" x1="1285" x2="203" y1="330" y2="330" />
      <text x="428" y="323" clip-path="url(#clipPath56)" fill="black" stroke="none" xml:space="preserve">oeAddCoordinator(1,steve,pwdMessirExcalibur2017)</text>
      <line clip-path="url(#clipPath57)" fill="none" x1="210" x2="203" y1="327" y2="330" />
      <line clip-path="url(#clipPath57)" fill="none" x1="203" x2="210" y1="330" y2="333" />
      <line clip-path="url(#clipPath49)" fill="none" x1="1285" x2="203" y1="450" y2="450" />
      <text x="513" y="442" clip-path="url(#clipPath58)" fill="black" stroke="none" xml:space="preserve">oeLogout()</text>
      <line clip-path="url(#clipPath59)" fill="none" x1="210" x2="203" y1="447" y2="450" />
      <line clip-path="url(#clipPath59)" fill="none" x1="203" x2="210" y1="450" y2="453" />
      <line clip-path="url(#clipPath49)" fill="none" x1="1163" x2="203" y1="556" y2="556" />
      <text x="450" y="545" clip-path="url(#clipPath60)" fill="black" stroke="none" xml:space="preserve">oeSetClock(2017:11:26 - 10:15:00)</text>
      <line clip-path="url(#clipPath61)" fill="none" x1="210" x2="203" y1="553" y2="556" />
      <line clip-path="url(#clipPath61)" fill="none" x1="203" x2="210" y1="556" y2="559" />
      <line clip-path="url(#clipPath49)" fill="none" x1="1424" x2="203" y1="651" y2="651" />
      <text x="511" y="623" clip-path="url(#clipPath62)" fill="black" stroke="none" xml:space="preserve">oeAlert(witness,2017:11:26,10:10:16,</text>
      <text x="499" y="650" clip-path="url(#clipPath62)" fill="black" stroke="none" xml:space="preserve">+3524666445252,49.627675:6.1595...</text>
      <line clip-path="url(#clipPath63)" fill="none" x1="210" x2="203" y1="648" y2="651" />
      <line clip-path="url(#clipPath63)" fill="none" x1="203" x2="210" y1="651" y2="654" />
      <line clip-path="url(#clipPath49)" fill="none" x1="1163" x2="203" y1="790" y2="790" />
      <text x="474" y="784" clip-path="url(#clipPath64)" fill="black" stroke="none" xml:space="preserve">oeSollicitateCrisisHandling()</text>
      <line clip-path="url(#clipPath65)" fill="none" x1="210" x2="203" y1="787" y2="790" />
      <line clip-path="url(#clipPath65)" fill="none" x1="203" x2="210" y1="790" y2="793" />
      <line clip-path="url(#clipPath49)" fill="none" x1="1285" x2="203" y1="256" y2="256" stroke-dasharray="5,5" />
      <text x="446" y="250" clip-path="url(#clipPath66)" fill="black" stroke-dasharray="5,5" stroke="none" xml:space="preserve">ieMessage(You are logged ! Welcome ...)</text>
      <line clip-path="url(#clipPath67)" fill="none" x1="1278" x2="1285" y1="259" y2="256" />
      <line clip-path="url(#clipPath67)" fill="none" x1="1285" x2="1278" y1="256" y2="253" />
      <line clip-path="url(#clipPath49)" fill="none" x1="1285" x2="203" y1="375" y2="375" stroke-dasharray="5,5" />
      <text x="486" y="368" clip-path="url(#clipPath68)" fill="black" stroke-dasharray="5,5" stroke="none" xml:space="preserve">ieCoordinatorAdded()</text>
      <line clip-path="url(#clipPath69)" fill="none" x1="1278" x2="1285" y1="378" y2="375" />
      <line clip-path="url(#clipPath69)" fill="none" x1="1285" x2="1278" y1="375" y2="372" />
      <line clip-path="url(#clipPath49)" fill="none" x1="1285" x2="203" y1="500" y2="500" stroke-dasharray="5,5" />
      <text x="440" y="492" clip-path="url(#clipPath70)" fill="black" stroke-dasharray="5,5" stroke="none" xml:space="preserve">ieMessage(You are logged out ! Good Bye ...)</text>
      <line clip-path="url(#clipPath71)" fill="none" x1="1278" x2="1285" y1="503" y2="500" />
      <line clip-path="url(#clipPath71)" fill="none" x1="1285" x2="1278" y1="500" y2="497" />
      <line clip-path="url(#clipPath49)" fill="none" x1="1424" x2="203" y1="730" y2="730" stroke-dasharray="5,5" />
      <text x="307" y="720" clip-path="url(#clipPath72)" fill="black" stroke-dasharray="5,5" stroke="none" xml:space="preserve">ieSmsSend(+3524666445252,Your alert has been registered. We will handle it and keep you informed)</text>
      <line clip-path="url(#clipPath73)" fill="none" x1="1417" x2="1424" y1="733" y2="730" />
      <line clip-path="url(#clipPath73)" fill="none" x1="1424" x2="1417" y1="730" y2="727" />
      <line clip-path="url(#clipPath49)" fill="none" x1="1285" x2="203" y1="850" y2="850" stroke-dasharray="5,5" />
      <text x="345" y="846" clip-path="url(#clipPath74)" fill="black" stroke-dasharray="5,5" stroke="none" xml:space="preserve">ieMessage(There are alerts pending since more than the defined delay. Please REACT !)</text>
      <line clip-path="url(#clipPath75)" fill="none" x1="1278" x2="1285" y1="853" y2="850" />
      <line clip-path="url(#clipPath75)" fill="none" x1="1285" x2="1278" y1="850" y2="847" />
      <line clip-path="url(#clipPath49)" fill="none" x1="925" x2="203" y1="910" y2="910" stroke-dasharray="5,5" />
      <text x="24" y="901" clip-path="url(#clipPath76)" fill="black" stroke-dasharray="5,5" stroke="none" xml:space="preserve">ieMessage(There are alerts pending since more than the defined delay. Please REACT !)</text>
      <line clip-path="url(#clipPath77)" fill="none" x1="918" x2="925" y1="913" y2="910" />
      <line clip-path="url(#clipPath77)" fill="none" x1="925" x2="918" y1="910" y2="907" />
    </g>
  </g>
</svg>

