<?xml version="1.0" encoding="UTF-8"?>
<svg xmlns="http://www.w3.org/2000/svg" xmlns:xlink="http://www.w3.org/1999/xlink" stroke-dasharray="none" shape-rendering="auto" font-family="'Dialog'" width="1352" text-rendering="auto" fill-opacity="1" contentScriptType="text/ecmascript" color-interpolation="auto" color-rendering="auto" preserveAspectRatio="xMidYMid meet" font-size="12" viewBox="0 0 1352 1010" fill="black" stroke="black" image-rendering="auto" stroke-miterlimit="10" zoomAndPan="magnify" version="1.0" stroke-linecap="square" stroke-linejoin="miter" contentStyleType="text/css" font-style="normal" height="1010" stroke-width="1" stroke-dashoffset="0" font-weight="normal" stroke-opacity="1">
  <!--Generated by the Batik Graphics2D SVG Generator-->
  <defs id="genericDefs" />
  <g>
    <defs id="defs1">
      <clipPath clipPathUnits="userSpaceOnUse" id="clipPath1">
        <path d="M851 9 L958 9 L958 61 L851 61 L851 9 Z" />
      </clipPath>
      <clipPath clipPathUnits="userSpaceOnUse" id="clipPath2">
        <path d="M851 9 L961 9 L961 61 L851 61 L851 9 Z" />
      </clipPath>
      <clipPath clipPathUnits="userSpaceOnUse" id="clipPath3">
        <path d="M898 59 L910 59 L910 1001 L898 1001 L898 59 Z" />
      </clipPath>
      <clipPath clipPathUnits="userSpaceOnUse" id="clipPath4">
        <path d="M893 89 L915 89 L915 131 L893 131 L893 89 Z" />
      </clipPath>
      <clipPath clipPathUnits="userSpaceOnUse" id="clipPath5">
        <path d="M914 89 L953 89 L953 107 L914 107 L914 89 Z" />
      </clipPath>
      <clipPath clipPathUnits="userSpaceOnUse" id="clipPath6">
        <path d="M966 9 L1065 9 L1065 61 L966 61 L966 9 Z" />
      </clipPath>
      <clipPath clipPathUnits="userSpaceOnUse" id="clipPath7">
        <path d="M966 9 L1068 9 L1068 61 L966 61 L966 9 Z" />
      </clipPath>
      <clipPath clipPathUnits="userSpaceOnUse" id="clipPath8">
        <path d="M1009 59 L1021 59 L1021 1001 L1009 1001 L1009 59 Z" />
      </clipPath>
      <clipPath clipPathUnits="userSpaceOnUse" id="clipPath9">
        <path d="M1004 149 L1026 149 L1026 191 L1004 191 L1004 149 Z" />
      </clipPath>
      <clipPath clipPathUnits="userSpaceOnUse" id="clipPath10">
        <path d="M1025 149 L1064 149 L1064 167 L1025 167 L1025 149 Z" />
      </clipPath>
      <clipPath clipPathUnits="userSpaceOnUse" id="clipPath11">
        <path d="M1004 555 L1026 555 L1026 597 L1004 597 L1004 555 Z" />
      </clipPath>
      <clipPath clipPathUnits="userSpaceOnUse" id="clipPath12">
        <path d="M1025 555 L1064 555 L1064 573 L1025 573 L1025 555 Z" />
      </clipPath>
      <clipPath clipPathUnits="userSpaceOnUse" id="clipPath13">
        <path d="M1004 789 L1026 789 L1026 831 L1004 831 L1004 789 Z" />
      </clipPath>
      <clipPath clipPathUnits="userSpaceOnUse" id="clipPath14">
        <path d="M1025 789 L1064 789 L1064 807 L1025 807 L1025 789 Z" />
      </clipPath>
      <clipPath clipPathUnits="userSpaceOnUse" id="clipPath15">
        <path d="M1073 9 L1202 9 L1202 61 L1073 61 L1073 9 Z" />
      </clipPath>
      <clipPath clipPathUnits="userSpaceOnUse" id="clipPath16">
        <path d="M1073 9 L1204 9 L1204 61 L1073 61 L1073 9 Z" />
      </clipPath>
      <clipPath clipPathUnits="userSpaceOnUse" id="clipPath17">
        <path d="M1073 9 L1205 9 L1205 61 L1073 61 L1073 9 Z" />
      </clipPath>
      <clipPath clipPathUnits="userSpaceOnUse" id="clipPath18">
        <path d="M1131 59 L1143 59 L1143 1001 L1131 1001 L1131 59 Z" />
      </clipPath>
      <clipPath clipPathUnits="userSpaceOnUse" id="clipPath19">
        <path d="M1126 209 L1148 209 L1148 251 L1126 251 L1126 209 Z" />
      </clipPath>
      <clipPath clipPathUnits="userSpaceOnUse" id="clipPath20">
        <path d="M1147 209 L1186 209 L1186 227 L1147 227 L1147 209 Z" />
      </clipPath>
      <clipPath clipPathUnits="userSpaceOnUse" id="clipPath21">
        <path d="M1126 329 L1148 329 L1148 371 L1126 371 L1126 329 Z" />
      </clipPath>
      <clipPath clipPathUnits="userSpaceOnUse" id="clipPath22">
        <path d="M1147 329 L1186 329 L1186 347 L1147 347 L1147 329 Z" />
      </clipPath>
      <clipPath clipPathUnits="userSpaceOnUse" id="clipPath23">
        <path d="M1126 449 L1148 449 L1148 491 L1126 491 L1126 449 Z" />
      </clipPath>
      <clipPath clipPathUnits="userSpaceOnUse" id="clipPath24">
        <path d="M1147 449 L1186 449 L1186 467 L1147 467 L1147 449 Z" />
      </clipPath>
      <clipPath clipPathUnits="userSpaceOnUse" id="clipPath25">
        <path d="M1126 255 L1148 255 L1148 297 L1126 297 L1126 255 Z" />
      </clipPath>
      <clipPath clipPathUnits="userSpaceOnUse" id="clipPath26">
        <path d="M1147 255 L1186 255 L1186 273 L1147 273 L1147 255 Z" />
      </clipPath>
      <clipPath clipPathUnits="userSpaceOnUse" id="clipPath27">
        <path d="M1126 374 L1148 374 L1148 416 L1126 416 L1126 374 Z" />
      </clipPath>
      <clipPath clipPathUnits="userSpaceOnUse" id="clipPath28">
        <path d="M1147 374 L1186 374 L1186 392 L1147 392 L1147 374 Z" />
      </clipPath>
      <clipPath clipPathUnits="userSpaceOnUse" id="clipPath29">
        <path d="M1126 499 L1148 499 L1148 541 L1126 541 L1126 499 Z" />
      </clipPath>
      <clipPath clipPathUnits="userSpaceOnUse" id="clipPath30">
        <path d="M1147 499 L1186 499 L1186 517 L1147 517 L1147 499 Z" />
      </clipPath>
      <clipPath clipPathUnits="userSpaceOnUse" id="clipPath31">
        <path d="M1126 849 L1148 849 L1148 891 L1126 891 L1126 849 Z" />
      </clipPath>
      <clipPath clipPathUnits="userSpaceOnUse" id="clipPath32">
        <path d="M1147 849 L1186 849 L1186 867 L1147 867 L1147 849 Z" />
      </clipPath>
      <clipPath clipPathUnits="userSpaceOnUse" id="clipPath33">
        <path d="M1210 9 L1343 9 L1343 61 L1210 61 L1210 9 Z" />
      </clipPath>
      <clipPath clipPathUnits="userSpaceOnUse" id="clipPath34">
        <path d="M1210 9 L1347 9 L1347 61 L1210 61 L1210 9 Z" />
      </clipPath>
      <clipPath clipPathUnits="userSpaceOnUse" id="clipPath35">
        <path d="M1270 59 L1282 59 L1282 1001 L1270 1001 L1270 59 Z" />
      </clipPath>
      <clipPath clipPathUnits="userSpaceOnUse" id="clipPath36">
        <path d="M1265 650 L1287 650 L1287 692 L1265 692 L1265 650 Z" />
      </clipPath>
      <clipPath clipPathUnits="userSpaceOnUse" id="clipPath37">
        <path d="M1286 650 L1325 650 L1325 668 L1286 668 L1286 650 Z" />
      </clipPath>
      <clipPath clipPathUnits="userSpaceOnUse" id="clipPath38">
        <path d="M1265 729 L1287 729 L1287 771 L1265 771 L1265 729 Z" />
      </clipPath>
      <clipPath clipPathUnits="userSpaceOnUse" id="clipPath39">
        <path d="M1286 729 L1325 729 L1325 747 L1286 747 L1286 729 Z" />
      </clipPath>
      <clipPath clipPathUnits="userSpaceOnUse" id="clipPath40">
        <path d="M712 9 L843 9 L843 61 L712 61 L712 9 Z" />
      </clipPath>
      <clipPath clipPathUnits="userSpaceOnUse" id="clipPath41">
        <path d="M712 9 L846 9 L846 61 L712 61 L712 9 Z" />
      </clipPath>
      <clipPath clipPathUnits="userSpaceOnUse" id="clipPath42">
        <path d="M771 59 L783 59 L783 1001 L771 1001 L771 59 Z" />
      </clipPath>
      <clipPath clipPathUnits="userSpaceOnUse" id="clipPath43">
        <path d="M766 909 L788 909 L788 951 L766 951 L766 909 Z" />
      </clipPath>
      <clipPath clipPathUnits="userSpaceOnUse" id="clipPath44">
        <path d="M787 909 L826 909 L826 927 L787 927 L787 909 Z" />
      </clipPath>
      <clipPath clipPathUnits="userSpaceOnUse" id="clipPath45">
        <path d="M9 9 L81 9 L81 41 L9 41 L9 9 Z" />
      </clipPath>
      <clipPath clipPathUnits="userSpaceOnUse" id="clipPath46">
        <path d="M9 9 L85 9 L85 41 L9 41 L9 9 Z" />
      </clipPath>
      <clipPath clipPathUnits="userSpaceOnUse" id="clipPath47">
        <path d="M39 39 L51 39 L51 1001 L39 1001 L39 39 Z" />
      </clipPath>
      <clipPath clipPathUnits="userSpaceOnUse" id="clipPath48">
        <path d="M-1 -1 L1353 -1 L1353 1011 L-1 1011 L-1 -1 Z" />
      </clipPath>
      <clipPath clipPathUnits="userSpaceOnUse" id="clipPath49">
        <path d="M374 66 L623 66 L623 84 L374 84 L374 66 Z" />
      </clipPath>
      <clipPath clipPathUnits="userSpaceOnUse" id="clipPath50">
        <path d="M43 85 L55 85 L55 96 L43 96 L43 85 Z" />
      </clipPath>
      <clipPath clipPathUnits="userSpaceOnUse" id="clipPath51">
        <path d="M374 129 L623 129 L623 147 L374 147 L374 129 Z" />
      </clipPath>
      <clipPath clipPathUnits="userSpaceOnUse" id="clipPath52">
        <path d="M43 145 L55 145 L55 156 L43 156 L43 145 Z" />
      </clipPath>
      <clipPath clipPathUnits="userSpaceOnUse" id="clipPath53">
        <path d="M371 184 L605 184 L605 202 L371 202 L371 184 Z" />
      </clipPath>
      <clipPath clipPathUnits="userSpaceOnUse" id="clipPath54">
        <path d="M43 205 L55 205 L55 216 L43 216 L43 205 Z" />
      </clipPath>
      <clipPath clipPathUnits="userSpaceOnUse" id="clipPath55">
        <path d="M380 305 L749 305 L749 323 L380 323 L380 305 Z" />
      </clipPath>
      <clipPath clipPathUnits="userSpaceOnUse" id="clipPath56">
        <path d="M43 325 L55 325 L55 336 L43 336 L43 325 Z" />
      </clipPath>
      <clipPath clipPathUnits="userSpaceOnUse" id="clipPath57">
        <path d="M376 424 L456 424 L456 442 L376 442 L376 424 Z" />
      </clipPath>
      <clipPath clipPathUnits="userSpaceOnUse" id="clipPath58">
        <path d="M43 445 L55 445 L55 456 L43 456 L43 445 Z" />
      </clipPath>
      <clipPath clipPathUnits="userSpaceOnUse" id="clipPath59">
        <path d="M370 527 L619 527 L619 545 L370 545 L370 527 Z" />
      </clipPath>
      <clipPath clipPathUnits="userSpaceOnUse" id="clipPath60">
        <path d="M43 551 L55 551 L55 562 L43 562 L43 551 Z" />
      </clipPath>
      <clipPath clipPathUnits="userSpaceOnUse" id="clipPath61">
        <path d="M338 594 L804 594 L804 662 L338 662 L338 594 Z" />
      </clipPath>
      <clipPath clipPathUnits="userSpaceOnUse" id="clipPath62">
        <path d="M43 646 L55 646 L55 657 L43 657 L43 646 Z" />
      </clipPath>
      <clipPath clipPathUnits="userSpaceOnUse" id="clipPath63">
        <path d="M376 766 L574 766 L574 784 L376 784 L376 766 Z" />
      </clipPath>
      <clipPath clipPathUnits="userSpaceOnUse" id="clipPath64">
        <path d="M43 785 L55 785 L55 796 L43 796 L43 785 Z" />
      </clipPath>
      <clipPath clipPathUnits="userSpaceOnUse" id="clipPath65">
        <path d="M373 232 L653 232 L653 250 L373 250 L373 232 Z" />
      </clipPath>
      <clipPath clipPathUnits="userSpaceOnUse" id="clipPath66">
        <path d="M1118 251 L1130 251 L1130 262 L1118 262 L1118 251 Z" />
      </clipPath>
      <clipPath clipPathUnits="userSpaceOnUse" id="clipPath67">
        <path d="M371 350 L527 350 L527 368 L371 368 L371 350 Z" />
      </clipPath>
      <clipPath clipPathUnits="userSpaceOnUse" id="clipPath68">
        <path d="M1118 370 L1130 370 L1130 381 L1118 381 L1118 370 Z" />
      </clipPath>
      <clipPath clipPathUnits="userSpaceOnUse" id="clipPath69">
        <path d="M376 474 L686 474 L686 492 L376 492 L376 474 Z" />
      </clipPath>
      <clipPath clipPathUnits="userSpaceOnUse" id="clipPath70">
        <path d="M1118 495 L1130 495 L1130 506 L1118 506 L1118 495 Z" />
      </clipPath>
      <clipPath clipPathUnits="userSpaceOnUse" id="clipPath71">
        <path d="M369 702 L1080 702 L1080 720 L369 720 L369 702 Z" />
      </clipPath>
      <clipPath clipPathUnits="userSpaceOnUse" id="clipPath72">
        <path d="M1257 725 L1269 725 L1269 736 L1257 736 L1257 725 Z" />
      </clipPath>
      <clipPath clipPathUnits="userSpaceOnUse" id="clipPath73">
        <path d="M373 828 L973 828 L973 846 L373 846 L373 828 Z" />
      </clipPath>
      <clipPath clipPathUnits="userSpaceOnUse" id="clipPath74">
        <path d="M1118 845 L1130 845 L1130 856 L1118 856 L1118 845 Z" />
      </clipPath>
      <clipPath clipPathUnits="userSpaceOnUse" id="clipPath75">
        <path d="M52 883 L652 883 L652 901 L52 901 L52 883 Z" />
      </clipPath>
      <clipPath clipPathUnits="userSpaceOnUse" id="clipPath76">
        <path d="M758 905 L770 905 L770 916 L758 916 L758 905 Z" />
      </clipPath>
    </defs>
    <g font-size="14" fill="rgb(255,245,181)" font-family="'Lucida Sans'" stroke-linejoin="round" stroke="rgb(255,245,181)" stroke-width="0" stroke-miterlimit="0">
      <rect x="852" y="10" clip-path="url(#clipPath1)" width="105" height="50" stroke="none" />
    </g>
    <g stroke-width="0.1" font-size="14" font-family="'Lucida Sans'" stroke-linecap="butt">
      <rect x="852" y="10" clip-path="url(#clipPath1)" fill="none" width="104" height="49" />
      <text xml:space="preserve" x="867" y="33" clip-path="url(#clipPath2)" stroke="none">theCreator</text>
      <text xml:space="preserve" x="852" y="49" clip-path="url(#clipPath2)" stroke="none">: actMsrCreator</text>
      <line clip-path="url(#clipPath3)" fill="none" x1="903" x2="903" y1="60" y2="1000" stroke-dasharray="10,10" stroke-width="1.1" />
    </g>
    <g stroke-linecap="butt" font-size="14" fill="rgb(77,137,20)" font-family="'Lucida Sans'" stroke-dasharray="10,10" stroke="rgb(77,137,20)" stroke-width="1.1">
      <rect x="894" y="90" clip-path="url(#clipPath4)" width="20" height="40" stroke="none" />
      <rect x="895" y="91" clip-path="url(#clipPath4)" fill="none" width="18" stroke-dasharray="none" height="38" stroke-width="2.1" />
      <text x="915" y="104" clip-path="url(#clipPath5)" stroke-dasharray="none" stroke="none" stroke-width="2.1" xml:space="preserve">tsi01</text>
    </g>
    <g stroke-linecap="butt" font-size="14" fill="rgb(255,245,181)" font-family="'Lucida Sans'" stroke="rgb(255,245,181)" stroke-width="2.1">
      <rect x="967" y="10" clip-path="url(#clipPath6)" width="97" height="50" stroke="none" />
      <rect x="967" y="10" clip-path="url(#clipPath6)" fill="none" width="96" height="49" stroke="black" stroke-width="0.1" />
      <text x="985" y="33" clip-path="url(#clipPath7)" fill="black" stroke="none" stroke-width="0.1" xml:space="preserve">theClock</text>
      <text x="971" y="49" clip-path="url(#clipPath7)" fill="black" stroke="none" stroke-width="0.1" xml:space="preserve">: actActivator</text>
    </g>
    <g stroke-width="1.1" font-size="14" stroke-dasharray="10,10" font-family="'Lucida Sans'" stroke-linecap="butt">
      <line clip-path="url(#clipPath8)" fill="none" x1="1014" x2="1014" y1="60" y2="1000" />
      <rect x="1005" y="150" clip-path="url(#clipPath9)" fill="rgb(77,137,20)" width="20" height="40" stroke="none" />
    </g>
    <g stroke-linecap="butt" font-size="14" fill="rgb(77,137,20)" font-family="'Lucida Sans'" stroke="rgb(77,137,20)" stroke-width="2.1">
      <rect x="1006" y="151" clip-path="url(#clipPath9)" fill="none" width="18" height="38" />
      <text xml:space="preserve" x="1026" y="164" clip-path="url(#clipPath10)" stroke="none">tsi02</text>
      <rect x="1005" y="556" clip-path="url(#clipPath11)" width="20" height="40" stroke="none" />
      <rect x="1006" y="557" clip-path="url(#clipPath11)" fill="none" width="18" height="38" />
      <text xml:space="preserve" x="1026" y="570" clip-path="url(#clipPath12)" stroke="none">tsi06</text>
      <rect x="1005" y="790" clip-path="url(#clipPath13)" width="20" height="40" stroke="none" />
      <rect x="1006" y="791" clip-path="url(#clipPath13)" fill="none" width="18" height="38" />
      <text xml:space="preserve" x="1026" y="804" clip-path="url(#clipPath14)" stroke="none">tsi09</text>
      <rect x="1074" y="10" clip-path="url(#clipPath15)" fill="rgb(255,245,181)" width="127" height="50" stroke="none" />
      <rect x="1074" y="10" clip-path="url(#clipPath15)" fill="none" width="126" height="49" stroke="black" stroke-width="0.1" />
      <text x="1127" y="33" clip-path="url(#clipPath16)" fill="black" stroke="none" stroke-width="0.1" xml:space="preserve">bill</text>
      <text x="1076" y="49" clip-path="url(#clipPath17)" fill="black" stroke="none" stroke-width="0.1" xml:space="preserve">: actAdministrator</text>
    </g>
    <g stroke-width="1.1" font-size="14" stroke-dasharray="10,10" font-family="'Lucida Sans'" stroke-linecap="butt">
      <line clip-path="url(#clipPath18)" fill="none" x1="1136" x2="1136" y1="60" y2="1000" />
      <rect x="1127" y="210" clip-path="url(#clipPath19)" fill="rgb(77,137,20)" width="20" height="40" stroke="none" />
    </g>
    <g stroke-linecap="butt" font-size="14" fill="rgb(77,137,20)" font-family="'Lucida Sans'" stroke="rgb(77,137,20)" stroke-width="2.1">
      <rect x="1128" y="211" clip-path="url(#clipPath19)" fill="none" width="18" height="38" />
      <text xml:space="preserve" x="1148" y="224" clip-path="url(#clipPath20)" stroke="none">tsi03</text>
      <rect x="1127" y="330" clip-path="url(#clipPath21)" width="20" height="40" stroke="none" />
      <rect x="1128" y="331" clip-path="url(#clipPath21)" fill="none" width="18" height="38" />
      <text xml:space="preserve" x="1148" y="344" clip-path="url(#clipPath22)" stroke="none">tsi04</text>
      <rect x="1127" y="450" clip-path="url(#clipPath23)" width="20" height="40" stroke="none" />
      <rect x="1128" y="451" clip-path="url(#clipPath23)" fill="none" width="18" height="38" />
      <text xml:space="preserve" x="1148" y="464" clip-path="url(#clipPath24)" stroke="none">tsi05</text>
      <rect x="1127" y="256" clip-path="url(#clipPath25)" fill="rgb(204,242,166)" width="20" height="40" stroke="none" />
      <rect x="1127" y="256" clip-path="url(#clipPath25)" fill="none" width="19" height="39" stroke="rgb(209,209,209)" stroke-width="0.1" />
      <text x="1148" y="270" clip-path="url(#clipPath26)" stroke="none" stroke-width="0.1" xml:space="preserve">tsi03</text>
      <rect x="1127" y="375" clip-path="url(#clipPath27)" fill="rgb(204,242,166)" width="20" height="40" stroke="none" stroke-width="0.1" />
      <rect x="1127" y="375" clip-path="url(#clipPath27)" fill="none" width="19" height="39" stroke="rgb(209,209,209)" stroke-width="0.1" />
      <text x="1148" y="389" clip-path="url(#clipPath28)" stroke="none" stroke-width="0.1" xml:space="preserve">tsi04</text>
      <rect x="1127" y="500" clip-path="url(#clipPath29)" fill="rgb(204,242,166)" width="20" height="40" stroke="none" stroke-width="0.1" />
      <rect x="1127" y="500" clip-path="url(#clipPath29)" fill="none" width="19" height="39" stroke="rgb(209,209,209)" stroke-width="0.1" />
      <text x="1148" y="514" clip-path="url(#clipPath30)" stroke="none" stroke-width="0.1" xml:space="preserve">tsi05</text>
      <rect x="1127" y="850" clip-path="url(#clipPath31)" fill="rgb(204,242,166)" width="20" height="40" stroke="none" stroke-width="0.1" />
      <rect x="1127" y="850" clip-path="url(#clipPath31)" fill="none" width="19" height="39" stroke="rgb(209,209,209)" stroke-width="0.1" />
      <text x="1148" y="864" clip-path="url(#clipPath32)" stroke="none" stroke-width="0.1" xml:space="preserve">tsi09</text>
      <rect x="1211" y="10" clip-path="url(#clipPath33)" fill="rgb(255,245,181)" width="131" height="50" stroke="none" stroke-width="0.1" />
      <rect x="1211" y="10" clip-path="url(#clipPath33)" fill="none" width="130" height="49" stroke="black" stroke-width="0.1" />
      <text x="1256" y="33" clip-path="url(#clipPath34)" fill="black" stroke="none" stroke-width="0.1" xml:space="preserve">tango</text>
      <text x="1214" y="49" clip-path="url(#clipPath34)" fill="black" stroke="none" stroke-width="0.1" xml:space="preserve">: actComCompany</text>
    </g>
    <g stroke-width="1.1" font-size="14" stroke-dasharray="10,10" font-family="'Lucida Sans'" stroke-linecap="butt">
      <line clip-path="url(#clipPath35)" fill="none" x1="1275" x2="1275" y1="60" y2="1000" />
      <rect x="1266" y="651" clip-path="url(#clipPath36)" fill="rgb(77,137,20)" width="20" height="40" stroke="none" />
    </g>
    <g stroke-linecap="butt" font-size="14" fill="rgb(77,137,20)" font-family="'Lucida Sans'" stroke="rgb(77,137,20)" stroke-width="2.1">
      <rect x="1267" y="652" clip-path="url(#clipPath36)" fill="none" width="18" height="38" />
      <text xml:space="preserve" x="1287" y="665" clip-path="url(#clipPath37)" stroke="none">tsi07</text>
      <rect x="1266" y="730" clip-path="url(#clipPath38)" fill="rgb(204,242,166)" width="20" height="40" stroke="none" />
      <rect x="1266" y="730" clip-path="url(#clipPath38)" fill="none" width="19" height="39" stroke="rgb(209,209,209)" stroke-width="0.1" />
      <text x="1287" y="744" clip-path="url(#clipPath39)" stroke="none" stroke-width="0.1" xml:space="preserve">tsi07</text>
      <rect x="713" y="10" clip-path="url(#clipPath40)" fill="rgb(255,245,181)" width="129" height="50" stroke="none" stroke-width="0.1" />
      <rect x="713" y="10" clip-path="url(#clipPath40)" fill="none" width="128" height="49" stroke="black" stroke-width="0.1" />
      <text x="759" y="33" clip-path="url(#clipPath41)" fill="black" stroke="none" stroke-width="0.1" xml:space="preserve">steve</text>
      <text x="721" y="49" clip-path="url(#clipPath41)" fill="black" stroke="none" stroke-width="0.1" xml:space="preserve">: actCoordinator</text>
    </g>
    <g stroke-width="1.1" font-size="14" stroke-dasharray="10,10" font-family="'Lucida Sans'" stroke-linecap="butt">
      <line clip-path="url(#clipPath42)" fill="none" x1="776" x2="776" y1="60" y2="1000" />
      <rect x="767" y="910" clip-path="url(#clipPath43)" fill="rgb(204,242,166)" width="20" height="40" stroke="none" />
    </g>
    <g stroke-linecap="butt" font-size="14" fill="rgb(209,209,209)" font-family="'Lucida Sans'" stroke="rgb(209,209,209)" stroke-width="0.1">
      <rect x="767" y="910" clip-path="url(#clipPath43)" fill="none" width="19" height="39" />
      <text x="788" y="924" clip-path="url(#clipPath44)" fill="rgb(77,137,20)" stroke="none" xml:space="preserve">tsi09</text>
      <rect x="10" y="10" clip-path="url(#clipPath45)" fill="rgb(238,201,142)" width="70" height="30" stroke="none" />
      <rect x="10" y="10" clip-path="url(#clipPath45)" fill="none" width="69" height="29" stroke="black" />
      <text x="21" y="31" clip-path="url(#clipPath46)" fill="black" stroke="none" xml:space="preserve">System</text>
    </g>
    <g stroke-width="1.1" font-size="14" stroke-dasharray="10,10" font-family="'Lucida Sans'" stroke-linecap="butt">
      <line clip-path="url(#clipPath47)" fill="none" x1="44" x2="44" y1="40" y2="1000" />
    </g>
    <g stroke-linecap="butt" font-size="14" fill="rgb(136,136,136)" font-family="'Lucida Sans'" stroke="rgb(136,136,136)" stroke-width="2.1">
      <line clip-path="url(#clipPath48)" fill="none" x1="894" x2="45" y1="90" y2="90" />
      <text x="375" y="81" clip-path="url(#clipPath49)" fill="black" stroke="none" xml:space="preserve">oeCreateSystemAndEnvironment(4)</text>
      <line clip-path="url(#clipPath50)" fill="none" x1="52" x2="45" y1="87" y2="90" />
      <line clip-path="url(#clipPath50)" fill="none" x1="45" x2="52" y1="90" y2="93" />
      <line clip-path="url(#clipPath48)" fill="none" x1="1005" x2="45" y1="150" y2="150" />
      <text x="375" y="144" clip-path="url(#clipPath51)" fill="black" stroke="none" xml:space="preserve">oeSetClock(2017:11:24 - 03:20:00)</text>
      <line clip-path="url(#clipPath52)" fill="none" x1="52" x2="45" y1="147" y2="150" />
      <line clip-path="url(#clipPath52)" fill="none" x1="45" x2="52" y1="150" y2="153" />
      <line clip-path="url(#clipPath48)" fill="none" x1="1127" x2="45" y1="210" y2="210" />
      <text x="372" y="199" clip-path="url(#clipPath53)" fill="black" stroke="none" xml:space="preserve">oeLogin(icrashadmin,7WXC1359)</text>
      <line clip-path="url(#clipPath54)" fill="none" x1="52" x2="45" y1="207" y2="210" />
      <line clip-path="url(#clipPath54)" fill="none" x1="45" x2="52" y1="210" y2="213" />
      <line clip-path="url(#clipPath48)" fill="none" x1="1127" x2="45" y1="330" y2="330" />
      <text x="381" y="320" clip-path="url(#clipPath55)" fill="black" stroke="none" xml:space="preserve">oeAddCoordinator(1,steve,pwdMessirExcalibur2017)</text>
      <line clip-path="url(#clipPath56)" fill="none" x1="52" x2="45" y1="327" y2="330" />
      <line clip-path="url(#clipPath56)" fill="none" x1="45" x2="52" y1="330" y2="333" />
      <line clip-path="url(#clipPath48)" fill="none" x1="1127" x2="45" y1="450" y2="450" />
      <text x="377" y="439" clip-path="url(#clipPath57)" fill="black" stroke="none" xml:space="preserve">oeLogout()</text>
      <line clip-path="url(#clipPath58)" fill="none" x1="52" x2="45" y1="447" y2="450" />
      <line clip-path="url(#clipPath58)" fill="none" x1="45" x2="52" y1="450" y2="453" />
      <line clip-path="url(#clipPath48)" fill="none" x1="1005" x2="45" y1="556" y2="556" />
      <text x="371" y="542" clip-path="url(#clipPath59)" fill="black" stroke="none" xml:space="preserve">oeSetClock(2017:11:26 - 10:15:00)</text>
      <line clip-path="url(#clipPath60)" fill="none" x1="52" x2="45" y1="553" y2="556" />
      <line clip-path="url(#clipPath60)" fill="none" x1="45" x2="52" y1="556" y2="559" />
      <line clip-path="url(#clipPath48)" fill="none" x1="1266" x2="45" y1="651" y2="651" />
      <text x="373" y="626" clip-path="url(#clipPath61)" fill="black" stroke="none" xml:space="preserve">oeAlert(witness,2017:11:26,10:10:16,+3524666445252,</text>
      <text x="388" y="642" clip-path="url(#clipPath61)" fill="black" stroke="none" xml:space="preserve">49.627675:6.159590,3 cars involved in an accident.)</text>
      <line clip-path="url(#clipPath62)" fill="none" x1="52" x2="45" y1="648" y2="651" />
      <line clip-path="url(#clipPath62)" fill="none" x1="45" x2="52" y1="651" y2="654" />
      <line clip-path="url(#clipPath48)" fill="none" x1="1005" x2="45" y1="790" y2="790" />
      <text x="377" y="781" clip-path="url(#clipPath63)" fill="black" stroke="none" xml:space="preserve">oeSollicitateCrisisHandling()</text>
      <line clip-path="url(#clipPath64)" fill="none" x1="52" x2="45" y1="787" y2="790" />
      <line clip-path="url(#clipPath64)" fill="none" x1="45" x2="52" y1="790" y2="793" />
      <line clip-path="url(#clipPath48)" fill="none" x1="1127" x2="45" y1="256" y2="256" stroke-dasharray="5,5" />
      <text x="374" y="247" clip-path="url(#clipPath65)" fill="black" stroke-dasharray="5,5" stroke="none" xml:space="preserve">ieMessage(You are logged ! Welcome ...)</text>
      <line clip-path="url(#clipPath66)" fill="none" x1="1120" x2="1127" y1="259" y2="256" />
      <line clip-path="url(#clipPath66)" fill="none" x1="1127" x2="1120" y1="256" y2="253" />
      <line clip-path="url(#clipPath48)" fill="none" x1="1127" x2="45" y1="375" y2="375" stroke-dasharray="5,5" />
      <text x="372" y="365" clip-path="url(#clipPath67)" fill="black" stroke-dasharray="5,5" stroke="none" xml:space="preserve">ieCoordinatorAdded()</text>
      <line clip-path="url(#clipPath68)" fill="none" x1="1120" x2="1127" y1="378" y2="375" />
      <line clip-path="url(#clipPath68)" fill="none" x1="1127" x2="1120" y1="375" y2="372" />
      <line clip-path="url(#clipPath48)" fill="none" x1="1127" x2="45" y1="500" y2="500" stroke-dasharray="5,5" />
      <text x="377" y="489" clip-path="url(#clipPath69)" fill="black" stroke-dasharray="5,5" stroke="none" xml:space="preserve">ieMessage(You are logged out ! Good Bye ...)</text>
      <line clip-path="url(#clipPath70)" fill="none" x1="1120" x2="1127" y1="503" y2="500" />
      <line clip-path="url(#clipPath70)" fill="none" x1="1127" x2="1120" y1="500" y2="497" />
      <line clip-path="url(#clipPath48)" fill="none" x1="1266" x2="45" y1="730" y2="730" stroke-dasharray="5,5" />
      <text x="370" y="717" clip-path="url(#clipPath71)" fill="black" stroke-dasharray="5,5" stroke="none" xml:space="preserve">ieSmsSend(+3524666445252,Your alert has been registered. We will handle it and keep you informed)</text>
      <line clip-path="url(#clipPath72)" fill="none" x1="1259" x2="1266" y1="733" y2="730" />
      <line clip-path="url(#clipPath72)" fill="none" x1="1266" x2="1259" y1="730" y2="727" />
      <line clip-path="url(#clipPath48)" fill="none" x1="1127" x2="45" y1="850" y2="850" stroke-dasharray="5,5" />
      <text x="374" y="843" clip-path="url(#clipPath73)" fill="black" stroke-dasharray="5,5" stroke="none" xml:space="preserve">ieMessage(There are alerts pending since more than the defined delay. Please REACT !)</text>
      <line clip-path="url(#clipPath74)" fill="none" x1="1120" x2="1127" y1="853" y2="850" />
      <line clip-path="url(#clipPath74)" fill="none" x1="1127" x2="1120" y1="850" y2="847" />
      <line clip-path="url(#clipPath48)" fill="none" x1="767" x2="45" y1="910" y2="910" stroke-dasharray="5,5" />
      <text x="53" y="898" clip-path="url(#clipPath75)" fill="black" stroke-dasharray="5,5" stroke="none" xml:space="preserve">ieMessage(There are alerts pending since more than the defined delay. Please REACT !)</text>
      <line clip-path="url(#clipPath76)" fill="none" x1="760" x2="767" y1="913" y2="910" />
      <line clip-path="url(#clipPath76)" fill="none" x1="767" x2="760" y1="910" y2="907" />
    </g>
  </g>
</svg>

