<?xml version="1.0" encoding="UTF-8"?>
<svg xmlns="http://www.w3.org/2000/svg" xmlns:xlink="http://www.w3.org/1999/xlink" stroke-dasharray="none" shape-rendering="auto" font-family="'Dialog'" width="1207" text-rendering="auto" fill-opacity="1" contentScriptType="text/ecmascript" color-interpolation="auto" color-rendering="auto" preserveAspectRatio="xMidYMid meet" font-size="12" viewBox="0 0 1207 1311" fill="black" stroke="black" image-rendering="auto" stroke-miterlimit="10" zoomAndPan="magnify" version="1.0" stroke-linecap="square" stroke-linejoin="miter" contentStyleType="text/css" font-style="normal" height="1311" stroke-width="1" stroke-dashoffset="0" font-weight="normal" stroke-opacity="1">
  <!--Generated by the Batik Graphics2D SVG Generator-->
  <defs id="genericDefs" />
  <g>
    <defs id="defs1">
      <clipPath clipPathUnits="userSpaceOnUse" id="clipPath1">
        <path d="M730 9 L849 9 L849 61 L730 61 L730 9 Z" />
      </clipPath>
      <clipPath clipPathUnits="userSpaceOnUse" id="clipPath2">
        <path d="M730 9 L854 9 L854 61 L730 61 L730 9 Z" />
      </clipPath>
      <clipPath clipPathUnits="userSpaceOnUse" id="clipPath3">
        <path d="M783 59 L795 59 L795 1302 L783 1302 L783 59 Z" />
      </clipPath>
      <clipPath clipPathUnits="userSpaceOnUse" id="clipPath4">
        <path d="M778 89 L800 89 L800 131 L778 131 L778 89 Z" />
      </clipPath>
      <clipPath clipPathUnits="userSpaceOnUse" id="clipPath5">
        <path d="M799 89 L864 89 L864 118 L799 118 L799 89 Z" />
      </clipPath>
      <clipPath clipPathUnits="userSpaceOnUse" id="clipPath6">
        <path d="M778 209 L800 209 L800 251 L778 251 L778 209 Z" />
      </clipPath>
      <clipPath clipPathUnits="userSpaceOnUse" id="clipPath7">
        <path d="M799 209 L864 209 L864 238 L799 238 L799 209 Z" />
      </clipPath>
      <clipPath clipPathUnits="userSpaceOnUse" id="clipPath8">
        <path d="M778 329 L800 329 L800 371 L778 371 L778 329 Z" />
      </clipPath>
      <clipPath clipPathUnits="userSpaceOnUse" id="clipPath9">
        <path d="M799 329 L864 329 L864 358 L799 358 L799 329 Z" />
      </clipPath>
      <clipPath clipPathUnits="userSpaceOnUse" id="clipPath10">
        <path d="M778 570 L800 570 L800 612 L778 612 L778 570 Z" />
      </clipPath>
      <clipPath clipPathUnits="userSpaceOnUse" id="clipPath11">
        <path d="M799 570 L864 570 L864 599 L799 599 L799 570 Z" />
      </clipPath>
      <clipPath clipPathUnits="userSpaceOnUse" id="clipPath12">
        <path d="M778 910 L800 910 L800 952 L778 952 L778 910 Z" />
      </clipPath>
      <clipPath clipPathUnits="userSpaceOnUse" id="clipPath13">
        <path d="M799 910 L864 910 L864 939 L799 939 L799 910 Z" />
      </clipPath>
      <clipPath clipPathUnits="userSpaceOnUse" id="clipPath14">
        <path d="M778 1030 L800 1030 L800 1072 L778 1072 L778 1030 Z" />
      </clipPath>
      <clipPath clipPathUnits="userSpaceOnUse" id="clipPath15">
        <path d="M799 1030 L864 1030 L864 1059 L799 1059 L799 1030 Z" />
      </clipPath>
      <clipPath clipPathUnits="userSpaceOnUse" id="clipPath16">
        <path d="M778 1150 L800 1150 L800 1192 L778 1192 L778 1150 Z" />
      </clipPath>
      <clipPath clipPathUnits="userSpaceOnUse" id="clipPath17">
        <path d="M799 1150 L864 1150 L864 1179 L799 1179 L799 1150 Z" />
      </clipPath>
      <clipPath clipPathUnits="userSpaceOnUse" id="clipPath18">
        <path d="M778 139 L800 139 L800 181 L778 181 L778 139 Z" />
      </clipPath>
      <clipPath clipPathUnits="userSpaceOnUse" id="clipPath19">
        <path d="M799 139 L864 139 L864 168 L799 168 L799 139 Z" />
      </clipPath>
      <clipPath clipPathUnits="userSpaceOnUse" id="clipPath20">
        <path d="M778 257 L800 257 L800 299 L778 299 L778 257 Z" />
      </clipPath>
      <clipPath clipPathUnits="userSpaceOnUse" id="clipPath21">
        <path d="M799 257 L864 257 L864 286 L799 286 L799 257 Z" />
      </clipPath>
      <clipPath clipPathUnits="userSpaceOnUse" id="clipPath22">
        <path d="M778 443 L800 443 L800 485 L778 485 L778 443 Z" />
      </clipPath>
      <clipPath clipPathUnits="userSpaceOnUse" id="clipPath23">
        <path d="M799 443 L864 443 L864 472 L799 472 L799 443 Z" />
      </clipPath>
      <clipPath clipPathUnits="userSpaceOnUse" id="clipPath24">
        <path d="M778 630 L800 630 L800 672 L778 672 L778 630 Z" />
      </clipPath>
      <clipPath clipPathUnits="userSpaceOnUse" id="clipPath25">
        <path d="M799 630 L864 630 L864 659 L799 659 L799 630 Z" />
      </clipPath>
      <clipPath clipPathUnits="userSpaceOnUse" id="clipPath26">
        <path d="M778 970 L800 970 L800 1012 L778 1012 L778 970 Z" />
      </clipPath>
      <clipPath clipPathUnits="userSpaceOnUse" id="clipPath27">
        <path d="M799 970 L864 970 L864 999 L799 999 L799 970 Z" />
      </clipPath>
      <clipPath clipPathUnits="userSpaceOnUse" id="clipPath28">
        <path d="M778 1090 L800 1090 L800 1132 L778 1132 L778 1090 Z" />
      </clipPath>
      <clipPath clipPathUnits="userSpaceOnUse" id="clipPath29">
        <path d="M799 1090 L864 1090 L864 1119 L799 1119 L799 1090 Z" />
      </clipPath>
      <clipPath clipPathUnits="userSpaceOnUse" id="clipPath30">
        <path d="M778 1210 L800 1210 L800 1252 L778 1252 L778 1210 Z" />
      </clipPath>
      <clipPath clipPathUnits="userSpaceOnUse" id="clipPath31">
        <path d="M799 1210 L864 1210 L864 1239 L799 1239 L799 1210 Z" />
      </clipPath>
      <clipPath clipPathUnits="userSpaceOnUse" id="clipPath32">
        <path d="M592 9 L722 9 L722 61 L592 61 L592 9 Z" />
      </clipPath>
      <clipPath clipPathUnits="userSpaceOnUse" id="clipPath33">
        <path d="M592 9 L728 9 L728 61 L592 61 L592 9 Z" />
      </clipPath>
      <clipPath clipPathUnits="userSpaceOnUse" id="clipPath34">
        <path d="M592 9 L727 9 L727 61 L592 61 L592 9 Z" />
      </clipPath>
      <clipPath clipPathUnits="userSpaceOnUse" id="clipPath35">
        <path d="M651 59 L663 59 L663 1302 L651 1302 L651 59 Z" />
      </clipPath>
      <clipPath clipPathUnits="userSpaceOnUse" id="clipPath36">
        <path d="M646 714 L668 714 L668 756 L646 756 L646 714 Z" />
      </clipPath>
      <clipPath clipPathUnits="userSpaceOnUse" id="clipPath37">
        <path d="M667 714 L732 714 L732 743 L667 743 L667 714 Z" />
      </clipPath>
      <clipPath clipPathUnits="userSpaceOnUse" id="clipPath38">
        <path d="M646 398 L668 398 L668 440 L646 440 L646 398 Z" />
      </clipPath>
      <clipPath clipPathUnits="userSpaceOnUse" id="clipPath39">
        <path d="M667 398 L732 398 L732 427 L667 427 L667 398 Z" />
      </clipPath>
      <clipPath clipPathUnits="userSpaceOnUse" id="clipPath40">
        <path d="M646 790 L668 790 L668 832 L646 832 L646 790 Z" />
      </clipPath>
      <clipPath clipPathUnits="userSpaceOnUse" id="clipPath41">
        <path d="M667 790 L732 790 L732 819 L667 819 L667 790 Z" />
      </clipPath>
      <clipPath clipPathUnits="userSpaceOnUse" id="clipPath42">
        <path d="M857 9 L976 9 L976 61 L857 61 L857 9 Z" />
      </clipPath>
      <clipPath clipPathUnits="userSpaceOnUse" id="clipPath43">
        <path d="M857 9 L981 9 L981 61 L857 61 L857 9 Z" />
      </clipPath>
      <clipPath clipPathUnits="userSpaceOnUse" id="clipPath44">
        <path d="M910 59 L922 59 L922 1302 L910 1302 L910 59 Z" />
      </clipPath>
      <clipPath clipPathUnits="userSpaceOnUse" id="clipPath45">
        <path d="M905 518 L927 518 L927 560 L905 560 L905 518 Z" />
      </clipPath>
      <clipPath clipPathUnits="userSpaceOnUse" id="clipPath46">
        <path d="M926 518 L991 518 L991 547 L926 547 L926 518 Z" />
      </clipPath>
      <clipPath clipPathUnits="userSpaceOnUse" id="clipPath47">
        <path d="M905 850 L927 850 L927 892 L905 892 L905 850 Z" />
      </clipPath>
      <clipPath clipPathUnits="userSpaceOnUse" id="clipPath48">
        <path d="M926 850 L991 850 L991 879 L926 879 L926 850 Z" />
      </clipPath>
      <clipPath clipPathUnits="userSpaceOnUse" id="clipPath49">
        <path d="M179 9 L251 9 L251 41 L179 41 L179 9 Z" />
      </clipPath>
      <clipPath clipPathUnits="userSpaceOnUse" id="clipPath50">
        <path d="M179 9 L255 9 L255 41 L179 41 L179 9 Z" />
      </clipPath>
      <clipPath clipPathUnits="userSpaceOnUse" id="clipPath51">
        <path d="M209 39 L221 39 L221 1302 L209 1302 L209 39 Z" />
      </clipPath>
      <clipPath clipPathUnits="userSpaceOnUse" id="clipPath52">
        <path d="M-1 -1 L1208 -1 L1208 1312 L-1 1312 L-1 -1 Z" />
      </clipPath>
      <clipPath clipPathUnits="userSpaceOnUse" id="clipPath53">
        <path d="M272 66 L729 66 L729 95 L272 95 L272 66 Z" />
      </clipPath>
      <clipPath clipPathUnits="userSpaceOnUse" id="clipPath54">
        <path d="M213 85 L225 85 L225 96 L213 96 L213 85 Z" />
      </clipPath>
      <clipPath clipPathUnits="userSpaceOnUse" id="clipPath55">
        <path d="M307 182 L581 182 L581 211 L307 211 L307 182 Z" />
      </clipPath>
      <clipPath clipPathUnits="userSpaceOnUse" id="clipPath56">
        <path d="M213 205 L225 205 L225 216 L213 216 L213 205 Z" />
      </clipPath>
      <clipPath clipPathUnits="userSpaceOnUse" id="clipPath57">
        <path d="M311 301 L558 301 L558 330 L311 330 L311 301 Z" />
      </clipPath>
      <clipPath clipPathUnits="userSpaceOnUse" id="clipPath58">
        <path d="M213 325 L225 325 L225 336 L213 336 L213 325 Z" />
      </clipPath>
      <clipPath clipPathUnits="userSpaceOnUse" id="clipPath59">
        <path d="M207 488 L617 488 L617 517 L207 517 L207 488 Z" />
      </clipPath>
      <clipPath clipPathUnits="userSpaceOnUse" id="clipPath60">
        <path d="M213 514 L225 514 L225 525 L213 525 L213 514 Z" />
      </clipPath>
      <clipPath clipPathUnits="userSpaceOnUse" id="clipPath61">
        <path d="M319 542 L527 542 L527 571 L319 571 L319 542 Z" />
      </clipPath>
      <clipPath clipPathUnits="userSpaceOnUse" id="clipPath62">
        <path d="M213 566 L225 566 L225 577 L213 577 L213 566 Z" />
      </clipPath>
      <clipPath clipPathUnits="userSpaceOnUse" id="clipPath63">
        <path d="M211 663 L624 663 L624 726 L211 726 L211 663 Z" />
      </clipPath>
      <clipPath clipPathUnits="userSpaceOnUse" id="clipPath64">
        <path d="M211 663 L625 663 L625 726 L211 726 L211 663 Z" />
      </clipPath>
      <clipPath clipPathUnits="userSpaceOnUse" id="clipPath65">
        <path d="M213 710 L225 710 L225 721 L213 721 L213 710 Z" />
      </clipPath>
      <clipPath clipPathUnits="userSpaceOnUse" id="clipPath66">
        <path d="M202 820 L612 820 L612 849 L202 849 L202 820 Z" />
      </clipPath>
      <clipPath clipPathUnits="userSpaceOnUse" id="clipPath67">
        <path d="M213 846 L225 846 L225 857 L213 857 L213 846 Z" />
      </clipPath>
      <clipPath clipPathUnits="userSpaceOnUse" id="clipPath68">
        <path d="M299 882 L607 882 L607 911 L299 911 L299 882 Z" />
      </clipPath>
      <clipPath clipPathUnits="userSpaceOnUse" id="clipPath69">
        <path d="M213 906 L225 906 L225 917 L213 917 L213 906 Z" />
      </clipPath>
      <clipPath clipPathUnits="userSpaceOnUse" id="clipPath70">
        <path d="M146 1005 L1189 1005 L1189 1034 L146 1034 L146 1005 Z" />
      </clipPath>
      <clipPath clipPathUnits="userSpaceOnUse" id="clipPath71">
        <path d="M213 1026 L225 1026 L225 1037 L213 1037 L213 1026 Z" />
      </clipPath>
      <clipPath clipPathUnits="userSpaceOnUse" id="clipPath72">
        <path d="M316 1122 L504 1122 L504 1151 L316 1151 L316 1122 Z" />
      </clipPath>
      <clipPath clipPathUnits="userSpaceOnUse" id="clipPath73">
        <path d="M213 1146 L225 1146 L225 1157 L213 1157 L213 1146 Z" />
      </clipPath>
      <clipPath clipPathUnits="userSpaceOnUse" id="clipPath74">
        <path d="M265 111 L719 111 L719 140 L265 140 L265 111 Z" />
      </clipPath>
      <clipPath clipPathUnits="userSpaceOnUse" id="clipPath75">
        <path d="M770 135 L782 135 L782 146 L770 146 L770 135 Z" />
      </clipPath>
      <clipPath clipPathUnits="userSpaceOnUse" id="clipPath76">
        <path d="M269 231 L691 231 L691 260 L269 260 L269 231 Z" />
      </clipPath>
      <clipPath clipPathUnits="userSpaceOnUse" id="clipPath77">
        <path d="M770 253 L782 253 L782 264 L770 264 L770 253 Z" />
      </clipPath>
      <clipPath clipPathUnits="userSpaceOnUse" id="clipPath78">
        <path d="M23 370 L1017 370 L1017 399 L23 399 L23 370 Z" />
      </clipPath>
      <clipPath clipPathUnits="userSpaceOnUse" id="clipPath79">
        <path d="M638 394 L650 394 L650 405 L638 405 L638 394 Z" />
      </clipPath>
      <clipPath clipPathUnits="userSpaceOnUse" id="clipPath80">
        <path d="M227 411 L890 411 L890 440 L227 440 L227 411 Z" />
      </clipPath>
      <clipPath clipPathUnits="userSpaceOnUse" id="clipPath81">
        <path d="M770 439 L782 439 L782 450 L770 450 L770 439 Z" />
      </clipPath>
      <clipPath clipPathUnits="userSpaceOnUse" id="clipPath82">
        <path d="M251 606 L779 606 L779 635 L251 635 L251 606 Z" />
      </clipPath>
      <clipPath clipPathUnits="userSpaceOnUse" id="clipPath83">
        <path d="M770 626 L782 626 L782 637 L770 637 L770 626 Z" />
      </clipPath>
      <clipPath clipPathUnits="userSpaceOnUse" id="clipPath84">
        <path d="M638 786 L650 786 L650 797 L638 797 L638 786 Z" />
      </clipPath>
      <clipPath clipPathUnits="userSpaceOnUse" id="clipPath85">
        <path d="M249 940 L790 940 L790 969 L249 969 L249 940 Z" />
      </clipPath>
      <clipPath clipPathUnits="userSpaceOnUse" id="clipPath86">
        <path d="M770 966 L782 966 L782 977 L770 977 L770 966 Z" />
      </clipPath>
      <clipPath clipPathUnits="userSpaceOnUse" id="clipPath87">
        <path d="M242 1063 L818 1063 L818 1092 L242 1092 L242 1063 Z" />
      </clipPath>
      <clipPath clipPathUnits="userSpaceOnUse" id="clipPath88">
        <path d="M770 1086 L782 1086 L782 1097 L770 1097 L770 1086 Z" />
      </clipPath>
      <clipPath clipPathUnits="userSpaceOnUse" id="clipPath89">
        <path d="M271 1185 L689 1185 L689 1214 L271 1214 L271 1185 Z" />
      </clipPath>
      <clipPath clipPathUnits="userSpaceOnUse" id="clipPath90">
        <path d="M770 1206 L782 1206 L782 1217 L770 1217 L770 1206 Z" />
      </clipPath>
    </defs>
    <g font-size="23" fill="rgb(255,245,181)" font-family="'Lucida Sans'" stroke-linejoin="round" stroke="rgb(255,245,181)" stroke-width="0" stroke-miterlimit="0">
      <rect x="731" y="10" clip-path="url(#clipPath1)" width="117" height="50" stroke="none" />
    </g>
    <g stroke-width="0.1" font-size="23" font-family="'Lucida Sans'" stroke-linecap="butt">
      <rect x="731" y="10" clip-path="url(#clipPath1)" fill="none" width="116" height="49" />
      <text xml:space="preserve" x="760" y="30" clip-path="url(#clipPath2)" stroke="none">steve</text>
      <text xml:space="preserve" x="733" y="57" clip-path="url(#clipPath2)" stroke="none">: actCoo...</text>
      <line clip-path="url(#clipPath3)" fill="none" x1="788" x2="788" y1="60" y2="1301" stroke-dasharray="10,10" stroke-width="1.1" />
    </g>
    <g stroke-linecap="butt" font-size="23" fill="rgb(77,137,20)" font-family="'Lucida Sans'" stroke-dasharray="10,10" stroke="rgb(77,137,20)" stroke-width="1.1">
      <rect x="779" y="90" clip-path="url(#clipPath4)" width="20" height="40" stroke="none" />
      <rect x="780" y="91" clip-path="url(#clipPath4)" fill="none" width="18" stroke-dasharray="none" height="38" stroke-width="2.1" />
      <text x="800" y="112" clip-path="url(#clipPath5)" stroke-dasharray="none" stroke="none" stroke-width="2.1" xml:space="preserve">tsi10</text>
      <rect x="779" y="210" clip-path="url(#clipPath6)" width="20" stroke-dasharray="none" height="40" stroke="none" stroke-width="2.1" />
      <rect x="780" y="211" clip-path="url(#clipPath6)" fill="none" width="18" stroke-dasharray="none" height="38" stroke-width="2.1" />
      <text x="800" y="232" clip-path="url(#clipPath7)" stroke-dasharray="none" stroke="none" stroke-width="2.1" xml:space="preserve">tsi11</text>
      <rect x="779" y="330" clip-path="url(#clipPath8)" width="20" stroke-dasharray="none" height="40" stroke="none" stroke-width="2.1" />
      <rect x="780" y="331" clip-path="url(#clipPath8)" fill="none" width="18" stroke-dasharray="none" height="38" stroke-width="2.1" />
      <text x="800" y="352" clip-path="url(#clipPath9)" stroke-dasharray="none" stroke="none" stroke-width="2.1" xml:space="preserve">tsi12</text>
      <rect x="779" y="571" clip-path="url(#clipPath10)" width="20" stroke-dasharray="none" height="40" stroke="none" stroke-width="2.1" />
      <rect x="780" y="572" clip-path="url(#clipPath10)" fill="none" width="18" stroke-dasharray="none" height="38" stroke-width="2.1" />
      <text x="800" y="593" clip-path="url(#clipPath11)" stroke-dasharray="none" stroke="none" stroke-width="2.1" xml:space="preserve">tsi14</text>
      <rect x="779" y="911" clip-path="url(#clipPath12)" width="20" stroke-dasharray="none" height="40" stroke="none" stroke-width="2.1" />
      <rect x="780" y="912" clip-path="url(#clipPath12)" fill="none" width="18" stroke-dasharray="none" height="38" stroke-width="2.1" />
      <text x="800" y="933" clip-path="url(#clipPath13)" stroke-dasharray="none" stroke="none" stroke-width="2.1" xml:space="preserve">tsi17</text>
      <rect x="779" y="1031" clip-path="url(#clipPath14)" width="20" stroke-dasharray="none" height="40" stroke="none" stroke-width="2.1" />
      <rect x="780" y="1032" clip-path="url(#clipPath14)" fill="none" width="18" stroke-dasharray="none" height="38" stroke-width="2.1" />
      <text x="800" y="1053" clip-path="url(#clipPath15)" stroke-dasharray="none" stroke="none" stroke-width="2.1" xml:space="preserve">tsi18</text>
      <rect x="779" y="1151" clip-path="url(#clipPath16)" width="20" stroke-dasharray="none" height="40" stroke="none" stroke-width="2.1" />
      <rect x="780" y="1152" clip-path="url(#clipPath16)" fill="none" width="18" stroke-dasharray="none" height="38" stroke-width="2.1" />
      <text x="800" y="1173" clip-path="url(#clipPath17)" stroke-dasharray="none" stroke="none" stroke-width="2.1" xml:space="preserve">tsi19</text>
    </g>
    <g stroke-linecap="butt" font-size="23" fill="rgb(204,242,166)" font-family="'Lucida Sans'" stroke="rgb(204,242,166)" stroke-width="2.1">
      <rect x="779" y="140" clip-path="url(#clipPath18)" width="20" height="40" stroke="none" />
      <rect x="779" y="140" clip-path="url(#clipPath18)" fill="none" width="19" height="39" stroke="rgb(209,209,209)" stroke-width="0.1" />
      <text x="800" y="162" clip-path="url(#clipPath19)" fill="rgb(77,137,20)" stroke="none" stroke-width="0.1" xml:space="preserve">tsi10</text>
      <rect x="779" y="258" clip-path="url(#clipPath20)" width="20" height="40" stroke="none" stroke-width="0.1" />
      <rect x="779" y="258" clip-path="url(#clipPath20)" fill="none" width="19" height="39" stroke="rgb(209,209,209)" stroke-width="0.1" />
      <text x="800" y="280" clip-path="url(#clipPath21)" fill="rgb(77,137,20)" stroke="none" stroke-width="0.1" xml:space="preserve">tsi11</text>
      <rect x="779" y="444" clip-path="url(#clipPath22)" width="20" height="40" stroke="none" stroke-width="0.1" />
      <rect x="779" y="444" clip-path="url(#clipPath22)" fill="none" width="19" height="39" stroke="rgb(209,209,209)" stroke-width="0.1" />
      <text x="800" y="466" clip-path="url(#clipPath23)" fill="rgb(77,137,20)" stroke="none" stroke-width="0.1" xml:space="preserve">tsi12</text>
      <rect x="779" y="631" clip-path="url(#clipPath24)" width="20" height="40" stroke="none" stroke-width="0.1" />
      <rect x="779" y="631" clip-path="url(#clipPath24)" fill="none" width="19" height="39" stroke="rgb(209,209,209)" stroke-width="0.1" />
      <text x="800" y="653" clip-path="url(#clipPath25)" fill="rgb(77,137,20)" stroke="none" stroke-width="0.1" xml:space="preserve">tsi14</text>
      <rect x="779" y="971" clip-path="url(#clipPath26)" width="20" height="40" stroke="none" stroke-width="0.1" />
      <rect x="779" y="971" clip-path="url(#clipPath26)" fill="none" width="19" height="39" stroke="rgb(209,209,209)" stroke-width="0.1" />
      <text x="800" y="993" clip-path="url(#clipPath27)" fill="rgb(77,137,20)" stroke="none" stroke-width="0.1" xml:space="preserve">tsi17</text>
      <rect x="779" y="1091" clip-path="url(#clipPath28)" width="20" height="40" stroke="none" stroke-width="0.1" />
      <rect x="779" y="1091" clip-path="url(#clipPath28)" fill="none" width="19" height="39" stroke="rgb(209,209,209)" stroke-width="0.1" />
      <text x="800" y="1113" clip-path="url(#clipPath29)" fill="rgb(77,137,20)" stroke="none" stroke-width="0.1" xml:space="preserve">tsi18</text>
      <rect x="779" y="1211" clip-path="url(#clipPath30)" width="20" height="40" stroke="none" stroke-width="0.1" />
      <rect x="779" y="1211" clip-path="url(#clipPath30)" fill="none" width="19" height="39" stroke="rgb(209,209,209)" stroke-width="0.1" />
      <text x="800" y="1233" clip-path="url(#clipPath31)" fill="rgb(77,137,20)" stroke="none" stroke-width="0.1" xml:space="preserve">tsi19</text>
      <rect x="593" y="10" clip-path="url(#clipPath32)" fill="rgb(255,245,181)" width="128" height="50" stroke="none" stroke-width="0.1" />
      <rect x="593" y="10" clip-path="url(#clipPath32)" fill="none" width="127" height="49" stroke="black" stroke-width="0.1" />
      <text x="625" y="30" clip-path="url(#clipPath33)" fill="black" stroke="none" stroke-width="0.1" xml:space="preserve">tango</text>
      <text x="597" y="57" clip-path="url(#clipPath34)" fill="black" stroke="none" stroke-width="0.1" xml:space="preserve">: actCom...</text>
    </g>
    <g stroke-width="1.1" font-size="23" stroke-dasharray="10,10" font-family="'Lucida Sans'" stroke-linecap="butt">
      <line clip-path="url(#clipPath35)" fill="none" x1="656" x2="656" y1="60" y2="1301" />
      <rect x="647" y="715" clip-path="url(#clipPath36)" fill="rgb(77,137,20)" width="20" height="40" stroke="none" />
    </g>
    <g stroke-linecap="butt" font-size="23" fill="rgb(77,137,20)" font-family="'Lucida Sans'" stroke="rgb(77,137,20)" stroke-width="2.1">
      <rect x="648" y="716" clip-path="url(#clipPath36)" fill="none" width="18" height="38" />
      <text xml:space="preserve" x="668" y="737" clip-path="url(#clipPath37)" stroke="none">tsi15</text>
      <rect x="647" y="399" clip-path="url(#clipPath38)" fill="rgb(204,242,166)" width="20" height="40" stroke="none" />
      <rect x="647" y="399" clip-path="url(#clipPath38)" fill="none" width="19" height="39" stroke="rgb(209,209,209)" stroke-width="0.1" />
      <text x="668" y="421" clip-path="url(#clipPath39)" stroke="none" stroke-width="0.1" xml:space="preserve">tsi12</text>
      <rect x="647" y="791" clip-path="url(#clipPath40)" fill="rgb(204,242,166)" width="20" height="40" stroke="none" stroke-width="0.1" />
      <rect x="647" y="791" clip-path="url(#clipPath40)" fill="none" width="19" height="39" stroke="rgb(209,209,209)" stroke-width="0.1" />
      <text x="668" y="813" clip-path="url(#clipPath41)" stroke="none" stroke-width="0.1" xml:space="preserve">tsi15</text>
      <rect x="858" y="10" clip-path="url(#clipPath42)" fill="rgb(255,245,181)" width="117" height="50" stroke="none" stroke-width="0.1" />
      <rect x="858" y="10" clip-path="url(#clipPath42)" fill="none" width="116" height="49" stroke="black" stroke-width="0.1" />
      <text x="863" y="30" clip-path="url(#clipPath43)" fill="black" stroke="none" stroke-width="0.1" xml:space="preserve">theCloc...</text>
    </g>
    <g stroke-width="1.1" font-size="23" stroke-dasharray="10,10" font-family="'Lucida Sans'" stroke-linecap="butt">
      <line clip-path="url(#clipPath44)" fill="none" x1="915" x2="915" y1="60" y2="1301" />
      <rect x="906" y="519" clip-path="url(#clipPath45)" fill="rgb(77,137,20)" width="20" height="40" stroke="none" />
    </g>
    <g stroke-linecap="butt" font-size="23" fill="rgb(77,137,20)" font-family="'Lucida Sans'" stroke="rgb(77,137,20)" stroke-width="2.1">
      <rect x="907" y="520" clip-path="url(#clipPath45)" fill="none" width="18" height="38" />
      <text xml:space="preserve" x="927" y="541" clip-path="url(#clipPath46)" stroke="none">tsi13</text>
      <rect x="906" y="851" clip-path="url(#clipPath47)" width="20" height="40" stroke="none" />
      <rect x="907" y="852" clip-path="url(#clipPath47)" fill="none" width="18" height="38" />
      <text xml:space="preserve" x="927" y="873" clip-path="url(#clipPath48)" stroke="none">tsi16</text>
      <rect x="180" y="10" clip-path="url(#clipPath49)" fill="rgb(238,201,142)" width="70" height="30" stroke="none" />
      <rect x="180" y="10" clip-path="url(#clipPath49)" fill="none" width="69" height="29" stroke="black" stroke-width="0.1" />
      <text x="182" y="33" clip-path="url(#clipPath50)" fill="black" stroke="none" stroke-width="0.1" xml:space="preserve">Syst...</text>
    </g>
    <g stroke-width="1.1" font-size="23" stroke-dasharray="10,10" font-family="'Lucida Sans'" stroke-linecap="butt">
      <line clip-path="url(#clipPath51)" fill="none" x1="214" x2="214" y1="40" y2="1301" />
    </g>
    <g stroke-linecap="butt" font-size="23" fill="rgb(136,136,136)" font-family="'Lucida Sans'" stroke="rgb(136,136,136)" stroke-width="2.1">
      <line clip-path="url(#clipPath52)" fill="none" x1="779" x2="215" y1="90" y2="90" />
      <text x="273" y="89" clip-path="url(#clipPath53)" fill="black" stroke="none" xml:space="preserve">oeLogin(steve,pwdMessirExcalibur2017)</text>
      <line clip-path="url(#clipPath54)" fill="none" x1="222" x2="215" y1="87" y2="90" />
      <line clip-path="url(#clipPath54)" fill="none" x1="215" x2="222" y1="90" y2="93" />
      <line clip-path="url(#clipPath52)" fill="none" x1="779" x2="215" y1="210" y2="210" />
      <text x="308" y="205" clip-path="url(#clipPath55)" fill="black" stroke="none" xml:space="preserve">oeGetCrisisSet(pending)</text>
      <line clip-path="url(#clipPath56)" fill="none" x1="222" x2="215" y1="207" y2="210" />
      <line clip-path="url(#clipPath56)" fill="none" x1="215" x2="222" y1="210" y2="213" />
      <line clip-path="url(#clipPath52)" fill="none" x1="779" x2="215" y1="330" y2="330" />
      <text x="312" y="324" clip-path="url(#clipPath57)" fill="black" stroke="none" xml:space="preserve">oeSetCrisisHandler(1)</text>
      <line clip-path="url(#clipPath58)" fill="none" x1="222" x2="215" y1="327" y2="330" />
      <line clip-path="url(#clipPath58)" fill="none" x1="215" x2="222" y1="330" y2="333" />
      <line clip-path="url(#clipPath52)" fill="none" x1="906" x2="215" y1="519" y2="519" />
      <text x="208" y="511" clip-path="url(#clipPath59)" fill="black" stroke="none" xml:space="preserve">oeSetClock(2017:11:26 - 10:45:00)</text>
      <line clip-path="url(#clipPath60)" fill="none" x1="222" x2="215" y1="516" y2="519" />
      <line clip-path="url(#clipPath60)" fill="none" x1="215" x2="222" y1="519" y2="522" />
      <line clip-path="url(#clipPath52)" fill="none" x1="779" x2="215" y1="571" y2="571" />
      <text x="320" y="565" clip-path="url(#clipPath61)" fill="black" stroke="none" xml:space="preserve">oeValidateAlert(1)</text>
      <line clip-path="url(#clipPath62)" fill="none" x1="222" x2="215" y1="568" y2="571" />
      <line clip-path="url(#clipPath62)" fill="none" x1="215" x2="222" y1="571" y2="574" />
      <line clip-path="url(#clipPath52)" fill="none" x1="647" x2="215" y1="715" y2="715" />
      <text x="217" y="689" clip-path="url(#clipPath63)" fill="black" stroke="none" xml:space="preserve">oeAlert(witness,2017:11:26,10:20:</text>
      <text x="212" y="716" clip-path="url(#clipPath64)" fill="black" stroke="none" xml:space="preserve">00,+3524666445000,49.627095...</text>
      <line clip-path="url(#clipPath65)" fill="none" x1="222" x2="215" y1="712" y2="715" />
      <line clip-path="url(#clipPath65)" fill="none" x1="215" x2="222" y1="715" y2="718" />
      <line clip-path="url(#clipPath52)" fill="none" x1="906" x2="215" y1="851" y2="851" />
      <text x="203" y="843" clip-path="url(#clipPath66)" fill="black" stroke="none" xml:space="preserve">oeSetClock(2017:11:26 - 12:45:00)</text>
      <line clip-path="url(#clipPath67)" fill="none" x1="222" x2="215" y1="848" y2="851" />
      <line clip-path="url(#clipPath67)" fill="none" x1="215" x2="222" y1="851" y2="854" />
      <line clip-path="url(#clipPath52)" fill="none" x1="779" x2="215" y1="911" y2="911" />
      <text x="300" y="905" clip-path="url(#clipPath68)" fill="black" stroke="none" xml:space="preserve">oeSetCrisisStatus(1,solved)</text>
      <line clip-path="url(#clipPath69)" fill="none" x1="222" x2="215" y1="908" y2="911" />
      <line clip-path="url(#clipPath69)" fill="none" x1="215" x2="222" y1="911" y2="914" />
      <line clip-path="url(#clipPath52)" fill="none" x1="779" x2="215" y1="1031" y2="1031" />
      <text x="147" y="1028" clip-path="url(#clipPath70)" fill="black" stroke="none" xml:space="preserve">oeReportOnCrisis(1,3 victims sent to hospital, 2 cars evacuated and 4 rescue unit mobilized)</text>
      <line clip-path="url(#clipPath71)" fill="none" x1="222" x2="215" y1="1028" y2="1031" />
      <line clip-path="url(#clipPath71)" fill="none" x1="215" x2="222" y1="1031" y2="1034" />
      <line clip-path="url(#clipPath52)" fill="none" x1="779" x2="215" y1="1151" y2="1151" />
      <text x="317" y="1145" clip-path="url(#clipPath72)" fill="black" stroke="none" xml:space="preserve">oeCloseCrisis(1)</text>
      <line clip-path="url(#clipPath73)" fill="none" x1="222" x2="215" y1="1148" y2="1151" />
      <line clip-path="url(#clipPath73)" fill="none" x1="215" x2="222" y1="1151" y2="1154" />
      <line clip-path="url(#clipPath52)" fill="none" x1="779" x2="215" y1="140" y2="140" stroke-dasharray="5,5" />
      <text x="266" y="134" clip-path="url(#clipPath74)" fill="black" stroke-dasharray="5,5" stroke="none" xml:space="preserve">ieMessage(You are logged ! Welcome ...)</text>
      <line clip-path="url(#clipPath75)" fill="none" x1="772" x2="779" y1="143" y2="140" />
      <line clip-path="url(#clipPath75)" fill="none" x1="779" x2="772" y1="140" y2="137" />
      <line clip-path="url(#clipPath52)" fill="none" x1="779" x2="215" y1="258" y2="258" stroke-dasharray="5,5" />
      <text x="270" y="254" clip-path="url(#clipPath76)" fill="black" stroke-dasharray="5,5" stroke="none" xml:space="preserve">ieSendACrisis(crisis with ID 1 details)</text>
      <line clip-path="url(#clipPath77)" fill="none" x1="772" x2="779" y1="261" y2="258" />
      <line clip-path="url(#clipPath77)" fill="none" x1="779" x2="772" y1="258" y2="255" />
      <line clip-path="url(#clipPath52)" fill="none" x1="647" x2="215" y1="399" y2="399" stroke-dasharray="5,5" />
      <text x="24" y="393" clip-path="url(#clipPath78)" fill="black" stroke-dasharray="5,5" stroke="none" xml:space="preserve">ieSmsSend(+3524666445252,The handling of your alert by our services is in progress !)</text>
      <line clip-path="url(#clipPath79)" fill="none" x1="640" x2="647" y1="402" y2="399" />
      <line clip-path="url(#clipPath79)" fill="none" x1="647" x2="640" y1="399" y2="396" />
      <line clip-path="url(#clipPath52)" fill="none" x1="779" x2="215" y1="444" y2="444" stroke-dasharray="5,5" />
      <text x="228" y="434" clip-path="url(#clipPath80)" fill="black" stroke-dasharray="5,5" stroke="none" xml:space="preserve">ieMessage(You are now considered as handling the crisis !)</text>
      <line clip-path="url(#clipPath81)" fill="none" x1="772" x2="779" y1="447" y2="444" />
      <line clip-path="url(#clipPath81)" fill="none" x1="779" x2="772" y1="444" y2="441" />
      <line clip-path="url(#clipPath52)" fill="none" x1="779" x2="215" y1="631" y2="631" stroke-dasharray="5,5" />
      <text x="252" y="629" clip-path="url(#clipPath82)" fill="black" stroke-dasharray="5,5" stroke="none" xml:space="preserve">ieMessage(The Alert is now declared as valid !)</text>
      <line clip-path="url(#clipPath83)" fill="none" x1="772" x2="779" y1="634" y2="631" />
      <line clip-path="url(#clipPath83)" fill="none" x1="779" x2="772" y1="631" y2="628" />
      <line clip-path="url(#clipPath52)" fill="none" x1="647" x2="215" y1="791" y2="791" stroke-dasharray="5,5" />
      <line clip-path="url(#clipPath84)" fill="none" x1="640" x2="647" y1="794" y2="791" />
      <line clip-path="url(#clipPath84)" fill="none" x1="647" x2="640" y1="791" y2="788" />
      <line clip-path="url(#clipPath52)" fill="none" x1="779" x2="215" y1="971" y2="971" stroke-dasharray="5,5" />
      <text x="250" y="963" clip-path="url(#clipPath85)" fill="black" stroke-dasharray="5,5" stroke="none" xml:space="preserve">ieMessage(The crisis status has been updated !)</text>
      <line clip-path="url(#clipPath86)" fill="none" x1="772" x2="779" y1="974" y2="971" />
      <line clip-path="url(#clipPath86)" fill="none" x1="779" x2="772" y1="971" y2="968" />
      <line clip-path="url(#clipPath52)" fill="none" x1="779" x2="215" y1="1091" y2="1091" stroke-dasharray="5,5" />
      <text x="243" y="1086" clip-path="url(#clipPath87)" fill="black" stroke-dasharray="5,5" stroke="none" xml:space="preserve">ieMessage(The crisis comment has been updated !)</text>
      <line clip-path="url(#clipPath88)" fill="none" x1="772" x2="779" y1="1094" y2="1091" />
      <line clip-path="url(#clipPath88)" fill="none" x1="779" x2="772" y1="1091" y2="1088" />
      <line clip-path="url(#clipPath52)" fill="none" x1="779" x2="215" y1="1211" y2="1211" stroke-dasharray="5,5" />
      <text x="272" y="1208" clip-path="url(#clipPath89)" fill="black" stroke-dasharray="5,5" stroke="none" xml:space="preserve">ieMessage(The crisis is now closed !)</text>
      <line clip-path="url(#clipPath90)" fill="none" x1="772" x2="779" y1="1214" y2="1211" />
      <line clip-path="url(#clipPath90)" fill="none" x1="779" x2="772" y1="1211" y2="1208" />
    </g>
  </g>
</svg>

