<?xml version="1.0" encoding="UTF-8"?>
<svg xmlns="http://www.w3.org/2000/svg" xmlns:xlink="http://www.w3.org/1999/xlink" stroke-dasharray="none" shape-rendering="auto" font-family="'Dialog'" width="815" text-rendering="auto" fill-opacity="1" contentScriptType="text/ecmascript" color-interpolation="auto" color-rendering="auto" preserveAspectRatio="xMidYMid meet" font-size="12" viewBox="0 0 815 1311" fill="black" stroke="black" image-rendering="auto" stroke-miterlimit="10" zoomAndPan="magnify" version="1.0" stroke-linecap="square" stroke-linejoin="miter" contentStyleType="text/css" font-style="normal" height="1311" stroke-width="1" stroke-dashoffset="0" font-weight="normal" stroke-opacity="1">
  <!--Generated by the Batik Graphics2D SVG Generator-->
  <defs id="genericDefs" />
  <g>
    <defs id="defs1">
      <clipPath clipPathUnits="userSpaceOnUse" id="clipPath1">
        <path d="M560 9 L679 9 L679 61 L560 61 L560 9 Z" />
      </clipPath>
      <clipPath clipPathUnits="userSpaceOnUse" id="clipPath2">
        <path d="M560 9 L682 9 L682 61 L560 61 L560 9 Z" />
      </clipPath>
      <clipPath clipPathUnits="userSpaceOnUse" id="clipPath3">
        <path d="M613 59 L625 59 L625 1302 L613 1302 L613 59 Z" />
      </clipPath>
      <clipPath clipPathUnits="userSpaceOnUse" id="clipPath4">
        <path d="M608 89 L630 89 L630 131 L608 131 L608 89 Z" />
      </clipPath>
      <clipPath clipPathUnits="userSpaceOnUse" id="clipPath5">
        <path d="M629 89 L666 89 L666 107 L629 107 L629 89 Z" />
      </clipPath>
      <clipPath clipPathUnits="userSpaceOnUse" id="clipPath6">
        <path d="M608 209 L630 209 L630 251 L608 251 L608 209 Z" />
      </clipPath>
      <clipPath clipPathUnits="userSpaceOnUse" id="clipPath7">
        <path d="M629 209 L666 209 L666 227 L629 227 L629 209 Z" />
      </clipPath>
      <clipPath clipPathUnits="userSpaceOnUse" id="clipPath8">
        <path d="M608 329 L630 329 L630 371 L608 371 L608 329 Z" />
      </clipPath>
      <clipPath clipPathUnits="userSpaceOnUse" id="clipPath9">
        <path d="M629 329 L666 329 L666 347 L629 347 L629 329 Z" />
      </clipPath>
      <clipPath clipPathUnits="userSpaceOnUse" id="clipPath10">
        <path d="M608 570 L630 570 L630 612 L608 612 L608 570 Z" />
      </clipPath>
      <clipPath clipPathUnits="userSpaceOnUse" id="clipPath11">
        <path d="M629 570 L666 570 L666 588 L629 588 L629 570 Z" />
      </clipPath>
      <clipPath clipPathUnits="userSpaceOnUse" id="clipPath12">
        <path d="M608 910 L630 910 L630 952 L608 952 L608 910 Z" />
      </clipPath>
      <clipPath clipPathUnits="userSpaceOnUse" id="clipPath13">
        <path d="M629 910 L666 910 L666 928 L629 928 L629 910 Z" />
      </clipPath>
      <clipPath clipPathUnits="userSpaceOnUse" id="clipPath14">
        <path d="M608 1030 L630 1030 L630 1072 L608 1072 L608 1030 Z" />
      </clipPath>
      <clipPath clipPathUnits="userSpaceOnUse" id="clipPath15">
        <path d="M629 1030 L666 1030 L666 1048 L629 1048 L629 1030 Z" />
      </clipPath>
      <clipPath clipPathUnits="userSpaceOnUse" id="clipPath16">
        <path d="M608 1150 L630 1150 L630 1192 L608 1192 L608 1150 Z" />
      </clipPath>
      <clipPath clipPathUnits="userSpaceOnUse" id="clipPath17">
        <path d="M629 1150 L666 1150 L666 1168 L629 1168 L629 1150 Z" />
      </clipPath>
      <clipPath clipPathUnits="userSpaceOnUse" id="clipPath18">
        <path d="M608 139 L630 139 L630 181 L608 181 L608 139 Z" />
      </clipPath>
      <clipPath clipPathUnits="userSpaceOnUse" id="clipPath19">
        <path d="M629 139 L666 139 L666 157 L629 157 L629 139 Z" />
      </clipPath>
      <clipPath clipPathUnits="userSpaceOnUse" id="clipPath20">
        <path d="M608 257 L630 257 L630 299 L608 299 L608 257 Z" />
      </clipPath>
      <clipPath clipPathUnits="userSpaceOnUse" id="clipPath21">
        <path d="M629 257 L666 257 L666 275 L629 275 L629 257 Z" />
      </clipPath>
      <clipPath clipPathUnits="userSpaceOnUse" id="clipPath22">
        <path d="M608 443 L630 443 L630 485 L608 485 L608 443 Z" />
      </clipPath>
      <clipPath clipPathUnits="userSpaceOnUse" id="clipPath23">
        <path d="M629 443 L666 443 L666 461 L629 461 L629 443 Z" />
      </clipPath>
      <clipPath clipPathUnits="userSpaceOnUse" id="clipPath24">
        <path d="M608 630 L630 630 L630 672 L608 672 L608 630 Z" />
      </clipPath>
      <clipPath clipPathUnits="userSpaceOnUse" id="clipPath25">
        <path d="M629 630 L666 630 L666 648 L629 648 L629 630 Z" />
      </clipPath>
      <clipPath clipPathUnits="userSpaceOnUse" id="clipPath26">
        <path d="M608 970 L630 970 L630 1012 L608 1012 L608 970 Z" />
      </clipPath>
      <clipPath clipPathUnits="userSpaceOnUse" id="clipPath27">
        <path d="M629 970 L666 970 L666 988 L629 988 L629 970 Z" />
      </clipPath>
      <clipPath clipPathUnits="userSpaceOnUse" id="clipPath28">
        <path d="M608 1090 L630 1090 L630 1132 L608 1132 L608 1090 Z" />
      </clipPath>
      <clipPath clipPathUnits="userSpaceOnUse" id="clipPath29">
        <path d="M629 1090 L666 1090 L666 1108 L629 1108 L629 1090 Z" />
      </clipPath>
      <clipPath clipPathUnits="userSpaceOnUse" id="clipPath30">
        <path d="M608 1210 L630 1210 L630 1252 L608 1252 L608 1210 Z" />
      </clipPath>
      <clipPath clipPathUnits="userSpaceOnUse" id="clipPath31">
        <path d="M629 1210 L666 1210 L666 1228 L629 1228 L629 1210 Z" />
      </clipPath>
      <clipPath clipPathUnits="userSpaceOnUse" id="clipPath32">
        <path d="M687 9 L806 9 L806 61 L687 61 L687 9 Z" />
      </clipPath>
      <clipPath clipPathUnits="userSpaceOnUse" id="clipPath33">
        <path d="M687 9 L809 9 L809 61 L687 61 L687 9 Z" />
      </clipPath>
      <clipPath clipPathUnits="userSpaceOnUse" id="clipPath34">
        <path d="M740 59 L752 59 L752 1302 L740 1302 L740 59 Z" />
      </clipPath>
      <clipPath clipPathUnits="userSpaceOnUse" id="clipPath35">
        <path d="M735 518 L757 518 L757 560 L735 560 L735 518 Z" />
      </clipPath>
      <clipPath clipPathUnits="userSpaceOnUse" id="clipPath36">
        <path d="M756 518 L793 518 L793 536 L756 536 L756 518 Z" />
      </clipPath>
      <clipPath clipPathUnits="userSpaceOnUse" id="clipPath37">
        <path d="M735 850 L757 850 L757 892 L735 892 L735 850 Z" />
      </clipPath>
      <clipPath clipPathUnits="userSpaceOnUse" id="clipPath38">
        <path d="M756 850 L793 850 L793 868 L756 868 L756 850 Z" />
      </clipPath>
      <clipPath clipPathUnits="userSpaceOnUse" id="clipPath39">
        <path d="M9 9 L81 9 L81 41 L9 41 L9 9 Z" />
      </clipPath>
      <clipPath clipPathUnits="userSpaceOnUse" id="clipPath40">
        <path d="M9 9 L84 9 L84 41 L9 41 L9 9 Z" />
      </clipPath>
      <clipPath clipPathUnits="userSpaceOnUse" id="clipPath41">
        <path d="M39 39 L51 39 L51 1302 L39 1302 L39 39 Z" />
      </clipPath>
      <clipPath clipPathUnits="userSpaceOnUse" id="clipPath42">
        <path d="M-1 -1 L816 -1 L816 1312 L-1 1312 L-1 -1 Z" />
      </clipPath>
      <clipPath clipPathUnits="userSpaceOnUse" id="clipPath43">
        <path d="M200 71 L457 71 L457 89 L200 89 L200 71 Z" />
      </clipPath>
      <clipPath clipPathUnits="userSpaceOnUse" id="clipPath44">
        <path d="M43 85 L55 85 L55 96 L43 96 L43 85 Z" />
      </clipPath>
      <clipPath clipPathUnits="userSpaceOnUse" id="clipPath45">
        <path d="M195 187 L350 187 L350 205 L195 205 L195 187 Z" />
      </clipPath>
      <clipPath clipPathUnits="userSpaceOnUse" id="clipPath46">
        <path d="M43 205 L55 205 L55 216 L43 216 L43 205 Z" />
      </clipPath>
      <clipPath clipPathUnits="userSpaceOnUse" id="clipPath47">
        <path d="M194 306 L334 306 L334 324 L194 324 L194 306 Z" />
      </clipPath>
      <clipPath clipPathUnits="userSpaceOnUse" id="clipPath48">
        <path d="M43 325 L55 325 L55 336 L43 336 L43 325 Z" />
      </clipPath>
      <clipPath clipPathUnits="userSpaceOnUse" id="clipPath49">
        <path d="M127 493 L354 493 L354 511 L127 511 L127 493 Z" />
      </clipPath>
      <clipPath clipPathUnits="userSpaceOnUse" id="clipPath50">
        <path d="M43 514 L55 514 L55 525 L43 525 L43 514 Z" />
      </clipPath>
      <clipPath clipPathUnits="userSpaceOnUse" id="clipPath51">
        <path d="M193 547 L310 547 L310 565 L193 565 L193 547 Z" />
      </clipPath>
      <clipPath clipPathUnits="userSpaceOnUse" id="clipPath52">
        <path d="M43 566 L55 566 L55 577 L43 577 L43 566 Z" />
      </clipPath>
      <clipPath clipPathUnits="userSpaceOnUse" id="clipPath53">
        <path d="M122 825 L349 825 L349 843 L122 843 L122 825 Z" />
      </clipPath>
      <clipPath clipPathUnits="userSpaceOnUse" id="clipPath54">
        <path d="M43 846 L55 846 L55 857 L43 857 L43 846 Z" />
      </clipPath>
      <clipPath clipPathUnits="userSpaceOnUse" id="clipPath55">
        <path d="M194 887 L369 887 L369 905 L194 905 L194 887 Z" />
      </clipPath>
      <clipPath clipPathUnits="userSpaceOnUse" id="clipPath56">
        <path d="M43 906 L55 906 L55 917 L43 917 L43 906 Z" />
      </clipPath>
      <clipPath clipPathUnits="userSpaceOnUse" id="clipPath57">
        <path d="M203 1010 L791 1010 L791 1028 L203 1028 L203 1010 Z" />
      </clipPath>
      <clipPath clipPathUnits="userSpaceOnUse" id="clipPath58">
        <path d="M43 1026 L55 1026 L55 1037 L43 1037 L43 1026 Z" />
      </clipPath>
      <clipPath clipPathUnits="userSpaceOnUse" id="clipPath59">
        <path d="M185 1127 L292 1127 L292 1145 L185 1145 L185 1127 Z" />
      </clipPath>
      <clipPath clipPathUnits="userSpaceOnUse" id="clipPath60">
        <path d="M43 1146 L55 1146 L55 1157 L43 1157 L43 1146 Z" />
      </clipPath>
      <clipPath clipPathUnits="userSpaceOnUse" id="clipPath61">
        <path d="M193 116 L449 116 L449 134 L193 134 L193 116 Z" />
      </clipPath>
      <clipPath clipPathUnits="userSpaceOnUse" id="clipPath62">
        <path d="M600 135 L612 135 L612 146 L600 146 L600 135 Z" />
      </clipPath>
      <clipPath clipPathUnits="userSpaceOnUse" id="clipPath63">
        <path d="M189 236 L429 236 L429 254 L189 254 L189 236 Z" />
      </clipPath>
      <clipPath clipPathUnits="userSpaceOnUse" id="clipPath64">
        <path d="M600 253 L612 253 L612 264 L600 264 L600 253 Z" />
      </clipPath>
      <clipPath clipPathUnits="userSpaceOnUse" id="clipPath65">
        <path d="M200 416 L575 416 L575 434 L200 434 L200 416 Z" />
      </clipPath>
      <clipPath clipPathUnits="userSpaceOnUse" id="clipPath66">
        <path d="M600 439 L612 439 L612 450 L600 450 L600 439 Z" />
      </clipPath>
      <clipPath clipPathUnits="userSpaceOnUse" id="clipPath67">
        <path d="M195 611 L492 611 L492 629 L195 629 L195 611 Z" />
      </clipPath>
      <clipPath clipPathUnits="userSpaceOnUse" id="clipPath68">
        <path d="M600 626 L612 626 L612 637 L600 637 L600 626 Z" />
      </clipPath>
      <clipPath clipPathUnits="userSpaceOnUse" id="clipPath69">
        <path d="M196 945 L501 945 L501 963 L196 963 L196 945 Z" />
      </clipPath>
      <clipPath clipPathUnits="userSpaceOnUse" id="clipPath70">
        <path d="M600 966 L612 966 L612 977 L600 977 L600 966 Z" />
      </clipPath>
      <clipPath clipPathUnits="userSpaceOnUse" id="clipPath71">
        <path d="M196 1068 L521 1068 L521 1086 L196 1086 L196 1068 Z" />
      </clipPath>
      <clipPath clipPathUnits="userSpaceOnUse" id="clipPath72">
        <path d="M600 1086 L612 1086 L612 1097 L600 1097 L600 1086 Z" />
      </clipPath>
      <clipPath clipPathUnits="userSpaceOnUse" id="clipPath73">
        <path d="M190 1190 L427 1190 L427 1208 L190 1208 L190 1190 Z" />
      </clipPath>
      <clipPath clipPathUnits="userSpaceOnUse" id="clipPath74">
        <path d="M600 1206 L612 1206 L612 1217 L600 1217 L600 1206 Z" />
      </clipPath>
    </defs>
    <g font-size="23" fill="rgb(255,245,181)" font-family="'Lucida Sans'" stroke-linejoin="round" stroke="rgb(255,245,181)" stroke-width="0" stroke-miterlimit="0">
      <rect x="561" y="10" clip-path="url(#clipPath1)" width="117" height="50" stroke="none" />
    </g>
    <g stroke-width="0.1" font-size="23" font-family="'Lucida Sans'" stroke-linecap="butt">
      <rect x="561" y="10" clip-path="url(#clipPath1)" fill="none" width="116" height="49" />
      <text x="602" font-size="13" y="34" clip-path="url(#clipPath2)" font-family="'Lucida Sans Unicode'" stroke="none" xml:space="preserve">steve</text>
      <text x="568" font-size="13" y="50" clip-path="url(#clipPath2)" font-family="'Lucida Sans Unicode'" stroke="none" xml:space="preserve">: actCoordinator</text>
      <line clip-path="url(#clipPath3)" fill="none" x1="618" x2="618" y1="60" y2="1301" stroke-dasharray="10,10" stroke-width="1.1" />
    </g>
    <g stroke-linecap="butt" font-size="23" fill="rgb(77,137,20)" font-family="'Lucida Sans'" stroke-dasharray="10,10" stroke="rgb(77,137,20)" stroke-width="1.1">
      <rect x="609" y="90" clip-path="url(#clipPath4)" width="20" height="40" stroke="none" />
      <rect x="610" y="91" clip-path="url(#clipPath4)" fill="none" width="18" stroke-dasharray="none" height="38" stroke-width="2.1" />
    </g>
    <g stroke-linecap="butt" font-size="13" fill="rgb(77,137,20)" font-family="'Lucida Sans Unicode'" stroke="rgb(77,137,20)" stroke-width="2.1">
      <text xml:space="preserve" x="630" y="105" clip-path="url(#clipPath5)" stroke="none">tsi10</text>
      <rect x="609" y="210" clip-path="url(#clipPath6)" width="20" height="40" stroke="none" />
      <rect x="610" y="211" clip-path="url(#clipPath6)" fill="none" width="18" height="38" />
      <text xml:space="preserve" x="630" y="225" clip-path="url(#clipPath7)" stroke="none">tsi11</text>
      <rect x="609" y="330" clip-path="url(#clipPath8)" width="20" height="40" stroke="none" />
      <rect x="610" y="331" clip-path="url(#clipPath8)" fill="none" width="18" height="38" />
      <text xml:space="preserve" x="630" y="345" clip-path="url(#clipPath9)" stroke="none">tsi12</text>
      <rect x="609" y="571" clip-path="url(#clipPath10)" width="20" height="40" stroke="none" />
      <rect x="610" y="572" clip-path="url(#clipPath10)" fill="none" width="18" height="38" />
      <text xml:space="preserve" x="630" y="586" clip-path="url(#clipPath11)" stroke="none">tsi14</text>
      <rect x="609" y="911" clip-path="url(#clipPath12)" width="20" height="40" stroke="none" />
      <rect x="610" y="912" clip-path="url(#clipPath12)" fill="none" width="18" height="38" />
      <text xml:space="preserve" x="630" y="926" clip-path="url(#clipPath13)" stroke="none">tsi17</text>
      <rect x="609" y="1031" clip-path="url(#clipPath14)" width="20" height="40" stroke="none" />
      <rect x="610" y="1032" clip-path="url(#clipPath14)" fill="none" width="18" height="38" />
      <text xml:space="preserve" x="630" y="1046" clip-path="url(#clipPath15)" stroke="none">tsi18</text>
      <rect x="609" y="1151" clip-path="url(#clipPath16)" width="20" height="40" stroke="none" />
      <rect x="610" y="1152" clip-path="url(#clipPath16)" fill="none" width="18" height="38" />
      <text xml:space="preserve" x="630" y="1166" clip-path="url(#clipPath17)" stroke="none">tsi19</text>
    </g>
    <g stroke-linecap="butt" font-size="23" fill="rgb(204,242,166)" font-family="'Lucida Sans'" stroke="rgb(204,242,166)" stroke-width="2.1">
      <rect x="609" y="140" clip-path="url(#clipPath18)" width="20" height="40" stroke="none" />
      <rect x="609" y="140" clip-path="url(#clipPath18)" fill="none" width="19" height="39" stroke="rgb(209,209,209)" stroke-width="0.1" />
    </g>
    <g stroke-linecap="butt" font-size="13" fill="rgb(77,137,20)" font-family="'Lucida Sans Unicode'" stroke="rgb(77,137,20)" stroke-width="0.1">
      <text xml:space="preserve" x="630" y="155" clip-path="url(#clipPath19)" stroke="none">tsi10</text>
    </g>
    <g stroke-linecap="butt" font-size="23" fill="rgb(204,242,166)" font-family="'Lucida Sans'" stroke="rgb(204,242,166)" stroke-width="0.1">
      <rect x="609" y="258" clip-path="url(#clipPath20)" width="20" height="40" stroke="none" />
      <rect x="609" y="258" clip-path="url(#clipPath20)" fill="none" width="19" height="39" stroke="rgb(209,209,209)" />
    </g>
    <g stroke-linecap="butt" font-size="13" fill="rgb(77,137,20)" font-family="'Lucida Sans Unicode'" stroke="rgb(77,137,20)" stroke-width="0.1">
      <text xml:space="preserve" x="630" y="273" clip-path="url(#clipPath21)" stroke="none">tsi11</text>
    </g>
    <g stroke-linecap="butt" font-size="23" fill="rgb(204,242,166)" font-family="'Lucida Sans'" stroke="rgb(204,242,166)" stroke-width="0.1">
      <rect x="609" y="444" clip-path="url(#clipPath22)" width="20" height="40" stroke="none" />
      <rect x="609" y="444" clip-path="url(#clipPath22)" fill="none" width="19" height="39" stroke="rgb(209,209,209)" />
    </g>
    <g stroke-linecap="butt" font-size="13" fill="rgb(77,137,20)" font-family="'Lucida Sans Unicode'" stroke="rgb(77,137,20)" stroke-width="0.1">
      <text xml:space="preserve" x="630" y="459" clip-path="url(#clipPath23)" stroke="none">tsi12</text>
    </g>
    <g stroke-linecap="butt" font-size="23" fill="rgb(204,242,166)" font-family="'Lucida Sans'" stroke="rgb(204,242,166)" stroke-width="0.1">
      <rect x="609" y="631" clip-path="url(#clipPath24)" width="20" height="40" stroke="none" />
      <rect x="609" y="631" clip-path="url(#clipPath24)" fill="none" width="19" height="39" stroke="rgb(209,209,209)" />
    </g>
    <g stroke-linecap="butt" font-size="13" fill="rgb(77,137,20)" font-family="'Lucida Sans Unicode'" stroke="rgb(77,137,20)" stroke-width="0.1">
      <text xml:space="preserve" x="630" y="646" clip-path="url(#clipPath25)" stroke="none">tsi14</text>
    </g>
    <g stroke-linecap="butt" font-size="23" fill="rgb(204,242,166)" font-family="'Lucida Sans'" stroke="rgb(204,242,166)" stroke-width="0.1">
      <rect x="609" y="971" clip-path="url(#clipPath26)" width="20" height="40" stroke="none" />
      <rect x="609" y="971" clip-path="url(#clipPath26)" fill="none" width="19" height="39" stroke="rgb(209,209,209)" />
    </g>
    <g stroke-linecap="butt" font-size="13" fill="rgb(77,137,20)" font-family="'Lucida Sans Unicode'" stroke="rgb(77,137,20)" stroke-width="0.1">
      <text xml:space="preserve" x="630" y="986" clip-path="url(#clipPath27)" stroke="none">tsi17</text>
    </g>
    <g stroke-linecap="butt" font-size="23" fill="rgb(204,242,166)" font-family="'Lucida Sans'" stroke="rgb(204,242,166)" stroke-width="0.1">
      <rect x="609" y="1091" clip-path="url(#clipPath28)" width="20" height="40" stroke="none" />
      <rect x="609" y="1091" clip-path="url(#clipPath28)" fill="none" width="19" height="39" stroke="rgb(209,209,209)" />
    </g>
    <g stroke-linecap="butt" font-size="13" fill="rgb(77,137,20)" font-family="'Lucida Sans Unicode'" stroke="rgb(77,137,20)" stroke-width="0.1">
      <text xml:space="preserve" x="630" y="1106" clip-path="url(#clipPath29)" stroke="none">tsi18</text>
    </g>
    <g stroke-linecap="butt" font-size="23" fill="rgb(204,242,166)" font-family="'Lucida Sans'" stroke="rgb(204,242,166)" stroke-width="0.1">
      <rect x="609" y="1211" clip-path="url(#clipPath30)" width="20" height="40" stroke="none" />
      <rect x="609" y="1211" clip-path="url(#clipPath30)" fill="none" width="19" height="39" stroke="rgb(209,209,209)" />
    </g>
    <g stroke-linecap="butt" font-size="13" fill="rgb(77,137,20)" font-family="'Lucida Sans Unicode'" stroke="rgb(77,137,20)" stroke-width="0.1">
      <text xml:space="preserve" x="630" y="1226" clip-path="url(#clipPath31)" stroke="none">tsi19</text>
    </g>
    <g stroke-linecap="butt" font-size="23" fill="rgb(255,245,181)" font-family="'Lucida Sans'" stroke="rgb(255,245,181)" stroke-width="0.1">
      <rect x="688" y="10" clip-path="url(#clipPath32)" width="117" height="50" stroke="none" />
      <rect x="688" y="10" clip-path="url(#clipPath32)" fill="none" width="116" height="49" stroke="black" />
    </g>
    <g stroke-width="0.1" font-size="13" font-family="'Lucida Sans Unicode'" stroke-linecap="butt">
      <text xml:space="preserve" x="718" y="34" clip-path="url(#clipPath33)" stroke="none">theClock</text>
      <text xml:space="preserve" x="704" y="50" clip-path="url(#clipPath33)" stroke="none">: actActivator</text>
      <line clip-path="url(#clipPath34)" fill="none" x1="745" x2="745" y1="60" y2="1301" stroke-dasharray="10,10" stroke-width="1.1" />
    </g>
    <g stroke-linecap="butt" font-size="23" fill="rgb(77,137,20)" font-family="'Lucida Sans'" stroke-dasharray="10,10" stroke="rgb(77,137,20)" stroke-width="1.1">
      <rect x="736" y="519" clip-path="url(#clipPath35)" width="20" height="40" stroke="none" />
      <rect x="737" y="520" clip-path="url(#clipPath35)" fill="none" width="18" stroke-dasharray="none" height="38" stroke-width="2.1" />
    </g>
    <g stroke-linecap="butt" font-size="13" fill="rgb(77,137,20)" font-family="'Lucida Sans Unicode'" stroke="rgb(77,137,20)" stroke-width="2.1">
      <text xml:space="preserve" x="757" y="534" clip-path="url(#clipPath36)" stroke="none">tsi13</text>
      <rect x="736" y="851" clip-path="url(#clipPath37)" width="20" height="40" stroke="none" />
      <rect x="737" y="852" clip-path="url(#clipPath37)" fill="none" width="18" height="38" />
      <text xml:space="preserve" x="757" y="866" clip-path="url(#clipPath38)" stroke="none">tsi16</text>
    </g>
    <g stroke-linecap="butt" font-size="23" fill="rgb(238,201,142)" font-family="'Lucida Sans'" stroke="rgb(238,201,142)" stroke-width="2.1">
      <rect x="10" y="10" clip-path="url(#clipPath39)" width="70" height="30" stroke="none" />
      <rect x="10" y="10" clip-path="url(#clipPath39)" fill="none" width="69" height="29" stroke="black" stroke-width="0.1" />
    </g>
    <g stroke-width="0.1" font-size="13" font-family="'Lucida Sans Unicode'" stroke-linecap="butt">
      <text xml:space="preserve" x="22" y="32" clip-path="url(#clipPath40)" stroke="none">System</text>
      <line clip-path="url(#clipPath41)" fill="none" x1="44" x2="44" y1="40" y2="1301" stroke-dasharray="10,10" stroke-width="1.1" />
      <line clip-path="url(#clipPath42)" fill="none" x1="609" x2="45" y1="90" y2="90" stroke="rgb(136,136,136)" stroke-width="2.1" />
      <text x="201" y="87" clip-path="url(#clipPath43)" stroke="none" stroke-width="2.1" xml:space="preserve">oeLogin(steve,pwdMessirExcalibur2017)</text>
      <line clip-path="url(#clipPath44)" fill="none" x1="52" x2="45" y1="87" y2="90" stroke="rgb(136,136,136)" stroke-width="2.1" />
      <line clip-path="url(#clipPath44)" fill="none" x1="45" x2="52" y1="90" y2="93" stroke="rgb(136,136,136)" stroke-width="2.1" />
      <line clip-path="url(#clipPath42)" fill="none" x1="609" x2="45" y1="210" y2="210" stroke="rgb(136,136,136)" stroke-width="2.1" />
      <text x="196" y="203" clip-path="url(#clipPath45)" stroke="none" stroke-width="2.1" xml:space="preserve">oeGetCrisisSet(pending)</text>
      <line clip-path="url(#clipPath46)" fill="none" x1="52" x2="45" y1="207" y2="210" stroke="rgb(136,136,136)" stroke-width="2.1" />
      <line clip-path="url(#clipPath46)" fill="none" x1="45" x2="52" y1="210" y2="213" stroke="rgb(136,136,136)" stroke-width="2.1" />
      <line clip-path="url(#clipPath42)" fill="none" x1="609" x2="45" y1="330" y2="330" stroke="rgb(136,136,136)" stroke-width="2.1" />
      <text x="195" y="322" clip-path="url(#clipPath47)" stroke="none" stroke-width="2.1" xml:space="preserve">oeSetCrisisHandler(1)</text>
      <line clip-path="url(#clipPath48)" fill="none" x1="52" x2="45" y1="327" y2="330" stroke="rgb(136,136,136)" stroke-width="2.1" />
      <line clip-path="url(#clipPath48)" fill="none" x1="45" x2="52" y1="330" y2="333" stroke="rgb(136,136,136)" stroke-width="2.1" />
      <line clip-path="url(#clipPath42)" fill="none" x1="736" x2="45" y1="519" y2="519" stroke="rgb(136,136,136)" stroke-width="2.1" />
      <text x="128" y="509" clip-path="url(#clipPath49)" stroke="none" stroke-width="2.1" xml:space="preserve">oeSetClock(2017:11:26 - 10:45:00)</text>
      <line clip-path="url(#clipPath50)" fill="none" x1="52" x2="45" y1="516" y2="519" stroke="rgb(136,136,136)" stroke-width="2.1" />
      <line clip-path="url(#clipPath50)" fill="none" x1="45" x2="52" y1="519" y2="522" stroke="rgb(136,136,136)" stroke-width="2.1" />
      <line clip-path="url(#clipPath42)" fill="none" x1="609" x2="45" y1="571" y2="571" stroke="rgb(136,136,136)" stroke-width="2.1" />
      <text x="194" y="563" clip-path="url(#clipPath51)" stroke="none" stroke-width="2.1" xml:space="preserve">oeValidateAlert(1)</text>
      <line clip-path="url(#clipPath52)" fill="none" x1="52" x2="45" y1="568" y2="571" stroke="rgb(136,136,136)" stroke-width="2.1" />
      <line clip-path="url(#clipPath52)" fill="none" x1="45" x2="52" y1="571" y2="574" stroke="rgb(136,136,136)" stroke-width="2.1" />
      <line clip-path="url(#clipPath42)" fill="none" x1="736" x2="45" y1="851" y2="851" stroke="rgb(136,136,136)" stroke-width="2.1" />
      <text x="123" y="841" clip-path="url(#clipPath53)" stroke="none" stroke-width="2.1" xml:space="preserve">oeSetClock(2017:11:26 - 12:45:00)</text>
      <line clip-path="url(#clipPath54)" fill="none" x1="52" x2="45" y1="848" y2="851" stroke="rgb(136,136,136)" stroke-width="2.1" />
      <line clip-path="url(#clipPath54)" fill="none" x1="45" x2="52" y1="851" y2="854" stroke="rgb(136,136,136)" stroke-width="2.1" />
      <line clip-path="url(#clipPath42)" fill="none" x1="609" x2="45" y1="911" y2="911" stroke="rgb(136,136,136)" stroke-width="2.1" />
      <text x="195" y="903" clip-path="url(#clipPath55)" stroke="none" stroke-width="2.1" xml:space="preserve">oeSetCrisisStatus(1,solved)</text>
      <line clip-path="url(#clipPath56)" fill="none" x1="52" x2="45" y1="908" y2="911" stroke="rgb(136,136,136)" stroke-width="2.1" />
      <line clip-path="url(#clipPath56)" fill="none" x1="45" x2="52" y1="911" y2="914" stroke="rgb(136,136,136)" stroke-width="2.1" />
      <line clip-path="url(#clipPath42)" fill="none" x1="609" x2="45" y1="1031" y2="1031" stroke="rgb(136,136,136)" stroke-width="2.1" />
      <text x="204" y="1026" clip-path="url(#clipPath57)" stroke="none" stroke-width="2.1" xml:space="preserve">oeReportOnCrisis(1,3 victims sent to hospital, 2 cars evacuated and 4 rescue unit mobilized)</text>
      <line clip-path="url(#clipPath58)" fill="none" x1="52" x2="45" y1="1028" y2="1031" stroke="rgb(136,136,136)" stroke-width="2.1" />
      <line clip-path="url(#clipPath58)" fill="none" x1="45" x2="52" y1="1031" y2="1034" stroke="rgb(136,136,136)" stroke-width="2.1" />
      <line clip-path="url(#clipPath42)" fill="none" x1="609" x2="45" y1="1151" y2="1151" stroke="rgb(136,136,136)" stroke-width="2.1" />
      <text x="186" y="1143" clip-path="url(#clipPath59)" stroke="none" stroke-width="2.1" xml:space="preserve">oeCloseCrisis(1)</text>
      <line clip-path="url(#clipPath60)" fill="none" x1="52" x2="45" y1="1148" y2="1151" stroke="rgb(136,136,136)" stroke-width="2.1" />
      <line clip-path="url(#clipPath60)" fill="none" x1="45" x2="52" y1="1151" y2="1154" stroke="rgb(136,136,136)" stroke-width="2.1" />
    </g>
    <g stroke-linecap="butt" font-size="13" fill="rgb(136,136,136)" font-family="'Lucida Sans Unicode'" stroke-dasharray="5,5" stroke="rgb(136,136,136)" stroke-width="2.1">
      <line clip-path="url(#clipPath42)" fill="none" x1="609" x2="45" y1="140" y2="140" />
      <text x="194" y="132" clip-path="url(#clipPath61)" fill="black" stroke="none" xml:space="preserve">ieMessage(You are logged ! Welcome ...)</text>
      <line clip-path="url(#clipPath62)" fill="none" x1="602" x2="609" y1="143" y2="140" stroke-dasharray="none" />
      <line clip-path="url(#clipPath62)" fill="none" x1="609" x2="602" y1="140" y2="137" stroke-dasharray="none" />
      <line clip-path="url(#clipPath42)" fill="none" x1="609" x2="45" y1="258" y2="258" />
      <text x="190" y="252" clip-path="url(#clipPath63)" fill="black" stroke="none" xml:space="preserve">ieSendACrisis(crisis with ID 1 details)</text>
      <line clip-path="url(#clipPath64)" fill="none" x1="602" x2="609" y1="261" y2="258" stroke-dasharray="none" />
      <line clip-path="url(#clipPath64)" fill="none" x1="609" x2="602" y1="258" y2="255" stroke-dasharray="none" />
      <line clip-path="url(#clipPath42)" fill="none" x1="609" x2="45" y1="444" y2="444" />
      <text x="201" y="432" clip-path="url(#clipPath65)" fill="black" stroke="none" xml:space="preserve">ieMessage(You are now considered as handling the crisis !)</text>
      <line clip-path="url(#clipPath66)" fill="none" x1="602" x2="609" y1="447" y2="444" stroke-dasharray="none" />
      <line clip-path="url(#clipPath66)" fill="none" x1="609" x2="602" y1="444" y2="441" stroke-dasharray="none" />
      <line clip-path="url(#clipPath42)" fill="none" x1="609" x2="45" y1="631" y2="631" />
      <text x="196" y="627" clip-path="url(#clipPath67)" fill="black" stroke="none" xml:space="preserve">ieMessage(The Alert is now declared as valid !)</text>
      <line clip-path="url(#clipPath68)" fill="none" x1="602" x2="609" y1="634" y2="631" stroke-dasharray="none" />
      <line clip-path="url(#clipPath68)" fill="none" x1="609" x2="602" y1="631" y2="628" stroke-dasharray="none" />
      <line clip-path="url(#clipPath42)" fill="none" x1="609" x2="45" y1="971" y2="971" />
      <text x="197" y="961" clip-path="url(#clipPath69)" fill="black" stroke="none" xml:space="preserve">ieMessage(The crisis status has been updated !)</text>
      <line clip-path="url(#clipPath70)" fill="none" x1="602" x2="609" y1="974" y2="971" stroke-dasharray="none" />
      <line clip-path="url(#clipPath70)" fill="none" x1="609" x2="602" y1="971" y2="968" stroke-dasharray="none" />
      <line clip-path="url(#clipPath42)" fill="none" x1="609" x2="45" y1="1091" y2="1091" />
      <text x="197" y="1084" clip-path="url(#clipPath71)" fill="black" stroke="none" xml:space="preserve">ieMessage(The crisis comment has been updated !)</text>
      <line clip-path="url(#clipPath72)" fill="none" x1="602" x2="609" y1="1094" y2="1091" stroke-dasharray="none" />
      <line clip-path="url(#clipPath72)" fill="none" x1="609" x2="602" y1="1091" y2="1088" stroke-dasharray="none" />
      <line clip-path="url(#clipPath42)" fill="none" x1="609" x2="45" y1="1211" y2="1211" />
      <text x="191" y="1206" clip-path="url(#clipPath73)" fill="black" stroke="none" xml:space="preserve">ieMessage(The crisis is now closed !)</text>
      <line clip-path="url(#clipPath74)" fill="none" x1="602" x2="609" y1="1214" y2="1211" stroke-dasharray="none" />
      <line clip-path="url(#clipPath74)" fill="none" x1="609" x2="602" y1="1211" y2="1208" stroke-dasharray="none" />
    </g>
  </g>
</svg>

