<?xml version="1.0" encoding="UTF-8"?>
<svg xmlns="http://www.w3.org/2000/svg" xmlns:xlink="http://www.w3.org/1999/xlink" stroke-dasharray="none" shape-rendering="auto" font-family="'Dialog'" width="835" text-rendering="auto" fill-opacity="1" contentScriptType="text/ecmascript" color-interpolation="auto" color-rendering="auto" preserveAspectRatio="xMidYMid meet" font-size="12" viewBox="0 0 835 1311" fill="black" stroke="black" image-rendering="auto" stroke-miterlimit="10" zoomAndPan="magnify" version="1.0" stroke-linecap="square" stroke-linejoin="miter" contentStyleType="text/css" font-style="normal" height="1311" stroke-width="1" stroke-dashoffset="0" font-weight="normal" stroke-opacity="1">
  <!--Generated by the Batik Graphics2D SVG Generator-->
  <defs id="genericDefs" />
  <g>
    <defs id="defs1">
      <clipPath clipPathUnits="userSpaceOnUse" id="clipPath1">
        <path d="M560 9 L679 9 L679 61 L560 61 L560 9 Z" />
      </clipPath>
      <clipPath clipPathUnits="userSpaceOnUse" id="clipPath2">
        <path d="M560 9 L682 9 L682 61 L560 61 L560 9 Z" />
      </clipPath>
      <clipPath clipPathUnits="userSpaceOnUse" id="clipPath3">
        <path d="M613 59 L625 59 L625 1302 L613 1302 L613 59 Z" />
      </clipPath>
      <clipPath clipPathUnits="userSpaceOnUse" id="clipPath4">
        <path d="M608 89 L630 89 L630 131 L608 131 L608 89 Z" />
      </clipPath>
      <clipPath clipPathUnits="userSpaceOnUse" id="clipPath5">
        <path d="M629 89 L668 89 L668 107 L629 107 L629 89 Z" />
      </clipPath>
      <clipPath clipPathUnits="userSpaceOnUse" id="clipPath6">
        <path d="M608 209 L630 209 L630 251 L608 251 L608 209 Z" />
      </clipPath>
      <clipPath clipPathUnits="userSpaceOnUse" id="clipPath7">
        <path d="M629 209 L668 209 L668 227 L629 227 L629 209 Z" />
      </clipPath>
      <clipPath clipPathUnits="userSpaceOnUse" id="clipPath8">
        <path d="M608 329 L630 329 L630 371 L608 371 L608 329 Z" />
      </clipPath>
      <clipPath clipPathUnits="userSpaceOnUse" id="clipPath9">
        <path d="M629 329 L668 329 L668 347 L629 347 L629 329 Z" />
      </clipPath>
      <clipPath clipPathUnits="userSpaceOnUse" id="clipPath10">
        <path d="M608 570 L630 570 L630 612 L608 612 L608 570 Z" />
      </clipPath>
      <clipPath clipPathUnits="userSpaceOnUse" id="clipPath11">
        <path d="M629 570 L668 570 L668 588 L629 588 L629 570 Z" />
      </clipPath>
      <clipPath clipPathUnits="userSpaceOnUse" id="clipPath12">
        <path d="M608 910 L630 910 L630 952 L608 952 L608 910 Z" />
      </clipPath>
      <clipPath clipPathUnits="userSpaceOnUse" id="clipPath13">
        <path d="M629 910 L668 910 L668 928 L629 928 L629 910 Z" />
      </clipPath>
      <clipPath clipPathUnits="userSpaceOnUse" id="clipPath14">
        <path d="M608 1030 L630 1030 L630 1072 L608 1072 L608 1030 Z" />
      </clipPath>
      <clipPath clipPathUnits="userSpaceOnUse" id="clipPath15">
        <path d="M629 1030 L668 1030 L668 1048 L629 1048 L629 1030 Z" />
      </clipPath>
      <clipPath clipPathUnits="userSpaceOnUse" id="clipPath16">
        <path d="M608 1150 L630 1150 L630 1192 L608 1192 L608 1150 Z" />
      </clipPath>
      <clipPath clipPathUnits="userSpaceOnUse" id="clipPath17">
        <path d="M629 1150 L668 1150 L668 1168 L629 1168 L629 1150 Z" />
      </clipPath>
      <clipPath clipPathUnits="userSpaceOnUse" id="clipPath18">
        <path d="M608 139 L630 139 L630 181 L608 181 L608 139 Z" />
      </clipPath>
      <clipPath clipPathUnits="userSpaceOnUse" id="clipPath19">
        <path d="M629 139 L668 139 L668 157 L629 157 L629 139 Z" />
      </clipPath>
      <clipPath clipPathUnits="userSpaceOnUse" id="clipPath20">
        <path d="M608 257 L630 257 L630 299 L608 299 L608 257 Z" />
      </clipPath>
      <clipPath clipPathUnits="userSpaceOnUse" id="clipPath21">
        <path d="M629 257 L668 257 L668 275 L629 275 L629 257 Z" />
      </clipPath>
      <clipPath clipPathUnits="userSpaceOnUse" id="clipPath22">
        <path d="M608 443 L630 443 L630 485 L608 485 L608 443 Z" />
      </clipPath>
      <clipPath clipPathUnits="userSpaceOnUse" id="clipPath23">
        <path d="M629 443 L668 443 L668 461 L629 461 L629 443 Z" />
      </clipPath>
      <clipPath clipPathUnits="userSpaceOnUse" id="clipPath24">
        <path d="M608 630 L630 630 L630 672 L608 672 L608 630 Z" />
      </clipPath>
      <clipPath clipPathUnits="userSpaceOnUse" id="clipPath25">
        <path d="M629 630 L668 630 L668 648 L629 648 L629 630 Z" />
      </clipPath>
      <clipPath clipPathUnits="userSpaceOnUse" id="clipPath26">
        <path d="M608 970 L630 970 L630 1012 L608 1012 L608 970 Z" />
      </clipPath>
      <clipPath clipPathUnits="userSpaceOnUse" id="clipPath27">
        <path d="M629 970 L668 970 L668 988 L629 988 L629 970 Z" />
      </clipPath>
      <clipPath clipPathUnits="userSpaceOnUse" id="clipPath28">
        <path d="M608 1090 L630 1090 L630 1132 L608 1132 L608 1090 Z" />
      </clipPath>
      <clipPath clipPathUnits="userSpaceOnUse" id="clipPath29">
        <path d="M629 1090 L668 1090 L668 1108 L629 1108 L629 1090 Z" />
      </clipPath>
      <clipPath clipPathUnits="userSpaceOnUse" id="clipPath30">
        <path d="M608 1210 L630 1210 L630 1252 L608 1252 L608 1210 Z" />
      </clipPath>
      <clipPath clipPathUnits="userSpaceOnUse" id="clipPath31">
        <path d="M629 1210 L668 1210 L668 1228 L629 1228 L629 1210 Z" />
      </clipPath>
      <clipPath clipPathUnits="userSpaceOnUse" id="clipPath32">
        <path d="M422 9 L552 9 L552 61 L422 61 L422 9 Z" />
      </clipPath>
      <clipPath clipPathUnits="userSpaceOnUse" id="clipPath33">
        <path d="M422 9 L556 9 L556 61 L422 61 L422 9 Z" />
      </clipPath>
      <clipPath clipPathUnits="userSpaceOnUse" id="clipPath34">
        <path d="M481 59 L493 59 L493 1302 L481 1302 L481 59 Z" />
      </clipPath>
      <clipPath clipPathUnits="userSpaceOnUse" id="clipPath35">
        <path d="M476 714 L498 714 L498 756 L476 756 L476 714 Z" />
      </clipPath>
      <clipPath clipPathUnits="userSpaceOnUse" id="clipPath36">
        <path d="M497 714 L536 714 L536 732 L497 732 L497 714 Z" />
      </clipPath>
      <clipPath clipPathUnits="userSpaceOnUse" id="clipPath37">
        <path d="M476 398 L498 398 L498 440 L476 440 L476 398 Z" />
      </clipPath>
      <clipPath clipPathUnits="userSpaceOnUse" id="clipPath38">
        <path d="M497 398 L536 398 L536 416 L497 416 L497 398 Z" />
      </clipPath>
      <clipPath clipPathUnits="userSpaceOnUse" id="clipPath39">
        <path d="M476 790 L498 790 L498 832 L476 832 L476 790 Z" />
      </clipPath>
      <clipPath clipPathUnits="userSpaceOnUse" id="clipPath40">
        <path d="M497 790 L536 790 L536 808 L497 808 L497 790 Z" />
      </clipPath>
      <clipPath clipPathUnits="userSpaceOnUse" id="clipPath41">
        <path d="M687 9 L806 9 L806 61 L687 61 L687 9 Z" />
      </clipPath>
      <clipPath clipPathUnits="userSpaceOnUse" id="clipPath42">
        <path d="M687 9 L809 9 L809 61 L687 61 L687 9 Z" />
      </clipPath>
      <clipPath clipPathUnits="userSpaceOnUse" id="clipPath43">
        <path d="M740 59 L752 59 L752 1302 L740 1302 L740 59 Z" />
      </clipPath>
      <clipPath clipPathUnits="userSpaceOnUse" id="clipPath44">
        <path d="M735 518 L757 518 L757 560 L735 560 L735 518 Z" />
      </clipPath>
      <clipPath clipPathUnits="userSpaceOnUse" id="clipPath45">
        <path d="M756 518 L795 518 L795 536 L756 536 L756 518 Z" />
      </clipPath>
      <clipPath clipPathUnits="userSpaceOnUse" id="clipPath46">
        <path d="M735 850 L757 850 L757 892 L735 892 L735 850 Z" />
      </clipPath>
      <clipPath clipPathUnits="userSpaceOnUse" id="clipPath47">
        <path d="M756 850 L795 850 L795 868 L756 868 L756 850 Z" />
      </clipPath>
      <clipPath clipPathUnits="userSpaceOnUse" id="clipPath48">
        <path d="M9 9 L81 9 L81 41 L9 41 L9 9 Z" />
      </clipPath>
      <clipPath clipPathUnits="userSpaceOnUse" id="clipPath49">
        <path d="M9 9 L85 9 L85 41 L9 41 L9 9 Z" />
      </clipPath>
      <clipPath clipPathUnits="userSpaceOnUse" id="clipPath50">
        <path d="M39 39 L51 39 L51 1302 L39 1302 L39 39 Z" />
      </clipPath>
      <clipPath clipPathUnits="userSpaceOnUse" id="clipPath51">
        <path d="M-1 -1 L836 -1 L836 1312 L-1 1312 L-1 -1 Z" />
      </clipPath>
      <clipPath clipPathUnits="userSpaceOnUse" id="clipPath52">
        <path d="M188 71 L470 71 L470 89 L188 89 L188 71 Z" />
      </clipPath>
      <clipPath clipPathUnits="userSpaceOnUse" id="clipPath53">
        <path d="M43 85 L55 85 L55 96 L43 96 L43 85 Z" />
      </clipPath>
      <clipPath clipPathUnits="userSpaceOnUse" id="clipPath54">
        <path d="M187 187 L358 187 L358 205 L187 205 L187 187 Z" />
      </clipPath>
      <clipPath clipPathUnits="userSpaceOnUse" id="clipPath55">
        <path d="M43 205 L55 205 L55 216 L43 216 L43 205 Z" />
      </clipPath>
      <clipPath clipPathUnits="userSpaceOnUse" id="clipPath56">
        <path d="M187 306 L341 306 L341 324 L187 324 L187 306 Z" />
      </clipPath>
      <clipPath clipPathUnits="userSpaceOnUse" id="clipPath57">
        <path d="M43 325 L55 325 L55 336 L43 336 L43 325 Z" />
      </clipPath>
      <clipPath clipPathUnits="userSpaceOnUse" id="clipPath58">
        <path d="M116 493 L365 493 L365 511 L116 511 L116 493 Z" />
      </clipPath>
      <clipPath clipPathUnits="userSpaceOnUse" id="clipPath59">
        <path d="M43 514 L55 514 L55 525 L43 525 L43 514 Z" />
      </clipPath>
      <clipPath clipPathUnits="userSpaceOnUse" id="clipPath60">
        <path d="M187 547 L316 547 L316 565 L187 565 L187 547 Z" />
      </clipPath>
      <clipPath clipPathUnits="userSpaceOnUse" id="clipPath61">
        <path d="M43 566 L55 566 L55 577 L43 577 L43 566 Z" />
      </clipPath>
      <clipPath clipPathUnits="userSpaceOnUse" id="clipPath62">
        <path d="M41 663 L452 663 L452 726 L41 726 L41 663 Z" />
      </clipPath>
      <clipPath clipPathUnits="userSpaceOnUse" id="clipPath63">
        <path d="M43 710 L55 710 L55 721 L43 721 L43 710 Z" />
      </clipPath>
      <clipPath clipPathUnits="userSpaceOnUse" id="clipPath64">
        <path d="M111 825 L360 825 L360 843 L111 843 L111 825 Z" />
      </clipPath>
      <clipPath clipPathUnits="userSpaceOnUse" id="clipPath65">
        <path d="M43 846 L55 846 L55 857 L43 857 L43 846 Z" />
      </clipPath>
      <clipPath clipPathUnits="userSpaceOnUse" id="clipPath66">
        <path d="M187 887 L377 887 L377 905 L187 905 L187 887 Z" />
      </clipPath>
      <clipPath clipPathUnits="userSpaceOnUse" id="clipPath67">
        <path d="M43 906 L55 906 L55 917 L43 917 L43 906 Z" />
      </clipPath>
      <clipPath clipPathUnits="userSpaceOnUse" id="clipPath68">
        <path d="M179 1010 L815 1010 L815 1028 L179 1028 L179 1010 Z" />
      </clipPath>
      <clipPath clipPathUnits="userSpaceOnUse" id="clipPath69">
        <path d="M43 1026 L55 1026 L55 1037 L43 1037 L43 1026 Z" />
      </clipPath>
      <clipPath clipPathUnits="userSpaceOnUse" id="clipPath70">
        <path d="M180 1127 L297 1127 L297 1145 L180 1145 L180 1127 Z" />
      </clipPath>
      <clipPath clipPathUnits="userSpaceOnUse" id="clipPath71">
        <path d="M43 1146 L55 1146 L55 1157 L43 1157 L43 1146 Z" />
      </clipPath>
      <clipPath clipPathUnits="userSpaceOnUse" id="clipPath72">
        <path d="M181 116 L461 116 L461 134 L181 134 L181 116 Z" />
      </clipPath>
      <clipPath clipPathUnits="userSpaceOnUse" id="clipPath73">
        <path d="M600 135 L612 135 L612 146 L600 146 L600 135 Z" />
      </clipPath>
      <clipPath clipPathUnits="userSpaceOnUse" id="clipPath74">
        <path d="M180 236 L437 236 L437 254 L180 254 L180 236 Z" />
      </clipPath>
      <clipPath clipPathUnits="userSpaceOnUse" id="clipPath75">
        <path d="M600 253 L612 253 L612 264 L600 264 L600 253 Z" />
      </clipPath>
      <clipPath clipPathUnits="userSpaceOnUse" id="clipPath76">
        <path d="M43 375 L654 375 L654 393 L43 393 L43 375 Z" />
      </clipPath>
      <clipPath clipPathUnits="userSpaceOnUse" id="clipPath77">
        <path d="M468 394 L480 394 L480 405 L468 405 L468 394 Z" />
      </clipPath>
      <clipPath clipPathUnits="userSpaceOnUse" id="clipPath78">
        <path d="M183 416 L592 416 L592 434 L183 434 L183 416 Z" />
      </clipPath>
      <clipPath clipPathUnits="userSpaceOnUse" id="clipPath79">
        <path d="M600 439 L612 439 L612 450 L600 450 L600 439 Z" />
      </clipPath>
      <clipPath clipPathUnits="userSpaceOnUse" id="clipPath80">
        <path d="M182 611 L505 611 L505 629 L182 629 L182 611 Z" />
      </clipPath>
      <clipPath clipPathUnits="userSpaceOnUse" id="clipPath81">
        <path d="M600 626 L612 626 L612 637 L600 637 L600 626 Z" />
      </clipPath>
      <clipPath clipPathUnits="userSpaceOnUse" id="clipPath82">
        <path d="M47 765 L766 765 L766 784 L47 784 L47 765 Z" />
      </clipPath>
      <clipPath clipPathUnits="userSpaceOnUse" id="clipPath83">
        <path d="M468 786 L480 786 L480 797 L468 797 L468 786 Z" />
      </clipPath>
      <clipPath clipPathUnits="userSpaceOnUse" id="clipPath84">
        <path d="M183 945 L514 945 L514 963 L183 963 L183 945 Z" />
      </clipPath>
      <clipPath clipPathUnits="userSpaceOnUse" id="clipPath85">
        <path d="M600 966 L612 966 L612 977 L600 977 L600 966 Z" />
      </clipPath>
      <clipPath clipPathUnits="userSpaceOnUse" id="clipPath86">
        <path d="M182 1068 L536 1068 L536 1086 L182 1086 L182 1068 Z" />
      </clipPath>
      <clipPath clipPathUnits="userSpaceOnUse" id="clipPath87">
        <path d="M600 1086 L612 1086 L612 1097 L600 1097 L600 1086 Z" />
      </clipPath>
      <clipPath clipPathUnits="userSpaceOnUse" id="clipPath88">
        <path d="M181 1190 L436 1190 L436 1208 L181 1208 L181 1190 Z" />
      </clipPath>
      <clipPath clipPathUnits="userSpaceOnUse" id="clipPath89">
        <path d="M600 1206 L612 1206 L612 1217 L600 1217 L600 1206 Z" />
      </clipPath>
    </defs>
    <g font-size="14" fill="rgb(255,245,181)" font-family="'Lucida Sans'" stroke-linejoin="round" stroke="rgb(255,245,181)" stroke-width="0" stroke-miterlimit="0">
      <rect x="561" y="10" clip-path="url(#clipPath1)" width="117" height="50" stroke="none" />
    </g>
    <g stroke-width="0.1" font-size="14" font-family="'Lucida Sans'" stroke-linecap="butt">
      <rect x="561" y="10" clip-path="url(#clipPath1)" fill="none" width="116" height="49" />
      <text xml:space="preserve" x="601" y="33" clip-path="url(#clipPath2)" stroke="none">steve</text>
      <text xml:space="preserve" x="563" y="49" clip-path="url(#clipPath2)" stroke="none">: actCoordinator</text>
      <line clip-path="url(#clipPath3)" fill="none" x1="618" x2="618" y1="60" y2="1301" stroke-dasharray="10,10" stroke-width="1.1" />
    </g>
    <g stroke-linecap="butt" font-size="14" fill="rgb(77,137,20)" font-family="'Lucida Sans'" stroke-dasharray="10,10" stroke="rgb(77,137,20)" stroke-width="1.1">
      <rect x="609" y="90" clip-path="url(#clipPath4)" width="20" height="40" stroke="none" />
      <rect x="610" y="91" clip-path="url(#clipPath4)" fill="none" width="18" stroke-dasharray="none" height="38" stroke-width="2.1" />
      <text x="630" y="104" clip-path="url(#clipPath5)" stroke-dasharray="none" stroke="none" stroke-width="2.1" xml:space="preserve">tsi10</text>
      <rect x="609" y="210" clip-path="url(#clipPath6)" width="20" stroke-dasharray="none" height="40" stroke="none" stroke-width="2.1" />
      <rect x="610" y="211" clip-path="url(#clipPath6)" fill="none" width="18" stroke-dasharray="none" height="38" stroke-width="2.1" />
      <text x="630" y="224" clip-path="url(#clipPath7)" stroke-dasharray="none" stroke="none" stroke-width="2.1" xml:space="preserve">tsi11</text>
      <rect x="609" y="330" clip-path="url(#clipPath8)" width="20" stroke-dasharray="none" height="40" stroke="none" stroke-width="2.1" />
      <rect x="610" y="331" clip-path="url(#clipPath8)" fill="none" width="18" stroke-dasharray="none" height="38" stroke-width="2.1" />
      <text x="630" y="344" clip-path="url(#clipPath9)" stroke-dasharray="none" stroke="none" stroke-width="2.1" xml:space="preserve">tsi12</text>
      <rect x="609" y="571" clip-path="url(#clipPath10)" width="20" stroke-dasharray="none" height="40" stroke="none" stroke-width="2.1" />
      <rect x="610" y="572" clip-path="url(#clipPath10)" fill="none" width="18" stroke-dasharray="none" height="38" stroke-width="2.1" />
      <text x="630" y="585" clip-path="url(#clipPath11)" stroke-dasharray="none" stroke="none" stroke-width="2.1" xml:space="preserve">tsi14</text>
      <rect x="609" y="911" clip-path="url(#clipPath12)" width="20" stroke-dasharray="none" height="40" stroke="none" stroke-width="2.1" />
      <rect x="610" y="912" clip-path="url(#clipPath12)" fill="none" width="18" stroke-dasharray="none" height="38" stroke-width="2.1" />
      <text x="630" y="925" clip-path="url(#clipPath13)" stroke-dasharray="none" stroke="none" stroke-width="2.1" xml:space="preserve">tsi17</text>
      <rect x="609" y="1031" clip-path="url(#clipPath14)" width="20" stroke-dasharray="none" height="40" stroke="none" stroke-width="2.1" />
      <rect x="610" y="1032" clip-path="url(#clipPath14)" fill="none" width="18" stroke-dasharray="none" height="38" stroke-width="2.1" />
      <text x="630" y="1045" clip-path="url(#clipPath15)" stroke-dasharray="none" stroke="none" stroke-width="2.1" xml:space="preserve">tsi18</text>
      <rect x="609" y="1151" clip-path="url(#clipPath16)" width="20" stroke-dasharray="none" height="40" stroke="none" stroke-width="2.1" />
      <rect x="610" y="1152" clip-path="url(#clipPath16)" fill="none" width="18" stroke-dasharray="none" height="38" stroke-width="2.1" />
      <text x="630" y="1165" clip-path="url(#clipPath17)" stroke-dasharray="none" stroke="none" stroke-width="2.1" xml:space="preserve">tsi19</text>
    </g>
    <g stroke-linecap="butt" font-size="14" fill="rgb(204,242,166)" font-family="'Lucida Sans'" stroke="rgb(204,242,166)" stroke-width="2.1">
      <rect x="609" y="140" clip-path="url(#clipPath18)" width="20" height="40" stroke="none" />
      <rect x="609" y="140" clip-path="url(#clipPath18)" fill="none" width="19" height="39" stroke="rgb(209,209,209)" stroke-width="0.1" />
      <text x="630" y="154" clip-path="url(#clipPath19)" fill="rgb(77,137,20)" stroke="none" stroke-width="0.1" xml:space="preserve">tsi10</text>
      <rect x="609" y="258" clip-path="url(#clipPath20)" width="20" height="40" stroke="none" stroke-width="0.1" />
      <rect x="609" y="258" clip-path="url(#clipPath20)" fill="none" width="19" height="39" stroke="rgb(209,209,209)" stroke-width="0.1" />
      <text x="630" y="272" clip-path="url(#clipPath21)" fill="rgb(77,137,20)" stroke="none" stroke-width="0.1" xml:space="preserve">tsi11</text>
      <rect x="609" y="444" clip-path="url(#clipPath22)" width="20" height="40" stroke="none" stroke-width="0.1" />
      <rect x="609" y="444" clip-path="url(#clipPath22)" fill="none" width="19" height="39" stroke="rgb(209,209,209)" stroke-width="0.1" />
      <text x="630" y="458" clip-path="url(#clipPath23)" fill="rgb(77,137,20)" stroke="none" stroke-width="0.1" xml:space="preserve">tsi12</text>
      <rect x="609" y="631" clip-path="url(#clipPath24)" width="20" height="40" stroke="none" stroke-width="0.1" />
      <rect x="609" y="631" clip-path="url(#clipPath24)" fill="none" width="19" height="39" stroke="rgb(209,209,209)" stroke-width="0.1" />
      <text x="630" y="645" clip-path="url(#clipPath25)" fill="rgb(77,137,20)" stroke="none" stroke-width="0.1" xml:space="preserve">tsi14</text>
      <rect x="609" y="971" clip-path="url(#clipPath26)" width="20" height="40" stroke="none" stroke-width="0.1" />
      <rect x="609" y="971" clip-path="url(#clipPath26)" fill="none" width="19" height="39" stroke="rgb(209,209,209)" stroke-width="0.1" />
      <text x="630" y="985" clip-path="url(#clipPath27)" fill="rgb(77,137,20)" stroke="none" stroke-width="0.1" xml:space="preserve">tsi17</text>
      <rect x="609" y="1091" clip-path="url(#clipPath28)" width="20" height="40" stroke="none" stroke-width="0.1" />
      <rect x="609" y="1091" clip-path="url(#clipPath28)" fill="none" width="19" height="39" stroke="rgb(209,209,209)" stroke-width="0.1" />
      <text x="630" y="1105" clip-path="url(#clipPath29)" fill="rgb(77,137,20)" stroke="none" stroke-width="0.1" xml:space="preserve">tsi18</text>
      <rect x="609" y="1211" clip-path="url(#clipPath30)" width="20" height="40" stroke="none" stroke-width="0.1" />
      <rect x="609" y="1211" clip-path="url(#clipPath30)" fill="none" width="19" height="39" stroke="rgb(209,209,209)" stroke-width="0.1" />
      <text x="630" y="1225" clip-path="url(#clipPath31)" fill="rgb(77,137,20)" stroke="none" stroke-width="0.1" xml:space="preserve">tsi19</text>
      <rect x="423" y="10" clip-path="url(#clipPath32)" fill="rgb(255,245,181)" width="128" height="50" stroke="none" stroke-width="0.1" />
      <rect x="423" y="10" clip-path="url(#clipPath32)" fill="none" width="127" height="49" stroke="black" stroke-width="0.1" />
      <text x="466" y="33" clip-path="url(#clipPath33)" fill="black" stroke="none" stroke-width="0.1" xml:space="preserve">tango</text>
      <text x="424" y="49" clip-path="url(#clipPath33)" fill="black" stroke="none" stroke-width="0.1" xml:space="preserve">: actComCompany</text>
    </g>
    <g stroke-width="1.1" font-size="14" stroke-dasharray="10,10" font-family="'Lucida Sans'" stroke-linecap="butt">
      <line clip-path="url(#clipPath34)" fill="none" x1="486" x2="486" y1="60" y2="1301" />
      <rect x="477" y="715" clip-path="url(#clipPath35)" fill="rgb(77,137,20)" width="20" height="40" stroke="none" />
    </g>
    <g stroke-linecap="butt" font-size="14" fill="rgb(77,137,20)" font-family="'Lucida Sans'" stroke="rgb(77,137,20)" stroke-width="2.1">
      <rect x="478" y="716" clip-path="url(#clipPath35)" fill="none" width="18" height="38" />
      <text xml:space="preserve" x="498" y="729" clip-path="url(#clipPath36)" stroke="none">tsi15</text>
      <rect x="477" y="399" clip-path="url(#clipPath37)" fill="rgb(204,242,166)" width="20" height="40" stroke="none" />
      <rect x="477" y="399" clip-path="url(#clipPath37)" fill="none" width="19" height="39" stroke="rgb(209,209,209)" stroke-width="0.1" />
      <text x="498" y="413" clip-path="url(#clipPath38)" stroke="none" stroke-width="0.1" xml:space="preserve">tsi12</text>
      <rect x="477" y="791" clip-path="url(#clipPath39)" fill="rgb(204,242,166)" width="20" height="40" stroke="none" stroke-width="0.1" />
      <rect x="477" y="791" clip-path="url(#clipPath39)" fill="none" width="19" height="39" stroke="rgb(209,209,209)" stroke-width="0.1" />
      <text x="498" y="805" clip-path="url(#clipPath40)" stroke="none" stroke-width="0.1" xml:space="preserve">tsi15</text>
      <rect x="688" y="10" clip-path="url(#clipPath41)" fill="rgb(255,245,181)" width="117" height="50" stroke="none" stroke-width="0.1" />
      <rect x="688" y="10" clip-path="url(#clipPath41)" fill="none" width="116" height="49" stroke="black" stroke-width="0.1" />
      <text x="716" y="33" clip-path="url(#clipPath42)" fill="black" stroke="none" stroke-width="0.1" xml:space="preserve">theClock</text>
      <text x="702" y="49" clip-path="url(#clipPath42)" fill="black" stroke="none" stroke-width="0.1" xml:space="preserve">: actActivator</text>
    </g>
    <g stroke-width="1.1" font-size="14" stroke-dasharray="10,10" font-family="'Lucida Sans'" stroke-linecap="butt">
      <line clip-path="url(#clipPath43)" fill="none" x1="745" x2="745" y1="60" y2="1301" />
      <rect x="736" y="519" clip-path="url(#clipPath44)" fill="rgb(77,137,20)" width="20" height="40" stroke="none" />
    </g>
    <g stroke-linecap="butt" font-size="14" fill="rgb(77,137,20)" font-family="'Lucida Sans'" stroke="rgb(77,137,20)" stroke-width="2.1">
      <rect x="737" y="520" clip-path="url(#clipPath44)" fill="none" width="18" height="38" />
      <text xml:space="preserve" x="757" y="533" clip-path="url(#clipPath45)" stroke="none">tsi13</text>
      <rect x="736" y="851" clip-path="url(#clipPath46)" width="20" height="40" stroke="none" />
      <rect x="737" y="852" clip-path="url(#clipPath46)" fill="none" width="18" height="38" />
      <text xml:space="preserve" x="757" y="865" clip-path="url(#clipPath47)" stroke="none">tsi16</text>
      <rect x="10" y="10" clip-path="url(#clipPath48)" fill="rgb(238,201,142)" width="70" height="30" stroke="none" />
      <rect x="10" y="10" clip-path="url(#clipPath48)" fill="none" width="69" height="29" stroke="black" stroke-width="0.1" />
      <text x="21" y="31" clip-path="url(#clipPath49)" fill="black" stroke="none" stroke-width="0.1" xml:space="preserve">System</text>
    </g>
    <g stroke-width="1.1" font-size="14" stroke-dasharray="10,10" font-family="'Lucida Sans'" stroke-linecap="butt">
      <line clip-path="url(#clipPath50)" fill="none" x1="44" x2="44" y1="40" y2="1301" />
    </g>
    <g stroke-linecap="butt" font-size="14" fill="rgb(136,136,136)" font-family="'Lucida Sans'" stroke="rgb(136,136,136)" stroke-width="2.1">
      <line clip-path="url(#clipPath51)" fill="none" x1="609" x2="45" y1="90" y2="90" />
      <text x="189" y="86" clip-path="url(#clipPath52)" fill="black" stroke="none" xml:space="preserve">oeLogin(steve,pwdMessirExcalibur2017)</text>
      <line clip-path="url(#clipPath53)" fill="none" x1="52" x2="45" y1="87" y2="90" />
      <line clip-path="url(#clipPath53)" fill="none" x1="45" x2="52" y1="90" y2="93" />
      <line clip-path="url(#clipPath51)" fill="none" x1="609" x2="45" y1="210" y2="210" />
      <text x="188" y="202" clip-path="url(#clipPath54)" fill="black" stroke="none" xml:space="preserve">oeGetCrisisSet(pending)</text>
      <line clip-path="url(#clipPath55)" fill="none" x1="52" x2="45" y1="207" y2="210" />
      <line clip-path="url(#clipPath55)" fill="none" x1="45" x2="52" y1="210" y2="213" />
      <line clip-path="url(#clipPath51)" fill="none" x1="609" x2="45" y1="330" y2="330" />
      <text x="188" y="321" clip-path="url(#clipPath56)" fill="black" stroke="none" xml:space="preserve">oeSetCrisisHandler(1)</text>
      <line clip-path="url(#clipPath57)" fill="none" x1="52" x2="45" y1="327" y2="330" />
      <line clip-path="url(#clipPath57)" fill="none" x1="45" x2="52" y1="330" y2="333" />
      <line clip-path="url(#clipPath51)" fill="none" x1="736" x2="45" y1="519" y2="519" />
      <text x="117" y="508" clip-path="url(#clipPath58)" fill="black" stroke="none" xml:space="preserve">oeSetClock(2017:11:26 - 10:45:00)</text>
      <line clip-path="url(#clipPath59)" fill="none" x1="52" x2="45" y1="516" y2="519" />
      <line clip-path="url(#clipPath59)" fill="none" x1="45" x2="52" y1="519" y2="522" />
      <line clip-path="url(#clipPath51)" fill="none" x1="609" x2="45" y1="571" y2="571" />
      <text x="188" y="562" clip-path="url(#clipPath60)" fill="black" stroke="none" xml:space="preserve">oeValidateAlert(1)</text>
      <line clip-path="url(#clipPath61)" fill="none" x1="52" x2="45" y1="568" y2="571" />
      <line clip-path="url(#clipPath61)" fill="none" x1="45" x2="52" y1="571" y2="574" />
      <line clip-path="url(#clipPath51)" fill="none" x1="477" x2="45" y1="715" y2="715" />
      <text x="49" y="692" clip-path="url(#clipPath62)" fill="black" stroke="none" xml:space="preserve">oeAlert(witness,2017:11:26,10:20:00,+3524666445000,</text>
      <text x="76" y="708" clip-path="url(#clipPath62)" fill="black" stroke="none" xml:space="preserve">49.627095:6.160251,A car crash just happened.)</text>
      <line clip-path="url(#clipPath63)" fill="none" x1="52" x2="45" y1="712" y2="715" />
      <line clip-path="url(#clipPath63)" fill="none" x1="45" x2="52" y1="715" y2="718" />
      <line clip-path="url(#clipPath51)" fill="none" x1="736" x2="45" y1="851" y2="851" />
      <text x="112" y="840" clip-path="url(#clipPath64)" fill="black" stroke="none" xml:space="preserve">oeSetClock(2017:11:26 - 12:45:00)</text>
      <line clip-path="url(#clipPath65)" fill="none" x1="52" x2="45" y1="848" y2="851" />
      <line clip-path="url(#clipPath65)" fill="none" x1="45" x2="52" y1="851" y2="854" />
      <line clip-path="url(#clipPath51)" fill="none" x1="609" x2="45" y1="911" y2="911" />
      <text x="188" y="902" clip-path="url(#clipPath66)" fill="black" stroke="none" xml:space="preserve">oeSetCrisisStatus(1,solved)</text>
      <line clip-path="url(#clipPath67)" fill="none" x1="52" x2="45" y1="908" y2="911" />
      <line clip-path="url(#clipPath67)" fill="none" x1="45" x2="52" y1="911" y2="914" />
      <line clip-path="url(#clipPath51)" fill="none" x1="609" x2="45" y1="1031" y2="1031" />
      <text x="180" y="1025" clip-path="url(#clipPath68)" fill="black" stroke="none" xml:space="preserve">oeReportOnCrisis(1,3 victims sent to hospital, 2 cars evacuated and 4 rescue unit mobilized)</text>
      <line clip-path="url(#clipPath69)" fill="none" x1="52" x2="45" y1="1028" y2="1031" />
      <line clip-path="url(#clipPath69)" fill="none" x1="45" x2="52" y1="1031" y2="1034" />
      <line clip-path="url(#clipPath51)" fill="none" x1="609" x2="45" y1="1151" y2="1151" />
      <text x="181" y="1142" clip-path="url(#clipPath70)" fill="black" stroke="none" xml:space="preserve">oeCloseCrisis(1)</text>
      <line clip-path="url(#clipPath71)" fill="none" x1="52" x2="45" y1="1148" y2="1151" />
      <line clip-path="url(#clipPath71)" fill="none" x1="45" x2="52" y1="1151" y2="1154" />
      <line clip-path="url(#clipPath51)" fill="none" x1="609" x2="45" y1="140" y2="140" stroke-dasharray="5,5" />
      <text x="182" y="131" clip-path="url(#clipPath72)" fill="black" stroke-dasharray="5,5" stroke="none" xml:space="preserve">ieMessage(You are logged ! Welcome ...)</text>
      <line clip-path="url(#clipPath73)" fill="none" x1="602" x2="609" y1="143" y2="140" />
      <line clip-path="url(#clipPath73)" fill="none" x1="609" x2="602" y1="140" y2="137" />
      <line clip-path="url(#clipPath51)" fill="none" x1="609" x2="45" y1="258" y2="258" stroke-dasharray="5,5" />
      <text x="181" y="251" clip-path="url(#clipPath74)" fill="black" stroke-dasharray="5,5" stroke="none" xml:space="preserve">ieSendACrisis(crisis with ID 1 details)</text>
      <line clip-path="url(#clipPath75)" fill="none" x1="602" x2="609" y1="261" y2="258" />
      <line clip-path="url(#clipPath75)" fill="none" x1="609" x2="602" y1="258" y2="255" />
      <line clip-path="url(#clipPath51)" fill="none" x1="477" x2="45" y1="399" y2="399" stroke-dasharray="5,5" />
      <text x="44" y="390" clip-path="url(#clipPath76)" fill="black" stroke-dasharray="5,5" stroke="none" xml:space="preserve">ieSmsSend(+3524666445252,The handling of your alert by our services is in progress !)</text>
      <line clip-path="url(#clipPath77)" fill="none" x1="470" x2="477" y1="402" y2="399" />
      <line clip-path="url(#clipPath77)" fill="none" x1="477" x2="470" y1="399" y2="396" />
      <line clip-path="url(#clipPath51)" fill="none" x1="609" x2="45" y1="444" y2="444" stroke-dasharray="5,5" />
      <text x="184" y="431" clip-path="url(#clipPath78)" fill="black" stroke-dasharray="5,5" stroke="none" xml:space="preserve">ieMessage(You are now considered as handling the crisis !)</text>
      <line clip-path="url(#clipPath79)" fill="none" x1="602" x2="609" y1="447" y2="444" />
      <line clip-path="url(#clipPath79)" fill="none" x1="609" x2="602" y1="444" y2="441" />
      <line clip-path="url(#clipPath51)" fill="none" x1="609" x2="45" y1="631" y2="631" stroke-dasharray="5,5" />
      <text x="183" y="626" clip-path="url(#clipPath80)" fill="black" stroke-dasharray="5,5" stroke="none" xml:space="preserve">ieMessage(The Alert is now declared as valid !)</text>
      <line clip-path="url(#clipPath81)" fill="none" x1="602" x2="609" y1="634" y2="631" />
      <line clip-path="url(#clipPath81)" fill="none" x1="609" x2="602" y1="631" y2="628" />
      <line clip-path="url(#clipPath51)" fill="none" x1="477" x2="45" y1="791" y2="791" stroke-dasharray="5,5" />
      <text x="52" y="780" clip-path="url(#clipPath82)" fill="black" stroke-dasharray="5,5" stroke="none" xml:space="preserve">ieSmsSend(+3524666445000,Your alert has been registered. We will handle it and keep you informed)</text>
      <line clip-path="url(#clipPath83)" fill="none" x1="470" x2="477" y1="794" y2="791" />
      <line clip-path="url(#clipPath83)" fill="none" x1="477" x2="470" y1="791" y2="788" />
      <line clip-path="url(#clipPath51)" fill="none" x1="609" x2="45" y1="971" y2="971" stroke-dasharray="5,5" />
      <text x="184" y="960" clip-path="url(#clipPath84)" fill="black" stroke-dasharray="5,5" stroke="none" xml:space="preserve">ieMessage(The crisis status has been updated !)</text>
      <line clip-path="url(#clipPath85)" fill="none" x1="602" x2="609" y1="974" y2="971" />
      <line clip-path="url(#clipPath85)" fill="none" x1="609" x2="602" y1="971" y2="968" />
      <line clip-path="url(#clipPath51)" fill="none" x1="609" x2="45" y1="1091" y2="1091" stroke-dasharray="5,5" />
      <text x="183" y="1083" clip-path="url(#clipPath86)" fill="black" stroke-dasharray="5,5" stroke="none" xml:space="preserve">ieMessage(The crisis comment has been updated !)</text>
      <line clip-path="url(#clipPath87)" fill="none" x1="602" x2="609" y1="1094" y2="1091" />
      <line clip-path="url(#clipPath87)" fill="none" x1="609" x2="602" y1="1091" y2="1088" />
      <line clip-path="url(#clipPath51)" fill="none" x1="609" x2="45" y1="1211" y2="1211" stroke-dasharray="5,5" />
      <text x="182" y="1205" clip-path="url(#clipPath88)" fill="black" stroke-dasharray="5,5" stroke="none" xml:space="preserve">ieMessage(The crisis is now closed !)</text>
      <line clip-path="url(#clipPath89)" fill="none" x1="602" x2="609" y1="1214" y2="1211" />
      <line clip-path="url(#clipPath89)" fill="none" x1="609" x2="602" y1="1211" y2="1208" />
    </g>
  </g>
</svg>

